<?xml version="1.0" encoding="UTF-8"?>
<!DOCTYPE svg  PUBLIC '-//W3C//DTD SVG 1.1//EN'  'http://www.w3.org/Graphics/SVG/1.1/DTD/svg11.dtd'>
<svg clip-rule="evenodd" stroke-linecap="round" stroke-linejoin="round" stroke-miterlimit="10" version="1.1" viewBox="0 0 180 200" xml:space="preserve" xmlns="http://www.w3.org/2000/svg" xmlnsVectornator="http://vectornator.io">
<defs>
<filter id="f" x="6.519" y="1.5155" width="172.78" height="177.58" color-interpolation-filters="sRGB" filterUnits="userSpaceOnUse">
<feGaussianBlur in="SourceGraphic" result="Blur" stdDeviation="4.16691"/>
</filter>
<filter id="e" x="9.8382" y="121.82" width="85.194" height="58.229" color-interpolation-filters="sRGB" filterUnits="userSpaceOnUse">
<feGaussianBlur in="SourceGraphic" result="Blur" stdDeviation="4.16691"/>
</filter>
<filter id="d" x="11.24" y="100" width="43.74" height="44.113" color-interpolation-filters="sRGB" filterUnits="userSpaceOnUse">
<feGaussianBlur in="SourceGraphic" result="Blur" stdDeviation="5.71705"/>
</filter>
<filter id="c" x="33.004" y="30.984" width="116.99" height="105.39" color-interpolation-filters="sRGB" filterUnits="userSpaceOnUse">
<feGaussianBlur in="SourceGraphic" result="Blur" stdDeviation="1.30477"/>
</filter>
<filter id="b" x="27.374" y="125.61" width="30.555" height="25.617" color-interpolation-filters="sRGB" filterUnits="userSpaceOnUse">
<feGaussianBlur in="SourceGraphic" result="Blur" stdDeviation="3.39147"/>
</filter>
<filter id="a" x="27.797" y="125.14" width="24.348" height="22.17" color-interpolation-filters="sRGB" filterUnits="userSpaceOnUse">
<feGaussianBlur in="SourceGraphic" result="Blur" stdDeviation="3.39147"/>
</filter>
</defs>
<clipPath id="g">
<rect width="180" height="200"/>
</clipPath>
<g clip-path="url(#g)" fill-rule="evenodd" stroke-linecap="round" stroke-linejoin="round" vectornatorLayername="Layer 1">
<path d="m-12.518 122.81c-0.2567-2.31 0.5204-4.944 0.8633-7.23 0.5645-3.764 1.1871-7.537 1.1871-11.331 0-1.558 0.3723-4.8322-1.4029-5.7198" fill="#536936" stroke="#cbb59d" stroke-width="3.7461"/>
<path d="m93.432 17.718c38.763 0.2985 69.954 32.991 69.666 73.02l-2e-3 0.219c-0.288 40.03-31.945 72.238-70.708 71.94-38.764-0.299-69.954-32.991-69.666-73.021l0.0016-0.219c0.2878-40.03 31.945-72.238 70.709-71.94z" fill="#928372" filter="url(#f)" stroke="#bcae9d" stroke-width="11.566"/>
<path d="m88.552 13.526h1.4278c36.723 0 66.493 29.605 66.493 66.125 0 36.52-29.77 66.125-66.493 66.125h-1.4278c-36.723 0-66.494-29.605-66.494-66.125 0-36.52 29.77-66.125 66.494-66.125z" fill="#4a5c34" stroke="#f2f2f2" stroke-width="11.566"/>
<path d="m29.638 152.45l14.605-18.453c0.4645-0.587 1.3287-0.701 1.9301-0.254l5.363 3.981c0.6014 0.446 0.7123 1.284 0.2477 1.871l-14.604 18.453c-0.4646 0.587-1.3288 0.701-1.9302 0.254l-5.3629-3.981c-0.6015-0.446-0.7124-1.284-0.2478-1.871z" fill="#536936" stroke="#f2f2f2" stroke-width="11.566"/>
<path d="m33.208 138.02c-0.9122 0.637-1.1492 1.906-1.672 2.888-0.4238 0.796-0.8526 1.59-1.2915 2.377-3.0012 5.387-8.1212 14.988 0.8095 17.927 3.9138 1.287 8.7189 0.469 12.597-0.483 3.4237-0.841 6.9341-1.205 10.386-1.89 2.8902-0.573 5.8143-1.544 8.7666-1.743 4.3355-0.291 8.7092 0.688 13.072 0.268 0.2626-0.025 2.9633-0.301 2.9572-0.343-0.1046-0.712-4.2131-1.763-4.6491-1.869-4.4995-1.098-8.8788-1.734-13.523-1.478-3.8793 0.215-7.7446 0.591-11.587 1.155-2.2211 0.326-4.488 0.85-6.7434 0.626-1.0899-0.109-2.0966-0.379-3.0513-0.919-1.855-1.051-2.9572-3.605-5.4176-2.759-3.7469 1.288-5.5172 8.243-1.5923 10.259 6.2979 3.234 13.488 1.711 19.506-1.224 4.6301-2.259 9.3313-5.07 14.244-6.648" fill="#928372" filter="url(#e)" stroke="#bcae9d" stroke-width="11.566"/>
<path d="m24.948 110.38c0.1687 1.864 3.5994 6.963 4.6884 8.778 6.072 10.122 17.587 20.965 28.999 24.818 7.369 2.488 14.166 5.446 22.013 6.06 3.7175 0.291 7.608-0.894 11.3-1.295 3.6551-0.396 7.6352 0.042 11.224-0.815 8.469-2.024 16.5-6.054 23.958-10.432 2.038-1.196 4.18-2.257 6.003-3.784 2.032-1.703 3.519-3.943 5.156-5.978 2.355-2.929 5.216-5.431 7.274-8.596 2.627-4.039 4.211-8.847 5.933-13.32 3.446-8.9506 6.058-17.887 7.089-27.382 0.316-2.91 0.771-7.5852-1.163-10.197-0.252-0.3399 0.208 0.8155 0.303 1.2253 0.207 0.8928 0.449 1.7676 0.673 2.6575 0.681 2.7068 0.752 5.3716 1.096 8.1241 0.359 2.8797 1.622 5.4933 1.958 8.3558 0.562 4.7952-0.718 9.9125-1.735 14.56-0.486 2.223-1.646 4.254-2.133 6.446-1.543 6.942-3.241 13.281-6.737 19.58-1.652 2.977-4.215 5.172-6.52 7.632-8.404 8.967-18.772 13.782-30.55 17.267-9.138 2.704-18.31 3.668-27.784 3.751-6.7746 0.059-13.915 0.135-20.575-1.32-5.2612-1.149-10.351-3.805-14.957-6.44-7.1959-4.116-14.153-8.036-19.04-14.634-1.6681-2.252-2.5755-5.344-3.6104-8.022-2.278-5.896-3.595-12.288-5.8771-18.194-0.3861-0.999-2.5756-5.116-1.9368-5.996 0.3057-0.421 2.0087 1.831 2.1613 2.103 1.6903 3.006 2.4935 6.747 4.5656 9.545" fill="#67635e" opacity=".22308" stroke="#67635e" stroke-width="1.9833"/>
</g>
<g fill-rule="evenodd" stroke-linecap="round" stroke-linejoin="round" stroke-width="1.9833" vectornatorLayername="Layer 2">
<path d="m28.732 70.037c-0.4804-0.9608 0.2483-3.0825 0.352-4.223 0.5078-5.5861 1.8596-9.3586 4.9268-13.959 1.3972-2.0957 2.2648-4.5612 3.8711-6.5691 1.7501-2.1876 4.2274-3.6409 6.2172-5.6307 1.3264-1.3264 2.2847-3.2333 3.7538-4.4576 3.4299-2.8582 7.3485-6.079 11.379-8.0941 1.9001-0.95 3.9615-1.5115 5.8653-2.4634 3.0184-1.5092 5.9145-3.1526 9.2671-3.8711 5.573-1.1942 11.674-1.5249 17.361-1.5249 0.9305 0 4.7383-0.4944 5.0441 0.1173" fill="none" opacity=".99225" stroke="#a9a49e"/>
<path d="m28.849 71.093c-2.9796 8.9385-0.7191 17.367 1.7595 26.042 1.4763 5.1673 3.1841 10.348 6.2172 14.898 3.3027 4.953 7.7855 9.127 12.317 12.903 1.8072 1.506 4.0749 2.322 5.8653 3.754 9.8765 7.901 23.73 13.483 36.599 10.909 2.7223-0.544 5.7155 0.221 8.4461-0.234 4.623-0.771 12.728-2.757 16.188-6.217" fill="none" opacity=".99225" stroke="#a9a49e"/>
<path d="m116.18 133.48c1.934 0 3.304-1.586 4.602-2.739 1.773-1.576 4.179-2.331 5.971-3.944 1.1-0.99 2.379-1.753 3.507-2.74 4.35-3.806 8.666-8.748 11.724-13.642 0.851-1.361 1.38-3.152 1.918-4.656 0.99-2.774 2.518-5.308 3.451-8.1087 1.303-3.9095 2.062-8.2211 2.575-12.327 0.084-0.6711 0.664-3.3389 0.11-3.6159" fill="none" opacity=".99225" stroke="#a9a49e"/>
<path d="m97.126 19.454c1.0815 0.1629 1.8605 0.6434 2.9192 0.9252 0.931 0.248 1.899-0.1142 2.844 0.1372 3.681 0.98 7.387 1.6756 10.934 3.1522 9.367 3.8999 17.012 10.66 23.406 18.334 1.578 1.8936 2.762 4.2984 3.929 6.4664 1.376 2.5548 2.969 4.9505 4.2 7.5751 0.75 1.5997 1.19 3.2485 1.734 4.922 0.187 0.574 0.33 1.1559 0.516 1.7285 0.045 0.1374 0.205 0.8974 0.233 0.7147" fill="none" opacity=".99225" stroke="#a9a49e"/>
<path d="m148.08 63.948c0.853 1.3739 0.814 3.8159 1.09 5.3751 0.537 3.0484 1.454 6.5261 1.351 9.6528-0.042 1.2732-0.286 2.4062-0.088 3.714" fill="none" opacity=".99225" stroke="#a9a49e"/>
<path d="m18.884 59.982c-0.7167 1.4333-0.7801 3.7291-1.0132 5.2829-0.5333 3.5557-1.0255 7.1088-1.3026 10.71-1.2768 16.598 2.2548 34.316 13.099 47.328 2.1141 2.537 4.4823 4.627 6.8026 6.948 0.4996 0.499 1.1034 1.347 1.7368 1.664" fill="none" opacity=".99225" stroke="#a9a49e"/>
<path d="m19.072 59.553c-0.1963-0.1596-0.1019-0.1784 0.0077-0.361 0.7718-1.2861 1.1961-2.7706 1.5209-4.2316 0.7826-3.5211 2.7247-6.4024 3.9711-9.7073 0.6828-1.8107 1.4835-3.5671 2.527-5.1684 4.1213-6.325 9.3815-11.827 15.107-16.734 2.8624-2.4532 6.0127-5.3965 9.5082-6.8807 5.2891-2.2457 10.423-4.3677 16.082-5.7822 4.6241-1.1557 9.0376-2.7577 13.778-3.2478" fill="none" opacity=".99225" stroke="#a9a49e"/>
<path d="m82.249 7.2711c0.4422 0.18281 1.4471 0.0136 1.9315 0.02215 1.8981 0.03348 3.7904 0.29996 5.703 0.28743 4.2259-0.02769 8.3893 0.45915 12.587 1.0369 5.282 0.72708 10.241 2.7585 15.128 4.7785 3.762 1.5549 7.704 3.0697 11.193 5.2219 2.1 1.2952 3.839 3.1336 5.909 4.3575" fill="none" opacity=".99225" stroke="#a9a49e"/>
<path d="m135.12 23.109c1.646 1.291 3.105 2.9601 4.594 4.4217 5.152 5.0563 9.281 10.005 12.989 16.266 1.279 2.1609 2.318 4.4005 3.353 6.6811 0.307 0.6752 0.811 1.4424 0.902 2.1999" fill="none" opacity=".99225" stroke="#a9a49e"/>
<path d="m157.13 53.017c0.598 0.3609 0.552 1.6304 0.708 2.2611 0.512 2.0726 0.989 4.1619 1.575 6.2145 1.431 5.0112 2.774 10.144 3.039 15.4 0.226 4.4526-0.327 8.6767-0.771 13.066" fill="none" opacity=".99225" stroke="#a9a49e"/>
<path d="m161.57 90.057c0.134 2.282-0.956 4.793-1.539 6.9605-1.183 4.3928-2.585 8.4648-4.475 12.606-0.636 1.393-1.313 2.757-1.941 4.149-0.305 0.676-0.567 1.643-1.071 2.209" fill="none" opacity=".99225" stroke="#a9a49e"/>
<path d="m152.89 115.48c-2.282 2.601-3.661 5.969-5.989 8.623-6.56 7.478-15.636 15.345-24.743 19.514-1.147 0.525-2.129 1.425-3.288 1.922-1.602 0.686-3.25 1.237-4.889 1.861-0.533 0.203-2.448 1.486-2.953 1.157" fill="none" opacity=".99225" stroke="#a9a49e"/>
<path d="m38.173 132.52c0.877 1.011 2.3812 1.591 3.4397 2.411 2.3015 1.783 4.3905 3.474 6.9169 4.97 8.7758 5.196 18.14 8.075 28.113 10.231 1.2796 0.276 2.7963 0.013 4.1266 0.197 2.5941 0.359 5.1498 0.879 7.7846 0.89 1.8929 8e-3 3.8065-0.258 5.7005-0.269 4.2943-0.025 8.8766-0.8 13.036-1.866 1.603-0.41 3.751-0.369 5.232-1.12" fill="none" opacity=".99225" stroke="#8d8a87"/>
<path d="m38.076 132.87c-0.6551 0.147-1.7559 2.019-2.1688 2.552-1.6589 2.142-3.6294 4.083-5.3041 6.177-2.103 2.63-4.5143 5.222-6.3136 8.066-0.5212 0.824-1.2095 1.937-1.3076 2.912-0.5802 5.765 8.5712 12.473 13.884 11.699 5.7315-0.835 9.547-8.76 12.834-12.756 1.6265-1.977 3.129-4.095 4.7825-6.035 0.3697-0.433 1.8043-1.376 1.6778-1.938" fill="#fffaf5" opacity=".99225" stroke="#a6a39f"/>
<path d="m26.524 115.29c2.7739 3.17 6.1054 5.884 8.842 9.077 0.8522 0.994 1.6577 2.049 2.5821 2.973 0.4156 0.416 0.9506 0.878 1.4085 1.252 0.1009 0.083 0.434 0.284 0.313 0.235-1.5654-0.626-3.1563-2.687-4.2254-3.756-1.8161-1.816-4.4332-3.937-5.6338-6.338" fill="#536936" filter="url(#d)" opacity=".99225" stroke="#d5cec7"/>
</g>
<g fill-rule="evenodd" stroke-linecap="round" stroke-linejoin="round" stroke-width="1.9833" vectornatorLayername="Layer 3">
<path d="m29.748 145.25c0.7701-0.623 1.1485-1.586 1.8796-2.269 1.6219-1.516 3.2857-3.075 4.7835-4.707 0.4107-0.448 0.421-1.521 0.8575-1.866 0.3289-0.26 0.7308 0.185 1.0609-0.046 0.2393-0.167 0.0053-0.876 0.2927-0.825 0.8274 0.147 2.2409 1.746 2.9585 2.28 1.6791 1.248 3.5654 2.246 5.3913 3.237 0.9144 0.497 5.5613 2.522 5.8303 2.907 0.2816 0.403-1.4641 1.795-1.6784 2.042-1.751 2.012-3.097 4.425-5.2568 6.056-1.9076 1.441-2.1741 4.081-3.4003 5.977-0.4232 0.654-0.6228 1.433-0.9878 2.105-0.0176 0.033-0.339 0.795-0.391 0.721-0.2925-0.419-0.0943-1.434-0.4618-2.012-1.9183-3.018-4.1864-5.72-6.5205-8.41-1.0032-1.157-2.2927-2.583-3.4226-3.62-0.2663-0.244-1.4476-1.033-1.525-1.294-0.0617-0.208 0.4212-0.139 0.5899-0.276z" fill="#d5cec7" opacity=".99225" stroke="#d5cec7"/>
<path d="m20.961 59.703c-0.4495 0.8991 0.0693 2.2632-0.0957 3.2533-0.7189 4.3138-0.5217 8.776-1.2439 13.109-0.9891 5.9351-1.1954 12.634-0.1913 18.658 0.3297 1.9784 1.2368 3.8876 1.6266 5.8365 0.2733 1.367 0.5169 2.852 1.1482 4.115 1.8205 3.641 4.0122 6.997 6.0281 10.525 1.0148 1.776 2.0767 3.672 3.3489 5.262 3.98 4.975 8.9992 8.848 14.161 12.535 5.7811 4.129 11.505 8.082 18.276 10.621 3.1455 1.18 6.8706 2.975 10.238 3.349 6.9425 0.771 14.398 1.154 21.338 0.383 1.872-0.208 3.7968 0.072 5.6458-0.192 1.614-0.23 3.387 0.031 4.975-0.287 1.474-0.294 2.856-0.977 4.306-1.339 0.208-0.052 2.752-1.003 2.679-1.149-0.136-0.272-1.596 0-1.914 0-1.251 0-2.663-0.305-3.923-0.095-1.207 0.201-2.428 0.643-3.731 0.383-5.4269-1.086-10.834-0.742-16.362-1.244-5.021-0.457-10.04-0.978-15.022-1.531-7.7467-0.861-13.88-6.295-20.189-10.238-9.4071-5.88-19.946-13.663-24.591-24.113-1.698-3.82-2.6995-8.3809-3.636-12.439-0.549-2.3793-1.6281-4.7078-1.818-7.1763-0.2808-3.6514-0.3061-7.3675-0.6697-11.004-0.4536-4.5352 0-9.2953 0-13.874 0-3.8349-0.4293-7.8241 1.8179-11.195" fill="#d5cec7" opacity=".99225" stroke="#d5cec7"/>
<path d="m131.64 22.661c-0.862-0.9884 1.096 1.221 1.357 1.4007 1.108 0.7646 1.86 1.7021 2.857 2.5917 2.984 2.6613 5.603 5.3632 8.269 8.3077 7.077 7.8187 12.715 18.166 14.619 28.55 0.263 1.438 0.988 2.8922 0.99 4.4004 6e-3 3.9749 0.168 7.9104 0.05 11.867-0.15 5.0444 0.7 10.282-0.67 15.335-0.671 2.4742-2.247 4.6218-2.957 7.0671-2.768 9.546-7.78 16.897-14.976 23.677-2.129 2.006-3.562 4.563-5.762 6.555-1.94 1.755-4.193 2.968-6.379 4.395-2.337 1.526-4.316 3.726-6.813 5.025-2.135 1.111-4.568 1.281-6.656 2.283-2.098 1.008-4.289 1.63-6.706 1.01-0.297-0.076-1.061 0.012-0.887-0.24 0.271-0.394 1.746-0.313 2.143-0.503 1.567-0.753 3.217-1.552 4.721-2.442 3.988-2.36 7.736-5.133 11.663-7.564 6.845-4.238 11.87-10.467 16.324-16.923 1.978-2.865 2.509-6.407 3.872-9.47 0.848-1.907 2.382-3.75 2.991-5.681 2.157-6.8392 4.688-13.632 4.677-20.871-4e-3 -2.4195 1.27-4.829 1.134-7.2093-0.391-6.85-3.002-14.222-6.609-20.049-1.653-2.6701-2.249-5.9391-4.108-8.4107-3.056-4.061-6.194-8.3684-8.791-12.757-1.048-1.7706-2.851-2.9849-4.07-4.6054-0.811-1.0779-1.308-2.3341-2.295-3.3182-0.568-0.5661-1.344-1.1154-1.825-1.7548-0.51-0.678-0.383-1.9854-0.987-2.788-0.239-0.3167-1.861-1.8435-1.632-2.3033 0.126-0.2536 1.484 0.952 1.694 1.0455 0.946 0.421 3.344 0.7978 3.905 1.7033 0.298 0.4816 1.962 2.9425 0.857 1.6757z" fill="#d5cec7" opacity=".99225" stroke="#d5cec7"/>
<path d="m124.12 17.868c-3.707-2.6413-8.297-4.2-12.546-5.5019-2.393-0.7333-4.54-1.6947-7.03-2.0847-4.38-0.68625-8.7792-0.49181-13.181-0.72231-6.3357-0.33179-13.257-0.52756-19.4 1.3102-5.1305 1.5349-10.09 3.3207-14.995 5.4232-1.3086 0.5609-2.6154 0.9656-3.8881 1.6413-0.0481 0.0256-0.5775 0.3067-0.5775 0.3067 0.0653 0.123 0.2784-0.0068 0.4176-0.0102 2.0788-0.0509 4.1505-1.2205 6.0537-1.945 1.0455-0.3981 2.2576-0.203 3.3309-0.4994 2.5983-0.7175 5.2082-1.6782 7.7526-2.5298 3.1241-1.0455 6.7073-1.193 9.9439-1.7894 2.443-0.4501 4.893-0.2493 7.3423-0.5138 4.2965-0.4641 8.323-0.6836 12.622 0.0674 4.3634 0.7622 8.9764 2.5815 13.098 4.1511 2.467 0.9396 5.248 1.2461 7.622 2.4044 2.432 1.1864 4.765 2.7796 6.96 4.3431" fill="#d5cec7" opacity=".99225" stroke="#d5cec7"/>
<path d="m40.587 104.36c-0.872-1.169-1.1028-2.685-1.5802-4.045-2.0431-5.8215-2.2491-10.91-0.862-17.048 0.7462-3.3018 1.1216-6.7356 2.1549-9.9683 2.0783-6.5024 6.4478-12.005 10.487-17.336 5.9577-7.8635 13.055-15.384 22.209-18.452 10.83-3.6305 21.418-2.4714 32.813 0.3935 1.836 0.4615 3.52 1.8591 5.172 2.7449 2.982 1.5997 6.088 2.9681 9.05 4.623 5.855 3.2708 11.74 6.6619 15.803 12.28 1.619 2.2392 2.789 4.7854 4.31 7.0789 1.277 1.9267 2.59 4.0615 3.16 6.3566 1.241 4.9914 2.946 10.829 2.299 16.036-1.042 8.3796-7.842 20.359-14.079 26.004-3.393 3.071-7.576 4.713-11.205 7.368-2.351 1.719-4.658 3.547-7.327 4.767-3.251 1.486-6.985 1.828-10.343 3.034-3.9051 1.402-7.0022 3.228-11.206 3.756-5.3446 0.672-11.07-0.855-16.377-1.3-2.4985-0.209-6.0527-0.732-8.3322-1.878-4.1311-2.077-7.0473-6.047-10.918-8.524-4.6252-2.96-9.3113-5.134-12.642-9.824-2.1672-3.051-5.6027-6.77-5.6027-10.835" fill="#788e5a" filter="url(#c)" opacity=".99225" stroke="#738e5a"/>
<path d="m52.277 114.71c-3.2489-1.639-4.1604-7.761-4.6965-11.007-1.8733-11.341-1.0245-23.134 5.7571-32.714 7.2994-10.312 20.114-17.065 32.27-19.109 3.6957-0.6215 8.0834-0.0368 11.817 0.3057 1.7597 0.1614 3.5822-0.2479 5.3022 0 4.52 0.6516 8.126 3.2356 11.969 5.3505 4.179 2.3 9.095 4.7452 12.12 8.5608 1.722 2.1713 2.853 4.8531 4.394 7.1849 2.673 4.0462 4.638 8.269 5.605 13.147 1.24 6.2552 1.021 15.893-2.878 21.402-0.872 1.232-2.43 2.385-3.485 3.516-10.179 10.913-22.95 19.447-38.178 20.179-4.0474 0.194-8.9766-1.615-12.878-2.599-2.7261-0.688-6.1108 0.204-8.6356-1.07-8.8758-4.478-17.11-8.618-21.21-18.803-1.1668-2.898-2.6859-5.885-2.121-9.02" fill="#889b70" opacity=".99225" stroke="#738e5a"/>
<path d="m59.772 107.88c0.3743-2.476-2.3252-7.556-2.6424-10.57-0.8232-7.8204 1.6231-15.67 6.1418-21.996 3.9263-5.4968 11.276-7.832 17.568-9.2841 17.65-4.0731 37.089-3.1712 45.135 16.14 3.872 9.2935-0.739 16.704-6.713 23.425-2.428 2.731-4.837 6.194-7.856 8.284-9.087 6.291-22.235 9.662-33.28 7.713-5.9861-1.057-13.743-4.102-16.997-9.427-0.7254-1.187-1.5657-2.904-1.3569-4.285z" fill="#738e5a" opacity=".99225" stroke="#738e5a"/>
<path d="m36.844 137.4c2.5511-5.102 4.5538-0.493 7.5707 1.392 0.2916 0.182 4.858 2.488 3.9159 2.959" fill="#9d9182" filter="url(#b)" opacity=".40471" stroke="#9d9182"/>
<path d="m37.454 137.84c-0.9119-0.912 1.7564-3.406 2.8716-3.22 1.2119 0.202 1.0147 2.301 2.3495 2.524" fill="#9d9182" filter="url(#a)" opacity=".40471" stroke="#9d9182"/>
<path d="m33.973 140.62c0.329-0.986 1.484-1.614 2.1755-2.349 0.6573-0.698 2.1406-3.314 3.4807-3.046 0.5898 0.118 1.2606 0.908 1.7404 1.219 2.1471 1.389 4.4666 3.061 6.7005 4.264 2.1648 1.165 6.6017 1.039 6.0913 4.612-0.0904 0.633-3.872 3.794-4.612 4.437-1.548 1.347-3.2022 2.802-4.3509 4.525-0.2744 0.412-0.7471 1.735-1.3053 1.828-0.2045 0.034-1.8628-3.186-2.0015-3.481-1.554-3.302-2.1885-7.332-5.6562-9.224-0.4852-0.265-2.345-1.658-2.8716-1.131-0.8205 0.82 1.2959 2.319 1.6533 2.697 1.9927 2.11 4.1427 4.579 5.3952 7.223 0.8564 1.808 1.2418 4.023 0.8702 6.004-0.0769 0.41-0.7174 2.329-0.3481 2.698 0.2151 0.215 1.8339 0.414 2.0885 0.261 1.02-0.612 0.3463-3.17 0.6091-4.09 0.3515-1.23 1.4578-1.78 2.3495-2.523 1.4798-1.234 2.9665-3.017 3.6548-4.787 0.2495-0.641 2.248-4.413 2.6976-4.263 0.133 0.044-1.7597 2.923-1.9144 3.132-1.993 2.697-4.5699 5.118-6.3524 7.919-0.401 0.63-1.0808 2.313-0.6091 2.785" fill="#9d9182" opacity=".34172" stroke="#9d9182"/>
</g>
<g fill="none" fill-rule="evenodd" stroke="#697447" stroke-linecap="round" stroke-linejoin="round" stroke-width="1.1063" vectornatorLayername ="Layer 4">
<path d="m51.516 164.87c1.8362-1.257 4.0227-4.005 6.5228-3.91 0.436 0.016 0.3507 0.852 0.2704 1.281-0.338 1.806-1.3883 3.387-2.0309 5.081-0.1395 0.368-0.5028 1.43-0.217 1.159 0.981-0.926 1.4567-2.589 2.2217-3.695 0.9916-1.433 0.6711-1.011 1.8038-1.943 6.2504-5.142 0.7454 5.508 1.1547 6.338 0.168 0.34 0.6203-0.461 0.835-0.774 0.6239-0.91 1.0848-1.707 1.8072-2.603 0.7732-0.958 3.422-3.001 4.9071-2.652 1.2589 0.295-0.0381 2.564-0.2398 3.046-1.0192 2.431-2.1036 4.871-2.7421 7.438-0.2826 1.136-0.0557 3.223 1.6623 2.501 0.8254-0.346 1.9562-2.212 2.3489-2.771 0.3802-0.54 0.684-1.135 1.0901-1.656 0.6361-0.817 1.3011-1.616 2.0301-2.351 0.5676-0.572 1.0874-0.39 1.6793-0.796" opacity=".99482"/>
<path d="m79.348 167.34c0.8196-2.418-2.546-1.735-3.6349-1.101-1.4558 0.848-2.0515 2.931-2.3047 4.46-0.14 0.845-0.2228 1.155 0.4137 1.638 1.5974 1.211 4.6252-3.627 5.0478-4.367 0.1975-0.345 0.411-0.682 0.612-1.025 0.0785-0.135 0.3018-0.544 0.2264-0.408-0.4574 0.824-0.7456 1.538-0.9757 2.488-0.1803 0.744-0.2466 1.799-0.211 2.571 0.1943 4.211 4.6658-3.748 5.242-3.64" opacity=".99482"/>
<path d="m86.954 163.1c-0.9851 0.135-1.4954 1.558-1.8326 2.417-0.6333 1.616-5.1421 13.448 1.4506 7.803 0.3873-0.331 0.6922-0.751 1.0739-1.089 1.2536-1.11 2.587-2.328 3.9739-3.277" opacity=".99482"/>
<path d="m95.514 168.51c0.1374-1.265-1.0385-3.161-2.51-1.82-1.0105 0.921-3.3586 6.574-1.2638 7.235 2.0652 0.652 4.5355-1.688 5.6879-3.136 0.5183-0.652 0.8-1.336 1.0265-2.119 0.0628-0.217-0.0846-0.809 0.0958-0.672 3.1891 2.418 5.9181-1.981 3.6911-4.65-0.8-0.959-2.5426 0.489-2.986 0.881-1.9549 1.731-2.6461 8.193 0.163 9.392 1.82 0.778 2.746-4.598 5.488-5.274 0.303-0.075 0.66-0.18 0.936-0.035 1.301 0.683-0.498 4.966 0.034 6.398 0.613 1.653 2.482-0.651 2.842-1.239 1.473-2.408 2.894-4.8 4.587-7.033" opacity=".99482"/>
<path d="m117.03 164.79c-0.154-1.118-1.394-2.972-2.657-1.517-1.145 1.318-1.979 5.297-0.932 6.907 1.872 2.879 4.435-3.962 4.563-5.148 0.055-0.503 0.576-1.585 0.074-1.516-0.847 0.117-0.393 1.668-0.501 2.517-0.399 3.148 2.213 5.062 4.106 1.788 0.433-0.748 0.678-1.589 0.989-2.395 0.2-0.519 0.357-1.054 0.535-1.58" opacity=".99482"/>
<path d="m82.489 163.43c1.3575 2.036 4.5037 4.17 6.9217 2.356" opacity=".99482"/>
<path d="m127.67 160.38c3.453 0.711 4.426-1.059 4.652-3.917" opacity=".99482"/>
<path d="m135.66 152.94c-5.087-2.631-4.639 4.642-1.87 5.593 2.999 1.03 3.83-5.611 2.132-6.33-0.107-0.046-0.042 0.242 2e-3 0.35 0.207 0.512 0.413 0.97 0.669 1.48 0.231 0.46 2.175 4.306 3.311 3.846 0.76-0.308 0.696-1.609 0.641-2.222-0.182-2.055-0.818-4.036-0.654-6.113" opacity=".99482"/>
<path d="m140.12 148.89c-0.157 0.762 1.68 3.806 2.679 2.98 2.109-1.743-0.409-4.784 0.395-6.118 0.068-0.113 0.164 0.213 0.207 0.337 0.093 0.269 0.115 0.559 0.196 0.832 0.119 0.394 0.257 0.783 0.404 1.168 0.515 1.359 1.699 5.925 3.778 6.039 1.076 0.06 0.94-1.864 0.918-2.404-0.088-2.194-0.804-3.658 0.652-5.311" opacity=".99482"/>
<path d="m155.13 146.66c2.101-0.398 0.539-6.577-0.537-6.862-0.189-0.05 0.026 0.423 0.16 0.567 0.419 0.448 1.034 0.422 1.557 0.21 0.981-0.398 1.453-1.423 1.448-2.479-5e-3 -1.334-1.987-4.946-3.525-3.339-1.579 1.652 1.755 6.409 3.192 7.188 0.972 0.527 2.304-1.146 2.622-1.833 0.544-1.174 1.341-5.264 0.334-6.443" opacity=".99482"/>
<path d="m160.98 128.24c-3.837-1.625-2.08 5.595 1.023 5.122 2.003-0.305 0.665-3.982 0.099-4.946-0.269-0.46-1.157-1.588-1.199-1.057-0.115 1.46 3.996 5.002 5.627 4.029 0.944-0.562-0.879-5.134-1.329-6.05-0.094-0.191-0.944-1.812-0.79-1.432" opacity=".99482"/>
<path d="m163.7 123c0.205 1.457 3.459 4.181 3.685 1.311 0.055-0.693-0.909-4.21-1.732-4.275-0.029-2e-3 0.284 0.32 0.352 0.349 0.373 0.158 0.639-0.427 0.721-0.643 0.292-0.776 0.234-1.747 0.025-2.533-0.231-0.865-1.175-2.676-2.387-2.258-1.628 0.562-0.267 3.794 0.141 4.499 1.13 1.954 2.778 3.457 5.067 2.994 3.868-0.782 1.948-6.317 1.783-8.923" opacity=".99482"/>
<path d="m161.45 119.71c4.325-0.274 6.824-2.95 6.205-7.35" opacity=".99482"/>
<path d="m159.94 121.51c0.169-0.192 0.055-0.082 0.372-0.291" opacity=".99482"/>
</g>
</svg>