<?xml version="1.0" encoding="UTF-8" standalone="no"?>
<!DOCTYPE svg PUBLIC "-//W3C//DTD SVG 1.1//EN" "http://www.w3.org/Graphics/SVG/1.1/DTD/svg11.dtd"
[
<!ATTLIST g
  xmlns:vectornator CDATA #FIXED "http://vectornator.io"
  vectornator:layerName CDATA #IMPLIED >
<!ATTLIST g
  xmlns:vectornator CDATA #FIXED "http://vectornator.io"
  vectornator:mask CDATA #IMPLIED >
<!ATTLIST text
  xmlns:vectornator CDATA #FIXED "http://vectornator.io"
  vectornator:width CDATA #IMPLIED >
<!ATTLIST text
  xmlns:vectornator CDATA #FIXED "http://vectornator.io"
  vectornator:text CDATA #IMPLIED >

<!ATTLIST path
  xmlns:vectornator CDATA #FIXED "http://vectornator.io"
  vectornator:blendMode CDATA #IMPLIED >
<!ATTLIST path
  xmlns:vectornator CDATA #FIXED "http://vectornator.io"
  vectornator:shadowColor CDATA #IMPLIED >
<!ATTLIST path
  xmlns:vectornator CDATA #FIXED "http://vectornator.io"
  vectornator:shadowOpacity CDATA #IMPLIED >
<!ATTLIST path
  xmlns:vectornator CDATA #FIXED "http://vectornator.io"
  vectornator:shadowRadius CDATA #IMPLIED >
<!ATTLIST path
  xmlns:vectornator CDATA #FIXED "http://vectornator.io"
  vectornator:shadowOffset CDATA #IMPLIED >
<!ATTLIST path
  xmlns:vectornator CDATA #FIXED "http://vectornator.io"
  vectornator:shadowAngle CDATA #IMPLIED >

<!ATTLIST image
  xmlns:vectornator CDATA #FIXED "http://vectornator.io"
  vectornator:blendMode CDATA #IMPLIED >
<!ATTLIST image
  xmlns:vectornator CDATA #FIXED "http://vectornator.io"
  vectornator:shadowColor CDATA #IMPLIED >
<!ATTLIST image
  xmlns:vectornator CDATA #FIXED "http://vectornator.io"
  vectornator:shadowOpacity CDATA #IMPLIED >
<!ATTLIST image
  xmlns:vectornator CDATA #FIXED "http://vectornator.io"
  vectornator:shadowRadius CDATA #IMPLIED >
<!ATTLIST image
  xmlns:vectornator CDATA #FIXED "http://vectornator.io"
  vectornator:shadowOffset CDATA #IMPLIED >
<!ATTLIST image
  xmlns:vectornator CDATA #FIXED "http://vectornator.io"
  vectornator:shadowAngle CDATA #IMPLIED >

<!ATTLIST g
  xmlns:vectornator CDATA #FIXED "http://vectornator.io"
  vectornator:blendMode CDATA #IMPLIED >
<!ATTLIST g
  xmlns:vectornator CDATA #FIXED "http://vectornator.io"
  vectornator:shadowColor CDATA #IMPLIED >
<!ATTLIST g
  xmlns:vectornator CDATA #FIXED "http://vectornator.io"
  vectornator:shadowOpacity CDATA #IMPLIED >
<!ATTLIST g
  xmlns:vectornator CDATA #FIXED "http://vectornator.io"
  vectornator:shadowRadius CDATA #IMPLIED >
<!ATTLIST g
  xmlns:vectornator CDATA #FIXED "http://vectornator.io"
  vectornator:shadowOffset CDATA #IMPLIED >
<!ATTLIST g
  xmlns:vectornator CDATA #FIXED "http://vectornator.io"
  vectornator:shadowAngle CDATA #IMPLIED >

<!ENTITY % SVG.filter.extra.content  "| feDropShadow" >
<!ELEMENT feDropShadow EMPTY>
<!ATTLIST feDropShadow
  xmlns:svg CDATA #FIXED "http://www.w3.org/Graphics/SVG/1.1/DTD/svg11.dtd"
  dx CDATA #IMPLIED>
<!ATTLIST feDropShadow
  xmlns:svg CDATA #FIXED "http://www.w3.org/Graphics/SVG/1.1/DTD/svg11.dtd"
  dy CDATA #IMPLIED>
<!ATTLIST feDropShadow
  xmlns:svg CDATA #FIXED "http://www.w3.org/Graphics/SVG/1.1/DTD/svg11.dtd"
  stdDeviation CDATA #IMPLIED>
<!ATTLIST feDropShadow
  xmlns:svg CDATA #FIXED "http://www.w3.org/Graphics/SVG/1.1/DTD/svg11.dtd"
  flood-opacity CDATA #IMPLIED>
<!ATTLIST feDropShadow
  xmlns:svg CDATA #FIXED "http://www.w3.org/Graphics/SVG/1.1/DTD/svg11.dtd"
  in CDATA #IMPLIED>
<!ATTLIST feDropShadow
  xmlns:svg CDATA #FIXED "http://www.w3.org/Graphics/SVG/1.1/DTD/svg11.dtd"
  result CDATA #IMPLIED>
<!ATTLIST feDropShadow
  xmlns:svg CDATA #FIXED "http://www.w3.org/Graphics/SVG/1.1/DTD/svg11.dtd"
  flood-color CDATA #IMPLIED>
]
>
<!-- Created with Vectornator (http://vectornator.io/) -->
<svg height="100%" stroke-miterlimit="10" style="fill-rule:nonzero;clip-rule:evenodd;stroke-linecap:round;stroke-linejoin:round;" version="1.1" viewBox="0 0 320 400" width="100%" xml:space="preserve" xmlns="http://www.w3.org/2000/svg" xmlns:vectornator="http://vectornator.io" xmlns:xlink="http://www.w3.org/1999/xlink">
<defs/>
<g id="Layer-4" vectornator:layerName="Layer 4">
<g opacity="0.522645">
<path d="M274.515 36.9356L286.004 36.9356L286.004 379.662L274.515 379.662L274.515 36.9356Z" fill="#5f5f5f" fill-rule="evenodd" stroke="none"/>
<path d="M274.594 36.375C274.167 36.3064 273.8 36.5011 273.75 36.8125C273.75 38.3186 273.809 37.7533 273.75 38.3125C273.645 39.3111 273.75 40.3397 273.75 41.3438C273.75 42.3478 273.75 43.3397 273.75 44.3438C273.75 47.356 273.75 50.3628 273.75 53.375C273.75 62.9137 273.75 72.4613 273.75 82C273.749 112.819 273.723 143.618 273.719 174.438C273.714 204.543 273.717 234.676 273.688 264.781C273.671 281.725 273.688 298.65 273.688 315.594C273.687 325.811 273.689 336.033 273.688 346.25C273.687 354.518 273.658 362.795 273.656 371.062C273.656 373.157 273.657 375.249 273.656 377.344C273.656 377.927 273.656 378.51 273.656 379.094C273.656 379.16 273.609 379.432 273.656 379.5C273.808 379.718 273.932 379.974 274.125 380.156C274.466 380.478 275.488 380.344 275.906 380.344C276.931 380.344 277.975 380.344 279 380.344C279.479 380.344 279.959 380.344 280.438 380.344C281.395 380.344 282.355 380.344 283.312 380.344C283.791 380.344 284.271 380.344 284.75 380.344C285.463 380.344 286.414 380.421 286.75 379.625C286.902 379.266 286.844 378.852 286.844 378.469C286.844 378.023 286.844 377.571 286.844 377.125C286.844 375.786 286.843 374.433 286.844 373.094C286.845 369.078 286.843 365.079 286.844 361.062C286.847 345.89 286.871 330.703 286.875 315.531C286.891 249.034 286.955 182.529 286.781 116.031C286.735 98.1734 286.672 80.3266 286.625 62.4688C286.614 58.4507 286.604 54.4243 286.594 50.4062C286.588 48.174 286.6 45.951 286.594 43.7188C286.591 42.8259 286.565 41.9241 286.562 41.0312C286.561 40.5848 286.564 40.1652 286.562 39.7188C286.561 39.2723 286.564 38.8214 286.562 38.375C286.561 37.8217 286.636 37.2057 286.156 36.8125C285.673 36.4166 285.052 36.4988 284.469 36.5C283.99 36.501 283.51 36.499 283.031 36.5C282.553 36.501 282.072 36.499 281.594 36.5C280.683 36.5019 280.865 36.5186 274.75 36.5312C274.668 36.4937 274.691 36.3906 274.594 36.375ZM275.281 37.3438C278.974 37.3514 278.773 37.3717 280.375 37.375C281.333 37.377 282.292 37.373 283.25 37.375C283.729 37.376 284.209 37.374 284.688 37.375C284.921 37.3755 285.171 37.3511 285.406 37.375C285.487 37.6155 285.438 37.9361 285.438 38.1875C285.436 38.6336 285.439 39.0852 285.438 39.5312C285.436 39.9773 285.439 40.4289 285.438 40.875C285.435 41.7671 285.44 42.6391 285.438 43.5312C285.434 44.8695 285.41 46.2243 285.406 47.5625C285.4 49.7928 285.412 52.0196 285.406 54.25C285.396 58.2646 285.386 62.2666 285.375 66.2812C285.331 83.2319 285.263 100.174 285.219 117.125C285.042 184.505 285.14 251.901 285.156 319.281C285.16 332.67 285.153 346.049 285.156 359.438C285.158 365.911 285.311 372.404 285.156 378.875C285.15 379.136 284.718 379 284.438 379C283.948 379 283.432 379 282.969 379C281.054 379 279.134 379 277.219 379C276.605 379 275.989 379 275.375 379C275.375 378.691 275.375 378.371 275.375 378.062C275.375 377.141 275.344 376.234 275.344 375.312C275.343 372.287 275.344 369.244 275.344 366.219C275.342 357.935 275.345 349.659 275.344 341.375C275.341 315.504 275.369 289.621 275.344 263.75C275.294 211.947 275.282 160.146 275.281 108.344C275.281 92.1111 275.281 75.8889 275.281 59.6562C275.281 54.6358 275.281 49.6142 275.281 44.5938C275.281 43.0876 275.281 41.5686 275.281 40.0625C275.281 39.6075 275.281 39.5124 275.281 37.3438Z" fill="#5f6d43" stroke="none"/>
</g>
<g opacity="0.522645">
<path d="M42.6086 375.608L275.662 375.608L275.662 379.766L42.6086 379.766L42.6086 375.608Z" fill="#5f5f5f" fill-rule="evenodd" stroke="none"/>
<path d="M220.875 374.906C180.826 374.898 140.767 374.876 100.719 375C87.9838 375.039 75.235 375.086 62.5 375.125C58.328 375.138 61.7019 375.129 42.8438 375.188C42.762 375.15 42.7845 375.047 42.6875 375.031C42.2606 374.963 41.8938 375.157 41.8438 375.469C41.8437 375.761 41.8921 375.604 41.8438 375.781C41.6872 376.356 41.8438 376.967 41.8438 377.562C41.8437 377.897 41.8438 378.228 41.8438 378.562C41.8437 378.819 41.8438 379.087 41.8438 379.344C41.8437 379.381 41.8112 379.588 41.8438 379.625C42.0439 379.852 42.2098 380.113 42.4375 380.312C42.6278 380.479 44.1505 380.375 44.4375 380.375C45.7011 380.375 46.9551 380.375 48.2188 380.375C52.4671 380.375 56.7204 380.375 60.9688 380.375C82.818 380.375 104.682 380.371 126.531 380.375C164.771 380.381 203.011 380.432 241.25 380.438L274 380.438C274.826 380.438 276.418 380.61 276.5 379.438C276.561 378.56 276.5 377.652 276.5 376.781C276.5 376.393 276.546 375.995 276.312 375.656C275.725 374.805 274.56 374.938 273.656 374.938C273.049 374.937 272.451 374.938 271.844 374.938C271.237 374.937 270.638 374.938 270.031 374.938C266.996 374.937 263.972 374.938 260.938 374.938C247.584 374.934 234.228 374.909 220.875 374.906ZM43.375 376.031C46.8013 376.042 46.6682 376.027 48.1875 376.031C50.6171 376.039 53.0392 376.055 55.4688 376.062C62.7575 376.085 70.055 376.103 77.3438 376.125C99.2069 376.192 121.074 376.318 142.938 376.312C162.358 376.308 181.767 376.315 201.188 376.312C220.001 376.31 238.812 376.287 257.625 376.281C260.659 376.28 263.684 376.282 266.719 376.281C268.539 376.281 270.367 376.282 272.188 376.281C272.794 376.281 273.393 376.281 274 376.281C274.262 376.281 274.545 376.273 274.812 376.281C274.789 377.054 274.812 377.827 274.812 378.594C274.813 378.717 274.812 378.846 274.812 378.969C274.813 379.021 274.791 379.172 274.812 379.125C274.84 379.064 274.066 379.094 273.875 379.094C273.202 379.094 272.517 379.094 271.844 379.094C270.63 379.094 269.432 379.093 268.219 379.094C264.577 379.095 260.923 379.093 257.281 379.094C252.426 379.095 247.574 379.093 242.719 379.094C233.615 379.095 224.51 379.093 215.406 379.094C175.961 379.095 136.507 379.153 97.0625 379.156C84.9244 379.157 72.7944 379.156 60.6562 379.156C56.4079 379.156 52.1546 379.156 47.9062 379.156C46.6924 379.156 45.4951 379.156 44.2812 379.156C43.9832 379.156 43.673 379.156 43.375 379.156C43.375 379.045 43.375 378.924 43.375 378.812C43.375 378.65 43.375 378.475 43.375 378.312C43.375 378.141 43.375 377.984 43.375 377.812C43.375 377.477 43.375 377.148 43.375 376.812C43.375 376.627 43.375 376.361 43.375 376.031Z" fill="#5f6d43" stroke="none"/>
</g>
</g>
<g id="Layer-2" vectornator:layerName="Layer 2">
<path d="M33.2126 23.1948L45.4206 23.1948L45.4206 370.659L33.2126 370.659L33.2126 23.1948Z" fill="#ffffff" fill-opacity="0.997787" fill-rule="evenodd" opacity="0.992248" stroke="#ffffff" stroke-linecap="round" stroke-linejoin="round" stroke-width="3.59985"/>
<path d="M262.548 23.4946L275.628 23.4946L275.628 372.768L262.548 372.768L262.548 23.4946Z" fill="#ffffff" fill-opacity="0.997787" fill-rule="evenodd" opacity="0.992248" stroke="#ffffff" stroke-linecap="round" stroke-linejoin="round" stroke-width="3.59985"/>
<path d="M48.3272 296.31L266.761 296.31L266.761 372.828L48.3272 372.828L48.3272 296.31Z" fill="#ffffff" fill-opacity="0.997787" fill-rule="evenodd" opacity="0.992248" stroke="#ffffff" stroke-linecap="round" stroke-linejoin="round" stroke-width="3.59985"/>
<path d="M190.754 369.46L192.788 369.46L192.788 369.76L190.754 369.76L190.754 369.46Z" fill="#ffffff" fill-opacity="0.997787" fill-rule="evenodd" opacity="0.992248" stroke="#ffffff" stroke-linecap="round" stroke-linejoin="round" stroke-width="3.59985"/>
<path d="M206.45 369.16L208.775 369.16L208.775 369.16L206.45 369.16Z" fill="#ffffff" fill-opacity="0.997787" fill-rule="evenodd" opacity="0.992248" stroke="#ffffff" stroke-linecap="round" stroke-linejoin="round" stroke-width="3.59985"/>
<path d="M213.716 369.46L218.076 369.46L218.076 370.359L213.716 370.359L213.716 369.46Z" fill="#ffffff" fill-opacity="0.997787" fill-rule="evenodd" opacity="0.992248" stroke="#ffffff" stroke-linecap="round" stroke-linejoin="round" stroke-width="3.59985"/>
<path d="M220.983 370.659L225.924 370.659L225.924 370.659L220.983 370.659Z" fill="#ffffff" fill-opacity="0.997787" fill-rule="evenodd" opacity="0.992248" stroke="#ffffff" stroke-linecap="round" stroke-linejoin="round" stroke-width="3.59985"/>
<path d="M231.156 370.659L254.119 370.659L254.119 372.758L231.156 372.758L231.156 370.659Z" fill="#ffffff" fill-opacity="0.997787" fill-rule="evenodd" opacity="0.992248" stroke="#ffffff" stroke-linecap="round" stroke-linejoin="round" stroke-width="3.59985"/>
<path d="M44.9296 23.3163L267.881 23.3163L267.881 36.2077L44.9296 36.2077L44.9296 23.3163Z" fill="#ffffff" fill-opacity="0.997787" fill-rule="evenodd" opacity="0.992248" stroke="#ffffff" stroke-linecap="round" stroke-linejoin="round" stroke-width="3.59985"/>
</g>
<g id="Layer-1" vectornator:layerName="Layer 1">
<path d="M30.8872 19.8971L279.697 19.8971L279.697 374.257L30.8872 374.257L30.8872 19.8971Z" fill="none" fill-rule="evenodd" opacity="0.992248" stroke="#5f6d43" stroke-linecap="round" stroke-linejoin="round" stroke-width="3.6121"/>
<path d="M48.6179 39.0841L262.249 39.0841L262.249 294.445L48.6179 294.445L48.6179 39.0841" fill="none" fill-rule="evenodd" opacity="0.992248" stroke="#5f6d43" stroke-linecap="round" stroke-linejoin="round" stroke-width="3.59985"/>
<path d="M137.562 293.911L138.724 293.911L138.724 294.511L137.562 294.511L137.562 293.911Z" fill="none" fill-rule="evenodd" opacity="0.992248" stroke="#5f6d43" stroke-linecap="round" stroke-linejoin="round" stroke-width="1.00244"/>
</g>
<clipPath id="ArtboardFrame">
<rect height="400" width="320" x="0" y="0"/>
</clipPath>
<g clip-path="url(#ArtboardFrame)" id="Layer-3" vectornator:layerName="Layer 3">
<g opacity="0.605833">
<path d="M34.4688 22.7188C33.7363 22.8576 33.1777 23.2751 33.25 23.6562C35.1643 33.7967 34.3081 44.0123 34.0312 54.25C33.7836 63.4071 33.5435 72.5382 33.0625 81.6875C32.55 91.4352 32.0763 101.207 31.9375 110.969C31.8936 114.054 31.8076 117.133 31.875 120.219C31.9799 125.02 32.0402 129.829 32.2812 134.625C32.6242 141.449 33.2204 148.263 33.4062 155.094C33.6109 162.617 32.9448 170.136 32.9375 177.656C32.9314 183.922 33.4425 190.172 33.4688 196.438C33.501 204.134 33.0315 211.839 32.7812 219.531C32.3937 231.442 32.1442 243.395 32.2188 255.312C32.2764 264.527 33.31 273.671 33.5625 282.875C33.7314 289.03 33.3375 295.189 33.4062 301.344C33.4417 304.516 33.633 307.674 33.75 310.844C33.9497 316.252 34.0562 321.683 34.125 327.094C34.309 341.556 34.1568 356.005 34.125 370.469C34.199 371.026 35.1171 371.361 36.1875 371.219C37.2579 371.077 38.074 370.526 38 369.969C38.0343 355.499 38.1732 341.031 38 326.562C37.9351 321.142 37.8483 315.699 37.6562 310.281C37.5442 307.12 37.3432 303.976 37.3125 300.812C37.2527 294.649 37.681 288.476 37.5312 282.312C37.325 273.823 36.4503 265.371 36.375 256.875C36.2601 243.899 36.5946 230.905 37.0312 217.938C37.2787 210.589 37.731 203.229 37.7188 195.875C37.7083 189.61 37.2281 183.359 37.25 177.094C37.2763 169.559 37.94 162.007 37.75 154.469C37.638 150.026 37.3175 145.592 37.0625 141.156C36.738 135.511 36.4953 129.872 36.375 124.219C36.1021 111.395 36.7135 98.5954 37.125 85.7812C37.3387 79.1264 37.508 72.4708 37.5625 65.8125C37.5953 61.8043 37.5302 57.8205 37.5312 53.8125C37.534 43.5401 38.1013 33.2719 35.9062 23.1562C35.834 22.7751 35.2012 22.5799 34.4688 22.7188Z" fill="#9eb079" stroke="none"/>
</g>
<g opacity="0.605833">
<path d="M41.5938 367.094C38.8827 367.181 36.1727 367.45 33.4688 368C33.2652 368.109 33.1296 368.308 33.0938 368.562C33.0579 368.817 33.1011 369.127 33.25 369.406C33.5478 369.964 34.1241 370.248 34.5312 370.031C42.5238 368.66 50.5106 369.829 58.5 370.594C61.7363 370.904 64.9677 371.118 68.2188 371.156C82.7586 371.329 97.3042 370.97 111.844 371.062C122.613 371.131 133.36 371.694 144.125 371.906C152.766 372.076 161.394 371.99 170.031 371.719C176.103 371.528 182.176 371.129 188.25 371.031C200.419 370.835 212.582 371.59 224.75 371.406C230.07 371.326 235.398 370.967 240.719 370.906C248.078 370.823 255.422 371.135 262.781 371.125C266.647 371.12 270.51 370.804 274.375 370.812C276.252 370.817 278.099 370.973 279.969 371.125C280.572 371.047 280.983 370.295 280.875 369.469C280.767 368.642 280.197 368.047 279.594 368.125C277.599 367.962 275.628 367.817 273.625 367.812C269.754 367.803 265.871 368.09 262 368.094C254.625 368.101 247.25 367.803 239.875 367.875C234.547 367.927 229.233 368.313 223.906 368.375C212.435 368.509 200.971 367.67 189.5 367.75C182.675 367.798 175.852 368.232 169.031 368.438C160.475 368.695 151.933 368.786 143.375 368.594C132.579 368.352 121.802 367.733 111 367.656C101.61 367.59 92.2017 367.664 82.8125 367.781C77.2207 367.851 71.6233 368.054 66.0312 368.094C57.8639 368.151 49.7268 366.832 41.5938 367.094Z" fill="#9eb079" stroke="none"/>
</g>
<g opacity="0.605833">
<path d="M76.125 32.1562C67.3911 32.4133 58.6375 32.9724 49.9375 33.7812C49.5222 33.9358 49.3819 34.5244 49.5938 35.0938C49.8056 35.6631 50.3034 35.9983 50.7188 35.8438C68.1258 34.8311 85.5814 35.0174 103 35.6875C106.962 35.8399 110.848 36.6869 114.812 36.8438C126.903 37.3222 139.029 36.7236 151.125 36.9062C154.99 36.9646 158.86 37.0913 162.719 37.3125C168.739 37.6576 174.75 38.1912 180.781 38.3125C188.31 38.464 195.852 38.0566 203.375 37.8125C210.862 37.5696 218.358 37.4755 225.844 37.2188C229.321 37.0995 232.77 36.6909 236.25 36.6562C239.753 36.6214 243.289 36.9066 246.781 37.1562C252.372 37.5559 257.942 38.0501 263.531 38.4688C264.135 38.384 264.554 37.6397 264.438 36.8125C264.321 35.9853 263.728 35.384 263.125 35.4688C257.179 35.022 251.23 34.5035 245.281 34.0938C242.01 33.8685 238.718 33.6268 235.438 33.6562C231.919 33.6878 228.421 34.0738 224.906 34.1875C216.874 34.4473 208.816 34.5538 200.781 34.75C193.874 34.9187 186.941 35.1728 180.031 35.0312C174.819 34.9245 169.639 34.4932 164.438 34.1562C159.751 33.8526 155.04 33.6796 150.344 33.5938C138.281 33.3733 126.214 33.912 114.156 33.4375C110.191 33.2815 106.278 32.4393 102.312 32.2812C93.5798 31.9332 84.8589 31.8992 76.125 32.1562Z" fill="#9eb079" stroke="none"/>
</g>
<g opacity="0.605833">
<path d="M267.812 37.4688C267.09 37.3176 266.392 37.6289 266.281 38.1562C265.762 43.3308 265.9 48.5014 265.625 53.6875C265.272 60.3482 264.341 66.9781 264.219 73.6562C264.191 75.2014 264.202 76.7374 264.281 78.2812C264.385 80.2962 264.614 82.2914 264.562 84.3125C264.108 102.012 263.739 119.733 263.562 137.438C263.491 144.563 263.31 151.687 263.406 158.812C263.473 163.704 263.964 168.581 264.125 173.469C264.216 176.248 264.196 179.033 264.219 181.812C264.261 186.935 264.35 192.065 264.406 197.188C264.507 206.412 264.467 215.622 264.188 224.844C263.8 237.665 263.104 250.459 262.75 263.281C262.621 267.944 262.487 272.648 262.469 277.312C262.451 281.974 262.573 286.62 262.625 291.281C262.507 292.049 263.26 292.806 264.312 292.969C265.365 293.131 266.319 292.643 266.438 291.875C266.387 287.225 266.262 282.587 266.281 277.938C266.3 273.291 266.433 268.614 266.562 263.969C267.129 243.625 268.654 223.297 268.594 202.938C268.576 196.961 268.437 190.976 268.375 185C268.337 181.349 268.393 177.712 268.281 174.062C268.115 168.659 267.567 163.254 267.594 157.844C267.675 141.669 267.965 125.515 268.281 109.344C268.439 101.25 268.805 93.1269 268.812 85.0312C268.814 82.9264 268.491 80.8733 268.312 78.7812C268.185 77.2875 268.15 75.7797 268.125 74.2812C268.014 67.5981 268.702 60.9557 268.812 54.2812C268.899 49.0835 268.576 43.8824 268.906 38.6875C269.017 38.1601 268.535 37.6199 267.812 37.4688Z" fill="#9eb079" stroke="none"/>
</g>
<path d="M264.939 391.244" fill="none" fill-rule="evenodd" opacity="0.605833" stroke="#5f6d43" stroke-linecap="round" stroke-linejoin="round" stroke-width="1.45956"/>
<g opacity="0.96436">
<path d="M166.469 347.469C165.68 347.665 165.155 348.544 164.625 349.188C164.274 349.614 163.965 350.087 163.656 350.562C163.264 349.485 162.697 348.078 161.5 347.75C159.242 347.131 159.671 350.313 159.906 351.562C159.997 352.043 160.084 352.522 160.188 353C160.291 353.482 160.412 353.959 160.531 354.438C160.65 354.914 160.777 355.37 160.906 355.844C161.035 356.316 161.176 356.811 161.312 357.281C161.816 359.019 162.253 360.753 162.719 362.5C162.864 363.043 162.968 363.98 163.5 364.344C163.676 364.464 163.884 364.533 164.094 364.562C164.137 364.568 164.162 364.549 164.219 364.562C164.269 364.591 164.348 364.64 164.344 364.594C164.339 364.574 164.348 364.551 164.344 364.531C164.539 364.519 164.727 364.513 164.875 364.375C165.175 364.095 165.104 363.602 165.062 363.25C164.908 361.951 165.383 360.696 165.781 359.469C166.701 356.634 167.952 353.903 168.406 350.938C168.58 349.804 168.709 348.028 167.344 347.531C167.013 347.411 166.732 347.403 166.469 347.469ZM161.375 349.062C161.426 349.127 161.485 349.182 161.531 349.25C161.599 349.351 161.66 349.456 161.719 349.562C162.027 350.129 162.241 350.762 162.438 351.375C162.585 351.836 162.664 352.31 162.781 352.781C162.72 353.08 162.529 353.343 162.531 353.656C162.535 354.402 162.75 355.139 163.062 355.812C163.122 355.941 163.062 355.808 163.469 356.562C163.452 356.577 163.343 356.661 163.312 356.688C163.275 356.72 163.343 356.775 163.375 356.812C163.529 356.995 163.74 357.122 163.969 357.188C164.013 357.2 164.095 357.233 164.094 357.188C164.134 357.193 164.178 357.219 164.219 357.219C164.417 357.219 164.648 357.154 164.781 357C165.034 356.707 164.941 356.205 164.906 355.875C164.805 354.902 164.623 353.954 164.406 353C164.364 352.813 164.298 352.624 164.25 352.438C164.278 352.378 164.251 352.308 164.281 352.25C164.844 351.166 165.727 350.308 166.562 349.438C166.588 349.411 166.6 349.371 166.625 349.344C166.644 349.724 166.716 350.108 166.656 350.5C166.446 351.891 166.03 353.23 165.594 354.562C165.328 355.375 165.068 356.194 164.781 357C164.424 358.005 164.034 359.003 163.75 360.031C162.962 357.228 162.035 354.486 161.469 351.625C161.337 350.959 161.27 350.241 161.312 349.562C161.323 349.394 161.327 349.226 161.375 349.062Z" fill="#5f6d43" stroke="none"/>
</g>
<g opacity="0.96436">
<path d="M176.062 350.844C175.769 350.796 175.465 350.797 175.188 350.906C174.793 351.061 174.515 351.545 174.312 352.094C174.226 352.02 174.231 351.892 174.094 351.875C173.8 351.839 173.527 352.005 173.5 352.219C173.558 355.003 173.638 357.755 173.406 360.531C173.404 360.554 173.433 360.487 173.438 360.469C173.444 360.551 173.426 360.638 173.438 360.719C173.534 361.384 174.65 361.66 175.062 361.156C175.136 361.067 175.081 360.921 175.094 360.781C175.101 360.805 175.119 360.819 175.125 360.844C175.141 360.916 175.154 360.699 175.156 360.625C175.162 360.471 175.149 360.476 175.156 360.312C175.17 360.002 175.175 359.686 175.188 359.375C175.213 358.736 175.266 358.107 175.312 357.469C175.412 356.114 175.513 354.734 175.812 353.406C175.901 353.012 175.957 352.835 176.094 352.469C176.098 352.457 176.12 352.45 176.125 352.438C176.791 353.423 176.947 354.865 177.062 355.969C177.182 357.112 177.274 358.289 177.219 359.438C177.181 360.23 176.938 361.364 177.906 361.625C179.092 361.944 179.203 360.374 179.406 359.594C179.773 358.185 180.038 356.746 180.531 355.375C180.7 354.906 180.916 354.466 181.094 354C181.14 353.955 181.173 353.92 181.219 353.875C181.249 353.845 181.282 353.811 181.312 353.781C181.95 354.119 182.035 355.148 182.062 355.844C182.086 356.432 181.949 357.007 181.938 357.594C181.916 358.679 181.95 359.758 181.969 360.844C181.922 361.155 182.229 361.467 182.656 361.531C183.083 361.596 183.453 361.374 183.5 361.062C183.482 359.988 183.448 358.918 183.469 357.844C183.478 357.347 183.585 356.872 183.594 356.375C183.605 355.717 183.56 355.008 183.375 354.375C183.211 353.815 182.92 353.315 182.469 352.938C182.235 352.742 181.947 352.618 181.656 352.531C180.058 352.056 179.467 353.55 179 354.812C178.883 355.129 178.815 355.458 178.719 355.781C178.671 355.344 178.62 354.998 178.531 354.469C178.288 353.025 177.759 351.119 176.062 350.844Z" fill="#5f6d43" stroke="none"/>
</g>
<g opacity="0.96436">
<path d="M189.688 351.938C187.645 352.57 186.489 356.238 186.5 358.125C186.506 359.142 186.787 360.113 187.75 360.594C189.615 361.524 190.264 359.971 190.875 358.562C191.027 358.213 191.173 357.855 191.312 357.5C191.298 357.645 191.259 357.792 191.25 357.938C191.234 358.204 191.226 358.452 191.219 358.719C191.211 358.983 191.123 359.778 191.219 359.531C191.455 358.925 191.199 359.525 191.188 360.312C191.135 360.624 191.448 360.927 191.875 361C192.302 361.073 192.697 360.874 192.75 360.562C191.901 357.694 191.549 356.649 191.906 357.719C192.144 358.431 192.331 359.158 192.75 359.781C192.895 359.998 192.774 359.261 192.781 359C192.795 358.518 192.797 358.205 192.844 357.75C192.892 357.287 193.109 356.386 193.156 355.5C193.203 354.614 193.066 353.762 192.469 353.438C192.447 353.426 192.235 353.344 192.125 353.312C192.125 353.302 192.125 353.291 192.125 353.281C192.124 353.249 191.776 353.277 191.75 353.281C191.734 353.284 191.734 353.309 191.719 353.312C191.361 352.391 190.736 351.613 189.688 351.938ZM190.469 353.156C190.701 353.44 190.798 353.856 190.875 354.219C190.558 354.805 190.305 355.424 190.062 356.031C189.882 356.482 189.839 356.549 189.656 357C189.373 357.697 189.1 358.412 188.719 359.062C188.701 359.093 188.544 359.289 188.438 359.438C188.39 359.395 188.365 359.394 188.312 359.188C188.284 359.073 188.262 358.961 188.25 358.844C188.204 358.392 188.234 357.914 188.312 357.469C188.546 356.139 189.119 354.866 189.875 353.75C189.912 353.695 190.323 353.309 190.469 353.156ZM191.938 355.875C191.788 356.755 191.583 358.042 191.656 357.625C191.749 357.098 191.802 356.561 191.875 356.031C191.895 355.979 191.917 355.927 191.938 355.875Z" fill="#5f6d43" stroke="none"/>
</g>
<g opacity="0.96436">
<path d="M196.438 351.062C196.144 351.014 195.879 351.13 195.844 351.344C195.736 351.914 195.595 352.485 195.531 353.062C195.402 354.237 195.483 355.444 195.5 356.625C195.526 358.412 195.641 360.156 195.781 361.938C195.746 362.248 196.074 362.545 196.5 362.594C196.926 362.643 197.277 362.436 197.312 362.125C197.184 360.373 197.17 358.632 197.188 356.875C197.199 355.697 197.317 354.517 197.219 353.344C197.167 352.733 197.002 352.136 196.906 351.531C196.942 351.317 196.731 351.111 196.438 351.062Z" fill="#5f6d43" stroke="none"/>
</g>
<g opacity="0.96436">
<path d="M196.625 355.031C196.399 355.036 195.726 355.013 195.938 355.094C196.378 355.261 195.948 355.082 195.375 355.375C195.207 355.439 195.131 355.707 195.219 355.938C195.306 356.168 195.519 356.282 195.688 356.219C197.578 356.336 197.983 356.343 197.562 356.344C197.168 356.344 196.796 356.35 196.406 356.406C196.205 356.435 196.797 356.439 197 356.438C197.405 356.435 197.813 356.405 198.219 356.406C198.423 356.407 199.047 356.429 198.844 356.406C198.426 356.359 198.837 356.421 199.469 356.469C199.713 356.437 199.856 356.116 199.812 355.781C199.769 355.446 199.557 355.218 199.312 355.25C197.342 355.322 196.872 355.297 197.344 355.312C197.785 355.327 198.237 355.326 198.656 355.188C198.871 355.116 198.194 355.114 197.969 355.094C197.516 355.054 197.08 355.022 196.625 355.031Z" fill="#5f6d43" stroke="none"/>
</g>
<g opacity="0.96436">
<path d="M208.844 350.125C208.091 350.192 208.244 351.086 208.219 351.594C208.201 351.956 208.135 352.256 208.062 352.625C207.643 354.755 207.019 356.888 205.656 358.625C205.185 359.225 204.469 359.989 203.625 359.812C203.03 359.688 202.75 359.07 202.625 358.531C202.355 357.37 202.599 356.039 203.156 355C203.308 354.718 203.497 354.45 203.719 354.219C203.804 354.129 203.911 354.052 204 353.969C204.152 354.143 204.693 354.593 204.781 354.656C204.893 354.785 205.136 354.778 205.312 354.625C205.489 354.472 205.518 354.222 205.406 354.094C204.9 353.694 204.64 353.056 203.906 352.969C202.812 352.838 201.912 354.336 201.531 355.156C200.51 357.358 200.635 360.519 203.5 361.156C205.358 361.569 206.721 360.296 207.656 358.844C207.775 358.66 207.829 358.44 207.938 358.25C207.932 358.313 207.911 358.374 207.906 358.438C207.886 358.698 207.881 358.943 207.812 359.188C207.653 359.761 207.328 360.405 207.812 360.906C208.329 361.441 209.197 361.37 209.719 360.875C210.383 360.246 210.676 359.19 210.938 358.344C211.068 357.92 211.178 357.516 211.312 357.094C211.425 356.738 211.545 356.376 211.688 356.031C211.788 355.788 211.901 355.513 212.125 355.375C212.288 355.275 212.338 355.239 212.5 355.188C212.523 355.216 212.521 355.228 212.531 355.25C212.58 355.355 212.629 355.482 212.656 355.594C212.728 355.892 212.736 356.196 212.75 356.5C212.765 356.838 212.771 357.193 212.781 357.531C212.795 357.977 212.727 358.406 212.656 358.844C212.527 359.643 212.544 360.412 212.562 361.219C212.517 361.53 212.823 361.843 213.25 361.906C213.677 361.969 214.079 361.78 214.125 361.469C214.083 359.609 214.522 357.762 214.219 355.906C214.051 354.878 213.455 353.985 212.312 353.938C210.724 353.871 210.191 355.303 209.781 356.688C209.974 355.317 210.229 353.948 210.219 352.562C210.212 351.646 210.227 350.002 208.844 350.125Z" fill="#5f6d43" stroke="none"/>
</g>
<g opacity="0.96436">
<path d="M221.594 352.281C221.134 352.108 220.591 352.117 219.969 352.375C218.125 353.139 216.929 356.229 217 358.094C217.033 358.953 217.359 359.868 218.125 360.344C219.354 361.107 220.498 360.256 221.281 359.312C221.8 358.687 222.139 357.946 222.469 357.188C222.449 357.51 222.468 357.83 222.438 358.156C222.409 358.464 222.37 358.786 222.344 359.094C222.317 359.404 222.03 360.216 222.281 360.031C222.635 359.77 222.278 360.015 222.25 360.938C222.194 361.249 222.511 361.58 222.938 361.656C223.364 361.733 223.757 361.53 223.812 361.219C223.012 358.836 222.657 357.972 223 358.844C223.207 359.371 223.368 360.006 223.844 360.312C224.097 360.476 223.88 359.707 223.906 359.406C223.961 358.787 224.015 358.182 224.062 357.562C224.121 356.811 224.108 356.062 224.156 355.312C224.244 353.949 224.402 352.983 222.75 352.656C222.504 352.608 222.334 352.672 222.188 352.781C221.994 352.607 221.834 352.372 221.594 352.281ZM221.312 353.469C221.415 353.422 221.575 353.765 221.688 353.969C221.643 354.299 221.606 354.671 221.562 354.844C221.241 356.107 220.66 357.434 219.812 358.438C219.611 358.676 219.323 358.91 219.031 359.094C218.786 358.428 218.729 357.759 218.906 357.031C219.24 355.661 219.985 354.08 221.312 353.469ZM223.25 356.625C222.746 358.778 222.634 359.206 222.75 358.781C222.942 358.082 223.076 357.368 223.219 356.656C223.223 356.643 223.248 356.638 223.25 356.625Z" fill="#5f6d43" stroke="none"/>
</g>
<g opacity="0.96436">
<path d="M229.531 351.906C228.822 351.898 228.398 352.376 228.094 352.969C227.801 352.905 227.515 353.036 227.469 353.25C227.291 354.514 227.107 355.763 226.969 357.031C226.947 357.231 226.897 357.426 226.875 357.625C226.792 358.097 226.662 358.557 226.594 359.031C226.533 359.45 226.492 359.861 226.438 360.281C226.432 360.323 226.364 360.58 226.406 360.594C226.929 360.758 227.492 360.876 228.031 360.969C228.048 360.972 228.057 360.846 228.062 360.812C228.1 360.655 228.123 360.474 228.156 360.312C228.159 360.292 228.154 360.271 228.156 360.25C228.603 358.028 228.812 355.562 229.938 353.562C229.977 353.631 230.001 353.713 230.031 353.781C230.291 354.37 230.382 355.022 230.438 355.656C230.542 356.843 230.445 358.07 230.406 359.281C230.354 359.767 230.333 360.262 230.344 360.75C230.36 361.483 230.375 362.105 231.406 362.156C232.446 362.208 232.218 360.176 232.219 359.688C232.219 359.596 232.19 359.498 232.188 359.406C232.363 357.788 232.718 356.197 233.281 354.656C233.446 354.206 233.975 353.915 234.438 353.812C234.977 354.63 235.263 355.42 235.312 356.438C235.347 357.153 235.276 357.853 235.188 358.562C235.078 359.446 234.906 360.317 234.719 361.188C234.631 361.495 234.922 361.849 235.344 361.969C235.765 362.089 236.162 361.932 236.25 361.625C236.55 360.231 236.844 358.837 236.875 357.406C236.894 356.517 236.801 355.633 236.531 354.781C236.303 354.06 235.902 353.145 235.219 352.75C234.186 352.153 232.818 352.68 232.094 353.531C231.956 353.693 231.936 353.928 231.844 354.125C231.599 353.329 231.205 352.586 230.469 352.188C230.217 352.051 229.818 351.91 229.531 351.906Z" fill="#5f6d43" stroke="none"/>
</g>
<g opacity="0.96436">
<path d="M241.062 352.562C239.198 353.439 238.768 357.16 238.875 358.906C238.926 359.742 239.112 360.783 239.938 361.219C241.326 361.952 242.799 360.872 243.562 359.625C243.574 359.777 243.578 359.93 243.594 360.094C243.611 360.274 243.606 360.799 243.656 360.625C243.866 359.904 243.632 360.622 243.688 361.156C243.657 361.467 243.981 361.74 244.406 361.781C244.832 361.823 245.22 361.623 245.25 361.312C244.34 358.514 243.954 357.396 244.344 358.5C244.612 359.261 244.849 360.049 245.188 360.781C245.262 360.942 245.141 360.427 245.125 360.25C245.109 360.076 245.106 359.894 245.094 359.719C245.07 359.363 245.051 359.012 245.031 358.656C245 358.09 244.959 357.067 244.938 356.5C244.908 355.705 245.197 354.739 244.969 353.969C244.887 353.693 244.7 353.497 244.438 353.375C244.422 353.368 244.393 353.384 244.375 353.375C244.4 353.301 244.203 353.324 244.125 353.312C243.847 353.273 243.719 353.454 243.562 353.594C242.973 352.766 242.07 352.089 241.062 352.562ZM242.094 353.594C242.364 353.569 242.929 354.535 243 354.688C242.992 354.719 242.976 354.751 242.969 354.781C242.681 355.94 242.773 357.126 242.469 358.281C242.311 358.882 241.932 359.412 241.406 359.75C241.247 359.853 241.057 359.942 240.875 360C240.793 360.026 240.807 360.023 240.75 360.031C240.736 359.991 240.729 359.948 240.719 359.906C240.691 359.792 240.671 359.679 240.656 359.562C240.595 359.092 240.592 358.597 240.625 358.125C240.712 356.873 240.99 355.647 241.5 354.5C241.598 354.279 241.729 354.068 241.875 353.875C241.938 353.792 242.189 353.647 242.094 353.594Z" fill="#5f6d43" stroke="none"/>
</g>
<g opacity="0.96436">
<path d="M248.656 350.25C248.363 350.2 248.099 350.348 248.062 350.562C247.369 354.523 247.181 358.514 247.406 362.531C247.366 362.842 247.667 363.133 248.094 363.188C248.52 363.242 248.897 363.03 248.938 362.719C248.835 360.731 248.929 358.793 249.094 356.812C249.204 355.485 249.432 354.147 249.375 352.812C249.356 352.356 249.186 351.202 249.125 350.75C249.161 350.536 248.95 350.3 248.656 350.25Z" fill="#5f6d43" stroke="none"/>
</g>
<g opacity="0.96436">
<path d="M250.781 353.844C249.833 353.752 248.115 353.687 247.656 354.75C247.465 355.193 247.707 355.797 247.906 356.188C248.436 357.225 249.285 358.085 250.094 358.906C250.331 359.148 250.714 359.516 250.969 359.75C251.084 359.856 251.252 360.207 251.312 360.062C251.697 359.148 251.312 360.051 251.562 360.25C251.717 360.447 252.073 360.43 252.344 360.219C252.614 360.007 252.686 359.666 252.531 359.469C252.676 357.185 252.754 356.437 252.688 357.188C252.625 357.902 252.578 358.635 252.344 359.312C252.301 359.437 252.128 359.152 252.031 359.062C251.762 358.814 251.502 358.547 251.25 358.281C250.639 357.638 250.034 356.904 249.594 356.125C249.498 355.956 249.393 355.782 249.344 355.594C249.331 355.545 249.341 355.495 249.344 355.438C250.056 355.247 250.782 355.198 251.531 355.094C251.788 355.058 252.056 355.036 252.312 355C252.345 354.687 252.409 354.376 252.438 354.062C252.445 353.982 252.268 354.042 252.188 354.031C252.066 354.015 251.966 354.017 251.844 354C251.488 353.949 251.139 353.878 250.781 353.844ZM252.312 355C252.238 355.72 252.164 356.445 252.031 357.156C251.901 357.852 252.158 356.317 252.375 354.969C252.353 354.972 252.334 354.997 252.312 355ZM252.375 354.969C252.395 354.966 252.417 354.972 252.438 354.969C252.531 354.955 252.715 354.843 252.719 354.938C252.751 355.691 252.738 354.928 252.844 354.906C253.012 354.843 253.055 354.606 252.969 354.375C252.883 354.144 252.7 354.031 252.531 354.094C252.394 354.977 252.462 354.428 252.375 354.969Z" fill="#5f6d43" stroke="none"/>
</g>
<g opacity="0.96436">
<path d="M258.031 352.594C254.706 352.766 254.548 357.024 255.344 359.406C255.644 360.306 256.135 361.169 257 361.625C257.495 361.886 258.021 361.975 258.562 361.969C259.104 361.963 259.641 361.846 260.156 361.688C260.428 361.604 260.766 361.481 261.031 361.375C261.157 361.325 261.476 361.308 261.375 361.219C260.521 360.464 261.386 361.236 261.719 361.094C261.941 360.905 261.914 360.492 261.656 360.188C261.398 359.883 261.003 359.812 260.781 360C258.84 358.698 258.692 358.566 258.844 358.688C259.291 358.535 259.705 358.279 260 357.844C261.213 356.057 260.738 352.453 258.031 352.594ZM258.531 354.031C258.703 354.409 258.812 354.792 258.812 355.219C258.814 355.943 258.665 357.191 257.969 357.625C257.544 357.889 257.085 357.482 256.75 357.25C256.731 357.237 256.715 357.238 256.688 357.219C256.669 356.042 256.817 354.735 257.812 354.156C258.064 354.01 258.29 354.045 258.531 354.031ZM256.688 358.125C257.12 358.384 257.512 358.64 257.594 358.688C257.596 358.689 257.623 358.686 257.625 358.688C258.021 358.769 258.413 358.832 258.781 358.719C259.365 359.161 259.981 359.582 260.469 360.125C260.554 360.219 260.243 360.234 260.125 360.281C259.892 360.374 259.615 360.457 259.375 360.531C258.864 360.689 258.085 360.935 257.594 360.594C256.957 360.152 256.807 359.102 256.719 358.375C256.833 358.452 256.93 358.565 257.062 358.625C257.238 358.705 257.415 358.648 257.594 358.688C257.289 358.511 256.996 358.325 256.688 358.156C256.687 358.147 256.688 358.134 256.688 358.125Z" fill="#5f6d43" stroke="none"/>
</g>
<g opacity="0.96436">
<path d="M267.594 351.188C266.016 352.652 265.516 353.528 266.031 352.656C266.292 352.216 266.766 351.938 267.031 351.5C267.142 351.317 266.667 351.741 266.5 351.875C266.342 352.002 266.204 352.136 266.062 352.281C265.779 352.571 265.674 352.973 265.469 353.312C265.45 353.328 266.129 353.051 266 353.125C265.707 353.294 265.502 353.59 265.219 353.781C265.065 354.087 264.809 354.333 264.688 354.656C264.642 354.609 264.591 354.49 264.531 354.312C264.133 354.635 263.66 354.883 263.344 355.281C263.085 355.607 263.304 356.115 263.312 356.531C263.322 356.996 263.402 357.442 263.406 357.906C263.412 358.534 263.146 359.399 263.5 359.969C263.664 360.233 263.923 360.384 264.219 360.469C264.238 360.474 264.257 360.491 264.281 360.5L264.344 360.5C264.432 360.526 264.735 360.481 264.781 360.469C264.89 360.44 265.008 360.388 265.094 360.312C265.817 359.671 265.569 358.788 265.594 357.938C265.618 357.11 265.913 356.101 266.156 355.312C266.402 354.515 266.757 353.761 267.344 353.156C267.457 353.04 267.592 352.914 267.719 352.812C267.85 352.707 268.29 352.5 268.125 352.531C267.405 352.668 268.115 352.519 268.625 352.25C268.838 352.043 268.784 351.635 268.5 351.344C268.216 351.052 267.807 350.98 267.594 351.188ZM264.531 354.312C264.757 354.13 264.977 353.944 265.219 353.781C265.299 353.622 265.377 353.464 265.469 353.312C265.517 353.271 264.93 353.463 264.062 353.781C264.265 353.855 264.455 353.956 264.438 354.125C264.473 354.288 264.498 354.214 264.531 354.312ZM264.062 353.781C264.01 353.762 264.029 353.694 263.969 353.688C263.676 353.658 263.397 353.817 263.375 354.031C264.066 353.799 263.634 353.938 264.062 353.781Z" fill="#5f6d43" stroke="none"/>
</g>
<g opacity="0.96436">
<path d="M212.626 10.1851C218.468 20.7536 227.553 28.9621 235.749 37.7322C248.158 51.0108 261.572 63.3147 273.678 76.8874C276.02 79.5126 278.68 81.7921 281.088 84.3531C283.667 87.0951 285.764 90.3501 288.455 92.9727C288.825 93.3328 292.838 96.8611 292.995 96.7393C293.413 96.4154 292.266 92.8217 292.252 92.7798C291.648 90.9166 289.783 87.3581 290.527 85.3134C291.728 82.0147 298.869 89.1002 300.987 87.2974C302.355 86.1325 297.375 80.1798 296.67 79.0903C296.368 78.6242 295.444 77.9329 295.889 77.614C296.728 77.0139 299.802 79.1797 300.227 79.35C301.113 79.7044 307.479 80.0456 308.04 79.0887C309.234 77.0523 304.88 74.3661 303.735 73.5402C297.214 68.8392 291.362 63.8782 285.935 57.7947C279.823 50.9425 272.881 44.8815 266.668 38.1182C258.193 28.8931 249.279 20.0324 240.427 11.2248C236.783 7.5999 232.72 3.12682 227.926 1.29925C226.794 0.867956 224.312-0.174258 223.954 0.213745C221.994 2.33737 224.001 7.03405 221.958 8.80073C220.938 9.68263 211.691 8.49379 212.626 10.1851Z" fill="#9eb079" fill-rule="evenodd" stroke="none"/>
<path d="M223.719-0.4375C222.271 0.000304195 222.223 2.89925 222.219 4.09375C222.215 5.14733 222.335 6.42601 221.938 7.4375C221.8 7.78719 221.533 8.03791 221.312 8.34375C221.162 8.31464 220.745 8.48452 220.594 8.5C220.144 8.54596 219.702 8.55202 219.25 8.5625C217.427 8.6048 218.208 8.69615 212.844 9.96875C212.742 9.91879 212.701 9.81417 212.562 9.84375C212.406 9.87715 212.382 9.99045 212.312 10.0938C212.054 10.1535 212.16 10.154 211.875 10.2188C211.884 10.3783 212.125 10.4094 212.281 10.5C218.524 19.7459 216.406 17.1609 218.906 20.2812C224.162 26.8408 230.201 32.7135 235.938 38.8438C243.956 47.4132 252.358 55.6122 260.562 64C262.675 66.1593 264.805 68.3317 266.875 70.5312C269.354 73.1654 271.717 75.8876 274.219 78.5C276.449 80.8282 278.885 82.966 281.031 85.375C283.616 88.2755 285.788 91.5439 288.719 94.125C289.133 94.4898 289.55 94.8594 289.969 95.2188C290.383 95.5739 290.922 96.0185 291.281 96.3125C291.825 96.7565 292.918 97.8195 293.719 97.2188C294.285 96.7943 293.743 95.1137 293.625 94.6562C293.546 94.3493 293.461 94.0553 293.375 93.75C292.808 91.7276 291.771 89.8434 291.344 87.7812C291.195 87.0636 291.006 85.8981 291.562 85.2812C292.112 84.6719 294.054 85.7932 294.531 86.0312C295.152 86.3407 295.462 86.5236 296.156 86.875C297.489 87.5496 300.193 89.0401 301.656 87.8125C302.562 87.0527 301.824 85.5656 301.406 84.75C300.432 82.8493 299.085 81.1739 297.812 79.4688C297.505 79.0573 297.206 78.6701 296.875 78.2812C296.93 78.2999 296.978 78.3226 297.031 78.3438C297.262 78.4348 297.629 78.6026 297.844 78.7188C298.531 79.0909 299.198 79.5748 299.906 79.9062C300.597 80.2295 301.473 80.2247 302.219 80.2812C303.808 80.4019 305.417 80.4463 307 80.25C307.784 80.1528 308.669 79.9517 308.969 79.125C309.372 78.0121 308.647 76.8926 307.938 76.0938C306.449 74.4175 304.409 73.2652 302.625 71.9375C302.097 71.5444 301.555 71.1496 301.031 70.75C300.511 70.3532 300.014 69.9359 299.5 69.5312C298.455 68.708 297.485 67.9208 296.469 67.0625C293.976 64.9578 291.596 62.736 289.312 60.4062C286.764 57.8061 284.399 55.0647 281.844 52.4688C278.086 48.6509 274.143 44.9641 270.406 41.125C266.79 37.4096 263.344 33.5499 259.75 29.8125C253.596 23.4132 247.283 17.1779 241 10.9062C236.87 6.78324 233.033 2.66042 227.469 0.5C226.548 0.142529 224.696-0.73298 223.719-0.4375ZM224.5 0.78125C226.348 1.22532 228.263 1.93305 229.906 2.875C233.363 4.85677 236.153 7.82606 238.938 10.625C241.449 13.1493 243.983 15.6376 246.5 18.1562C250.924 22.5837 255.334 27.0353 259.656 31.5625C262.877 34.9364 265.971 38.4013 269.219 41.75C274.27 46.9586 279.652 51.8747 284.531 57.25C289.288 62.4903 294.369 67.2915 300 71.5938C301.843 73.0022 303.888 74.2461 305.656 75.75C306.313 76.3082 307.207 77.0927 307.375 78C307.565 79.0243 306.492 78.9414 305.719 79C305.141 79.0438 304.676 79.0302 304.094 79.0312C303.082 79.033 302.035 79.007 301.031 78.875C300.957 78.8653 300.706 78.8212 300.562 78.8125C300.589 78.8282 300.44 78.7923 300.469 78.7812C299.514 78.2144 298.567 77.5974 297.531 77.1875C296.83 76.91 295.423 76.4815 295 77.4062C294.699 78.0643 295.445 78.7004 295.812 79.125C296.032 79.3792 296.206 79.6681 296.406 79.9375C297.538 81.4572 298.7 82.9662 299.625 84.625C299.936 85.183 300.478 86.0088 300.375 86.6875C300.3 87.1798 299.092 86.7731 298.875 86.6875C298.552 86.5603 298.222 86.4263 297.906 86.2812C297.356 86.0283 296.309 85.4596 295.781 85.1875C294.431 84.4912 291.476 82.8388 290.094 84.3438C289.455 85.0388 289.427 86.1222 289.531 87C289.773 89.044 290.759 90.8856 291.406 92.8125C291.657 93.5588 291.86 94.3257 292.031 95.0938C292.039 95.1303 292.024 95.155 292.031 95.1875C291.811 95.0024 291.595 94.8106 291.375 94.625C291.288 94.5514 291.212 94.4807 291.125 94.4062C290.788 94.1166 290.459 93.8244 290.125 93.5312C289.308 92.8146 288.556 92.1312 287.812 91.3125C286.765 90.1587 285.814 88.9056 284.844 87.6875C283.097 85.4948 281.258 83.4607 279.25 81.5C276.228 78.55 273.354 75.4851 270.5 72.375C263.323 64.5547 255.757 57.1256 248.25 49.625C241.387 42.7679 234.637 35.7677 227.906 28.7812C224.124 24.8558 227.728 28.5986 213.219 10.2812C213.245 10.2213 213.379 10.2219 213.375 10.1562C215.623 9.83543 215.07 9.8326 215.625 9.8125C217.129 9.758 218.621 9.81012 220.125 9.75C220.817 9.72236 222.16 9.80337 222.656 9.1875C222.956 8.81528 223.263 8.44494 223.438 8C223.631 7.50779 223.666 6.9637 223.719 6.4375C223.874 4.8891 223.566 3.23613 224.031 1.71875C224.123 1.41853 224.225 1.13296 224.406 0.875C224.43 0.840459 224.468 0.811394 224.5 0.78125Z" fill="#5f6d43" stroke="none"/>
</g>
<g opacity="0.96436">
<path d="M10.6332 331.923C14.7537 334.243 17.3579 338.033 20.8076 341.249C31.8685 351.561 40.9156 364.014 50.1516 376.091C54.6549 381.979 58.6212 388.307 63.5555 393.842C65.0486 395.517 67.8958 398.05 68.0367 397.901C68.6502 397.25 67.2388 391.748 67.1215 391.075C66.7174 388.758 65.3538 381.153 67.3848 379.337C69.9575 377.038 81.1644 381.947 84.1401 382.935C84.237 382.967 88.802 384.428 89.027 384.147C90.5844 382.195 85.1132 376.903 83.9601 375.72C78.4594 370.078 73.0024 364.613 67.7629 358.669C61.4697 351.53 55.842 343.766 49.5838 336.625C45.5302 331.999 41.2039 327.593 37.2435 322.89C33.8311 318.839 30.424 314.792 26.9602 310.795C25.8538 309.519 25.2523 307.615 23.8019 306.816C18.5105 303.9 20.5267 315.851 17.8068 316.913C17.0733 317.199 9.46238 312.598 8.29024 314.45C7.33612 315.958 10.9169 321.507 9.64574 322.602C8.66902 323.443 3.14213 319.617 2.48015 322.012C2.22707 322.928 9.37427 331.214 10.6332 331.923Z" fill="#9eb079" fill-rule="evenodd" stroke="none"/>
<path d="M21.7812 305.781C19.3021 306.158 19.0269 310.289 18.7188 312.281C18.6518 312.714 18.5817 313.194 18.5 313.625C18.3658 314.333 18.2353 315.071 17.9062 315.719C17.8136 315.901 17.6945 316.116 17.5312 316.25C17.5204 316.259 17.5181 316.274 17.5 316.281C17.4534 316.271 17.437 316.26 17.4062 316.25C17.3187 316.22 17.2426 316.19 17.1562 316.156C16.926 316.067 16.6622 315.972 16.4375 315.875C15.8018 315.6 15.1659 315.309 14.5312 315.031C12.9906 314.358 11.3767 313.615 9.6875 313.438C8.94507 313.36 8.05611 313.418 7.59375 314.094C7.11163 314.798 7.41588 315.853 7.625 316.594C7.9841 317.866 8.54426 319.073 8.90625 320.344C9.02374 320.756 9.15369 321.196 9.15625 321.625C9.15729 321.799 9.04648 321.933 8.96875 322.094C8.85778 322.08 8.73958 322.061 8.625 322.031C8.05041 321.883 7.49348 321.673 6.9375 321.469C5.63281 320.988 2.33896 319.642 1.71875 321.75C1.49245 322.519 2.77368 324.016 3.15625 324.531C4.70539 326.616 3.18124 324.537 10.2188 332.344C10.2711 332.396 10.3632 332.3 10.4375 332.312C17.7223 338.848 15.586 336.547 17.875 339C19.5362 340.78 21.3436 342.402 23.0625 344.125C30.1883 351.269 36.4401 359.224 42.5312 367.25C45.5737 371.259 48.6614 375.245 51.625 379.312C55.2851 384.335 58.8022 389.451 62.875 394.156C63.8727 395.309 65.0075 396.344 66.1562 397.344C66.5405 397.678 67.2178 398.437 67.7812 398.531C69.0771 398.748 69.1216 397.926 69.0312 396.75C68.9739 396.004 68.8653 395.264 68.7188 394.531C68.618 394.027 68.5135 393.534 68.4062 393.031C67.6995 389.718 66.9839 386.251 67.1875 382.844C67.2451 381.879 67.3409 380.568 68.0938 379.844C68.9063 379.062 71.2656 379.513 72.1562 379.688C72.4188 379.739 72.708 379.784 72.9688 379.844C77.0315 380.779 80.7827 382.593 84.75 383.812C85.1005 383.92 85.4606 384.022 85.8125 384.125C86.4058 384.299 86.9938 384.479 87.5938 384.625C88.2896 384.794 89.6928 385.161 90.0312 384.156C90.5442 382.634 89.4147 381.017 88.5625 379.844C86.3094 376.741 83.1284 373.906 80.4688 371.188C79.5587 370.257 78.6556 369.31 77.75 368.375C76.8456 367.442 75.9594 366.503 75.0625 365.562C71.7213 362.058 68.4494 358.497 65.3438 354.781C61.2682 349.905 57.4196 344.844 53.3438 339.969C48.3732 334.023 42.9066 328.516 37.875 322.625C34.4385 318.601 31.0179 314.565 27.5938 310.531C26.1063 308.779 25.5406 306.505 23 305.844C22.5491 305.726 22.1354 305.727 21.7812 305.781ZM22.25 307.062C22.5129 306.987 22.8112 306.989 23.1875 307.156C24.3298 307.665 24.895 308.938 25.5312 309.938C26.0266 310.716 26.5841 311.36 27.1875 312.062C31.0173 316.52 34.7528 321.08 38.625 325.5C43.0432 330.544 47.7033 335.379 52 340.531C57.9402 347.654 63.492 355.049 69.75 361.906C73.7137 366.249 77.8617 370.45 81.9688 374.656C84.0901 376.829 86.7741 379.159 88.0938 381.906C88.3484 382.436 88.3836 382.869 88.3125 383.406C86.4776 382.918 84.6892 382.483 82.9062 381.812C79.1708 380.407 75.374 378.831 71.4062 378.219C70.0051 378.002 68.1521 377.791 66.9062 378.656C65.725 379.476 65.5167 381.193 65.4375 382.5C65.2535 385.538 65.7485 388.75 66.4062 391.719C66.6887 392.994 66.9945 394.27 67.1875 395.562C67.2254 395.816 67.2246 396.088 67.25 396.344C66.3484 395.567 65.4419 394.805 64.625 393.938C63.6663 392.92 62.7558 391.835 61.875 390.75C60.7171 389.323 59.6174 387.825 58.5312 386.344C56.7029 383.85 54.9132 381.313 53.0938 378.812C50.1199 374.726 47.0335 370.744 43.9375 366.75C39.2536 360.708 34.47 354.741 29.3125 349.094C26.4747 345.986 23.4118 343.126 20.4062 340.188C18.5015 338.325 20.1027 339.892 11.0312 331.719C11.0189 331.644 11.1148 331.552 11.0625 331.5C9.77976 330.331 10.1181 330.658 9.78125 330.312C9.018 329.529 8.2806 328.731 7.5625 327.906C6.92336 327.172 6.29915 326.413 5.6875 325.656C5.27164 325.141 4.86352 324.625 4.46875 324.094C4.2679 323.823 4.03376 323.5 3.84375 323.219C3.63 322.902 3.42115 322.575 3.28125 322.219C3.54137 321.803 3.82246 321.768 4.40625 321.875C4.62319 321.915 4.81949 321.97 5.03125 322.031C6.3836 322.424 7.7335 323.216 9.15625 323.312C9.56002 323.34 10.141 323.323 10.375 322.906C10.5536 322.588 10.7145 322.24 10.7188 321.875C10.7248 321.355 10.5433 320.846 10.4062 320.344C10.249 319.768 10.0385 319.19 9.84375 318.625C9.50014 317.629 9.02446 316.62 8.90625 315.562C8.86619 315.204 8.85769 314.692 9.3125 314.625C10.18 314.497 11.1563 314.932 11.9375 315.219C13.2895 315.715 14.5859 316.335 15.9062 316.906C16.5882 317.201 17.5161 317.736 18.2812 317.469C19.1482 317.166 19.5233 316.107 19.75 315.312C20.312 313.344 20.3571 311.26 20.875 309.281C21.1069 308.395 21.4613 307.288 22.25 307.062Z" fill="#5f6d43" stroke="none"/>
</g>
<g opacity="0.96436">
<path d="M404.907 69.0103L540.648 69.0103L540.648 83.5216L404.907 83.5216L404.907 69.0103Z" fill="#9eb079" fill-rule="evenodd" stroke="none"/>
<path d="M462 68.3125C449.289 68.3498 436.586 68.438 423.875 68.5C420.062 68.5186 423.074 68.5063 405.156 68.5938C405.075 68.5562 405.097 68.4531 405 68.4375C404.573 68.3689 404.175 68.5636 404.125 68.875C404.125 69.8953 404.178 69.5049 404.125 69.9062C404.007 70.8055 404.125 71.718 404.125 72.625C404.125 73.7965 404.125 74.9848 404.125 76.1562C404.125 77.3212 404.125 78.46 404.125 79.625C404.125 80.2331 404.125 80.8607 404.125 81.4688C404.125 81.6744 404.037 83.2543 404.125 83.375C404.276 83.5813 404.406 83.8259 404.594 84C404.882 84.2685 405.763 84.125 406.125 84.125C407.185 84.125 408.252 84.125 409.312 84.125C410.373 84.125 411.44 84.125 412.5 84.125C414.621 84.1251 416.723 84.1249 418.844 84.125C426.267 84.1252 433.701 84.123 441.125 84.125C464.46 84.1313 487.79 84.1836 511.125 84.1875L539.75 84.1875C540.065 84.1876 540.416 84.2205 540.719 84.125C541.677 83.8228 541.5 82.6314 541.5 81.8438C541.5 81.2392 541.5 80.6358 541.5 80.0312C541.501 78.8221 541.499 77.6154 541.5 76.4062C541.5 75.8017 541.5 75.1983 541.5 74.5938C541.5 73.9892 541.5 73.3858 541.5 72.7812C541.5 72.1767 541.5 71.5733 541.5 70.9688C541.501 69.9776 541.615 68.7841 540.438 68.4062C539.906 68.2358 538.838 68.344 538.344 68.3438C537.99 68.3436 537.635 68.3439 537.281 68.3438C536.928 68.3436 536.572 68.3439 536.219 68.3438C533.39 68.3425 530.578 68.3451 527.75 68.3438C518.205 68.3394 508.67 68.3135 499.125 68.3125L462 68.3125ZM405.688 69.4375C407.982 69.4487 408.149 69.4321 409.25 69.4375C411.374 69.4478 413.501 69.4584 415.625 69.4688C421.996 69.4998 428.379 69.5315 434.75 69.5625C454.91 69.6607 475.058 69.6897 495.219 69.6875C505.469 69.6864 515.718 69.6921 525.969 69.6875C529.15 69.6861 532.35 69.689 535.531 69.6875C536.592 69.687 537.627 69.688 538.688 69.6875C539.041 69.6873 539.397 69.6877 539.75 69.6875C539.76 69.6875 539.771 69.6875 539.781 69.6875C539.782 69.6981 539.781 69.7082 539.781 69.7188C539.785 69.9516 539.781 70.2046 539.781 70.4375C539.782 71.1272 539.781 71.8102 539.781 72.5C539.782 73.7094 539.781 74.9156 539.781 76.125C539.782 76.7297 539.781 77.3328 539.781 77.9375C539.782 79.1469 539.812 80.3531 539.812 81.5625C539.813 81.8804 539.818 82.2134 539.812 82.5312C539.811 82.6367 539.785 82.7399 539.75 82.8438C539.642 82.8438 539.514 82.8437 539.406 82.8438C539.053 82.8439 538.697 82.8436 538.344 82.8438C537.99 82.8439 537.635 82.8436 537.281 82.8438C536.221 82.8442 535.185 82.8433 534.125 82.8438C530.59 82.8451 527.035 82.843 523.5 82.8438C513.249 82.8459 503.001 82.8716 492.75 82.875C472.959 82.8816 453.167 82.9009 433.375 82.9062C427.012 82.908 420.644 82.9061 414.281 82.9062C412.16 82.9063 410.058 82.9062 407.938 82.9062C407.231 82.9063 406.519 82.9062 405.812 82.9062C405.771 82.9063 405.729 82.9062 405.688 82.9062C405.687 82.5103 405.688 82.1147 405.688 81.7188C405.687 80.545 405.688 79.3613 405.688 78.1875C405.687 76.4167 405.688 74.6458 405.688 72.875C405.687 72.0436 405.688 72.1979 405.688 69.4375Z" fill="#5f6d43" stroke="none"/>
</g>
</g>
</svg>
