<?xml version="1.0" encoding="UTF-8" standalone="no"?>
<!DOCTYPE svg PUBLIC "-//W3C//DTD SVG 1.1//EN" "http://www.w3.org/Graphics/SVG/1.1/DTD/svg11.dtd">

<!-- Created with Vectornator (http://vectornator.io/) -->
<svg height="100%" stroke-miterlimit="10" style="fill-rule:nonzero;clip-rule:evenodd;stroke-linecap:round;stroke-linejoin:round;" version="1.1" viewBox="0 0 1024 1024" width="100%" xml:space="preserve" xmlns="http://www.w3.org/2000/svg">
<defs/>
<g id="Layer-1">
<path d="M356.278 302.819C352.833 278.201 341.78 256.677 335.227 233.265C324.007 193.178 328.194 148.632 354.241 117.611C389.567 75.5402 452.941 85.2806 496.171 99.0099C508.755 103.006 523.564 104.633 534.2 114.376C545.085 124.348 548.555 142.196 550.499 157.241C554.228 186.115 552.536 216.25 552.536 245.396C552.536 255.76 553.709 269.842 549.14 279.365C542.216 293.796 519.423 300.339 507.037 304.436C483.255 312.304 459.029 320.132 434.374 322.229C428.388 322.738 422.749 324.655 416.718 324.655C401.576 324.655 389.478 316.747 375.293 312.524C370.514 311.101 361.195 306.138 356.278 308.48C354.677 309.243 355.033 314.552 354.92 315.759C354.081 324.75 350.831 334.173 348.129 342.448C338.891 370.739 337.5 402.821 331.152 432.221C322.916 470.368 310.769 507.747 301.272 545.448C297.259 561.382 294.385 577.822 291.086 593.974C287.43 611.875 282.052 629.306 278.862 647.353C276.123 662.85 273.949 678.299 270.034 693.452C262.999 720.683 259.168 748.385 259.168 776.755C259.168 792.406 260.788 809.292 269.355 822.046C289.184 851.566 326.384 861.763 355.599 873.807C373.669 881.256 392.054 887.694 410.606 893.218C433.9 900.153 458.298 901.471 481.91 906.158C499.362 909.622 516.835 913.344 534.2 917.48C546.458 920.4 558.963 923.27 571.55 922.333C585.035 921.329 597.728 916.213 610.938 913.437C632.273 908.953 662.361 902.914 677.489 881.895C684.06 872.764 685.551 858.244 688.354 847.118C692.069 832.37 696.186 815.928 693.787 800.209C692.353 790.816 690.616 781.586 689.712 771.903C688.034 753.916 687.328 735.591 684.959 717.715C678.266 667.236 660.005 620.648 647.609 572.138C640.162 542.998 636.175 512.528 629.273 483.173C621.902 451.821 608.705 423.86 598.035 394.209C593.381 381.277 587.259 369.429 581.737 357.006C575.958 344.006 571.456 330.275 565.439 317.377C563.842 313.955 555.989 295.293 552.536 293.922C543.551 290.356 524.047 306.452 513.828 308.48C501.062 311.014 487.951 313.212 475.119 315.759C468.288 317.115 461.736 319.971 454.747 320.612C442.147 321.766 429.404 321.42 416.718 321.42C408.211 321.42 397.959 324.454 389.554 322.229C384.466 320.883 381.412 314.15 378.009 310.098" fill="#ffeabe" fill-opacity="0.997787" fill-rule="evenodd" opacity="0.992248" stroke="#7d6951" stroke-linecap="round" stroke-linejoin="round" stroke-width="5.44553"/>
<path d="M377.018 316.439C375.749 325.324 372.882 333.75 371.122 342.55C368.992 353.199 368.033 364.03 365.226 374.556C359.269 396.894 350.969 418.308 346.696 441.097C344.597 452.288 343.432 463.604 341.642 474.788C338.118 496.812 333.008 518.383 329.85 540.486C328.122 552.586 324.643 564.452 323.112 576.704C321.917 586.261 322.292 595.827 321.427 605.341C319.532 626.189 316.05 646.738 313.847 667.67C309.711 706.96 303.74 746.783 303.74 786.432C303.74 799.69 304.582 812.787 304.582 826.019C304.582 830.119 302.989 840.054 305.424 843.707C305.986 844.549 307.109 842.193 307.109 841.18" fill="#edd9b0" fill-opacity="0.997787" fill-rule="evenodd" opacity="0.992248" stroke="#7d6951" stroke-linecap="round" stroke-linejoin="round" stroke-width="5.44553"/>
<path d="M392.179 321.493C387.809 341.159 388.278 360.506 386.283 380.452C384.984 393.444 382.526 406.231 381.229 419.197C379.656 434.934 379.713 450.736 377.018 466.365C354.466 597.167 341.642 730.259 341.642 863.08" fill="#edd9b0" fill-opacity="0.997787" fill-rule="evenodd" opacity="0.992248" stroke="#7d6951" stroke-linecap="round" stroke-linejoin="round" stroke-width="5.44553"/>
<path d="M413.236 319.808C413.236 352.076 409.639 383.647 407.34 415.828C404.99 448.73 401.93 481.607 398.075 514.375C395.531 536.001 390.933 557.45 389.652 579.231C386.271 636.708 387.927 694.356 386.283 751.898C385.325 785.441 381.658 819.399 383.756 852.972C384.178 859.717 385.441 866.483 385.441 873.187" fill="#edd9b0" fill-opacity="0.997787" fill-rule="evenodd" opacity="0.992248" stroke="#7d6951" stroke-linecap="round" stroke-linejoin="round" stroke-width="5.44553"/>
<path d="M449.454 329.073C450.263 333.118 452.18 336.789 452.823 340.865C455.293 356.507 453.102 373.245 452.823 388.875C452.383 413.561 452.413 439.234 452.823 463.838C453.387 497.685 458.839 531.208 461.246 564.912C463.985 603.248 462.482 641.907 464.615 680.305C466.301 710.645 468.928 740.955 471.354 771.271C472.784 789.157 473.192 807.382 475.565 825.177C477.09 836.617 479.733 848.202 480.619 859.711C481.164 866.799 480.196 874.652 481.461 881.61C481.882 883.925 483.766 885.681 483.988 888.348C484.816 898.29 482.667 906.763 487.357 916.143" fill="#edd9b0" fill-opacity="0.997787" fill-rule="evenodd" opacity="0.992248" stroke="#7d6951" stroke-linecap="round" stroke-linejoin="round" stroke-width="5.44553"/>
<path d="M458.719 314.754C458.719 338.873 461.436 363.048 462.088 387.191C462.628 407.158 461.822 427.028 462.931 446.993C464.571 476.523 468.871 505.899 470.511 535.432C472.238 566.522 472.119 597.912 475.565 628.925C478.576 656.025 480.255 683.562 483.988 710.627C485.967 724.974 488.852 739.219 490.726 753.583C494.969 786.115 499.693 818.237 505.887 850.445C508.626 864.688 508.517 879.248 511.783 893.402C512.885 898.175 515.311 902.3 516.837 906.878" fill="#edd9b0" fill-opacity="0.997787" fill-rule="evenodd" opacity="0.992248" stroke="#7d6951" stroke-linecap="round" stroke-linejoin="round" stroke-width="5.44553"/>
<path d="M503.36 309.701C503.922 309.42 504.722 308.32 505.045 308.858C505.923 310.323 505.535 312.241 505.887 313.912C506.659 317.577 507.798 321.167 508.414 324.862C511.594 343.943 512.322 363.762 514.31 382.979C518.505 423.53 526.697 463.152 532.84 503.425C537.414 533.412 544.992 562.291 551.37 591.865C563.358 647.444 573.721 703.279 586.746 758.637C591.401 778.418 595.854 798.455 599.38 818.439C600.912 827.121 601.454 835.997 603.592 844.549C604.949 849.977 607.222 855.143 608.645 860.553C611.464 871.262 613.879 881.929 617.068 892.56C617.401 893.668 617.092 895.11 617.911 895.929C619.022 897.04 619.995 891.674 622.964 897.613" fill="#edd9b0" fill-opacity="0.997787" fill-rule="evenodd" opacity="0.992248" stroke="#7d6951" stroke-linecap="round" stroke-linejoin="round" stroke-width="5.44553"/>
<path d="M519.681 309.103C519.681 320.516 523.298 330.097 525.503 341.125C528.658 356.897 529.37 373.134 533.072 388.866C535.424 398.864 539.149 408.485 541.223 418.559C544.356 433.779 546.024 449.256 548.209 464.553C549.024 470.254 551.208 475.782 552.285 481.437C554.796 494.623 556.898 508.057 560.436 521.028C563.915 533.785 568.004 546.558 570.916 559.453C576.643 584.818 580.512 610.579 587.217 635.723C597.155 672.991 610.464 709.069 620.403 746.343C629.863 781.818 640.776 816.887 650.096 852.305C652.459 861.283 653.32 870.597 655.336 879.669C655.896 882.189 655.75 885.407 658.247 886.655" fill="#edd9b0" fill-opacity="0.997787" fill-rule="evenodd" opacity="0.992248" stroke="#7d6951" stroke-linecap="round" stroke-linejoin="round" stroke-width="5.44553"/>
<path d="M540.641 299.788C543.383 305.273 544.172 312.608 545.881 318.419C550.677 334.725 552.987 352.326 555.778 369.071C558.726 386.757 564.244 404.1 568.587 421.47C573.87 442.604 577.349 464.067 583.724 484.931C587.878 498.527 592.106 512.015 595.951 525.685C599.447 538.116 604.854 549.811 608.177 562.364C613.691 583.196 618.82 604.192 625.643 624.661C633.195 647.315 641.305 669.886 648.349 692.779C659 727.395 668.84 762.21 676.878 797.577C680.477 813.415 685.029 831.29 685.029 847.647" fill="#edd9b0" fill-opacity="0.997787" fill-rule="evenodd" opacity="0.992248" stroke="#7d6951" stroke-linecap="round" stroke-linejoin="round" stroke-width="5.44553"/>
<path d="M660.576 897.135C659.679 891.307 660.025 889.047 657.665 884.326" fill="#edd9b0" fill-opacity="0.997787" fill-rule="evenodd" opacity="0.992248" stroke="#7d6951" stroke-linecap="round" stroke-linejoin="round" stroke-width="5.44553"/>
<path d="M620.986 908.197C619.985 904.195 619.821 899.532 619.821 895.388" fill="#edd9b0" fill-opacity="0.997787" fill-rule="evenodd" opacity="0.992248" stroke="#7d6951" stroke-linecap="round" stroke-linejoin="round" stroke-width="5.44553"/>
<path d="M478.344 313.761C478.344 331.879 480.633 349.834 481.837 367.906C483.636 394.882 484.242 421.9 487.077 448.834C488.284 460.299 491.352 471.732 492.899 483.184C497.193 514.96 500.006 546.905 504.544 578.666C507.746 601.081 513.986 622.888 518.517 645.038C524.144 672.549 529.02 700.138 534.236 727.712C539.54 755.746 546.504 783.477 551.703 811.55C554.335 825.766 554.693 840.386 556.943 854.634C559.271 869.38 559.162 885.162 563.929 899.464C565.565 904.371 566.568 910.058 567.422 915.184C567.56 916.007 567.494 919.913 568.005 920.423C568.311 920.73 568.393 919.647 568.587 919.259" fill="#edd9b0" fill-opacity="0.997787" fill-rule="evenodd" opacity="0.992248" stroke="#7d6951" stroke-linecap="round" stroke-linejoin="round" stroke-width="5.44553"/>
<path d="M450.398 325.405C450.398 329.355 450.189 333.229 449.234 337.049" fill="#edd9b0" fill-opacity="0.997787" fill-rule="evenodd" opacity="0.992248" stroke="#7d6951" stroke-linecap="round" stroke-linejoin="round" stroke-width="5.44553"/>
<path d="M430.021 328.898C424.584 345.209 426.305 364.405 427.11 381.297C428.475 409.971 432.35 438.643 432.35 467.464C432.35 509.491 430.649 551.265 428.274 593.222C427.481 607.232 425.575 621.121 424.781 635.141C422.544 674.663 422.312 714.406 424.781 753.911C426.902 787.848 428.817 821.872 430.603 855.798C431.099 865.23 431.895 874.409 432.932 883.744C433.347 887.478 432.975 891.4 434.678 894.806" fill="#edd9b0" fill-opacity="0.997787" fill-rule="evenodd" opacity="0.992248" stroke="#7d6951" stroke-linecap="round" stroke-linejoin="round" stroke-width="5.44553"/>
<path d="M385.191 881.415C385.757 879.148 385.773 876.766 385.773 874.429" fill="#edd9b0" fill-opacity="0.997787" fill-rule="evenodd" opacity="0.992248" stroke="#7d6951" stroke-linecap="round" stroke-linejoin="round" stroke-width="5.44553"/>
<path d="M381.699 318.821C367.551 290.523 356.52 258.915 349.817 228.078C345.221 206.938 342.203 186.47 342.95 164.803C343.505 148.692 347.305 129.067 358.155 116.244C360.392 113.6 363.02 112.048 365.513 109.867C371.878 104.298 379.094 97.3714 387.095 94.171C392.046 92.1906 396.745 93.3346 401.81 92.209C421.743 87.7796 450.404 91.9482 468.028 102.019C470.275 103.303 475.973 108.759 477.838 110.358C487.927 119.005 496.717 127.309 503.835 138.807C510.104 148.934 512.467 161.347 515.607 172.651C520.915 191.763 524.719 210.626 528.36 230.04C532.13 250.15 541.754 282.746 528.36 301.163C525.784 304.705 520.622 308.441 517.078 310.973C512.066 314.553 505.674 313.051 499.91 313.916C486.538 315.922 474.337 317.84 460.67 317.84C438.318 317.84 411.724 315.775 392.981 302.144C391.802 301.286 388.608 297.347 388.076 296.748C374.762 281.77 369.281 264.734 364.532 245.736C360.337 228.955 360.608 212.496 360.608 195.214C360.608 156.755 371.713 112.229 406.715 91.228C413.011 87.4503 418.167 83.905 425.354 81.9085C428.294 81.0918 432.989 81.418 435.655 81.418C439.131 81.418 443.143 80.684 446.446 81.418C450.337 82.2828 452.921 84.3223 456.256 86.323C461.867 89.6899 467.95 92.3053 472.933 96.6235C478.197 101.186 481.715 106.761 485.686 112.32C487.404 114.725 489.391 116.82 491.081 119.187C495.163 124.901 497.362 139.42 497.948 146.164C499.387 162.703 499.817 179.171 498.439 195.705C497.155 211.113 499.296 226.868 498.439 242.303C498.083 248.719 497.699 255.406 497.458 261.923C496.932 276.114 496.671 290.493 495.496 304.596C495.425 305.451 495.592 314.358 495.496 314.406C495.293 314.508 492.56 309.028 492.553 309.011" fill="#edd9b0" fill-opacity="0.997787" fill-rule="evenodd" opacity="0.992248" stroke="#7d6951" stroke-linecap="round" stroke-linejoin="round" stroke-width="5.44553"/>
<path d="M436.145 87.7945C437.636 90.7752 443.162 94.79 445.465 97.6045C453.405 107.309 459.997 121.598 463.613 133.411C472.175 161.38 471.461 191.328 471.461 220.23C471.461 249.729 470.48 279.097 470.48 308.52" fill="#edd9b0" fill-opacity="0.997787" fill-rule="evenodd" opacity="0.992248" stroke="#7d6951" stroke-linecap="round" stroke-linejoin="round" stroke-width="5.44553"/>
<path d="M434.183 83.8705C434.183 90.8551 432.178 98.5722 431.24 105.453C429.512 118.123 428.045 130.957 427.316 143.712C425.378 177.629 430.294 211.18 434.674 244.755C436.199 256.451 439.22 267.978 441.541 279.581C442.706 285.405 443.042 291.473 444.484 297.239C446.09 303.663 447.967 309.969 449.389 316.368C449.523 316.97 450.741 322.805 450.86 322.745C451.981 322.184 451.047 320.363 450.86 319.802" fill="#edd9b0" fill-opacity="0.997787" fill-rule="evenodd" opacity="0.992248" stroke="#7d6951" stroke-linecap="round" stroke-linejoin="round" stroke-width="5.44553"/>
<path d="M427.036 88.1644C420.52 102.836 412.268 116.23 406.706 131.393C389.176 179.186 388.541 238.482 413.093 283.885C418.302 293.517 420.665 306.712 428.562 314.553" fill="none" fill-rule="evenodd" opacity="0.992248" stroke="#7d6951" stroke-linecap="round" stroke-linejoin="round" stroke-width="5.44553"/>
<path d="M449.135 80.2234C454.266 77.6357 459.491 78.0465 465.038 78.1561C468.666 78.2277 472.358 77.6293 476.01 78.1175C490.557 80.0623 503.85 87.6815 516.118 94.9837C520.282 97.4624 525.079 99.2693 528.944 102.254C533.679 105.91 537.419 111.977 540.517 117.025C544.272 123.146 548.075 129.099 550.093 136.01C554.001 149.397 553.193 165.306 553.536 179.156C553.691 185.406 555.213 191.228 555.429 197.436C555.835 209.124 553.975 220.952 552.992 232.556C551.964 244.685 553.466 258.255 550.38 270.053C548.661 276.628 545.36 280.479 542.574 286.356C540.893 289.903 540.03 294.423 537.127 297.348" fill="none" fill-rule="evenodd" opacity="0.992248" stroke="#7d6951" stroke-linecap="round" stroke-linejoin="round" stroke-width="5.44553"/>
<path d="M548.707 280.248C544.537 273.658 550.529 277.999 551.806 279.711C555.188 284.247 554.75 291.1 556.187 296.385C556.575 297.813 558.12 300.875 558.108 302.047C558.095 303.332 556.266 303.857 555.211 304.59C547.267 310.112 535.266 312.158 526.055 314.732C521.33 316.053 516.834 318.003 512.101 319.29C507.474 320.548 502.57 320.698 497.968 322.064C491.806 323.893 486.044 327.12 479.689 328.408C473.284 329.706 464.496 331.289 457.976 331.945C450.126 332.735 442.28 329.042 434.296 329.375C422.871 329.85 411.818 333.122 400.454 333.232C395.644 333.279 389.657 330.282 385.156 328.917C381.797 327.898 378.249 327.692 374.988 326.337C367.356 323.168 364.534 317.684 360.396 311.141C359.218 309.278 356.51 307.404 355.755 305.303C354.804 302.66 353.848 298.081 357.131 296.607C359.098 295.724 365.536 296.091 368.278 295.485C372.125 294.635 376.266 293.329 380.182 292.935C388.076 292.14 396.006 294.394 403.817 295.06C409.181 295.517 414.724 295.45 420.094 295.673C431.81 296.16 444.714 294.095 456.21 292.037C471.129 289.367 486.654 288.972 501.69 287.458C514.48 286.171 527.52 286.233 539.991 283.152C542.012 282.653 549.623 281.696 548.707 280.248Z" fill="#7d6951" fill-rule="evenodd" opacity="0.992248" stroke="#7d6951" stroke-linecap="round" stroke-linejoin="round" stroke-width="5.44553"/>
</g>
<g id="Layer-2">
<path d="M280.033 800.548C278.248 799.806 275.816 800.084 274.665 798.358C273.415 796.485 274.103 793.692 273.898 791.35C273.442 786.15 272.284 780.816 271.597 775.581C269.456 759.28 267.762 744.076 267.762 727.4C267.762 715.551 267.816 703.286 268.529 691.484C269.428 676.594 273.363 661.572 275.432 646.807C277.272 633.67 277.644 620.263 280.8 607.386C288.243 577.028 300.099 549.417 309.179 519.785C312.181 509.99 312.797 500.002 314.548 490C318.272 468.733 321.784 447.18 326.053 426.051C326.869 422.014 331.482 397.16 337.558 398.895C339.478 399.443 342.751 405.164 343.694 406.779C349.54 416.794 352.819 428.499 357.5 439.191C366.577 459.926 385.79 484.522 404.286 494.38C424.189 504.989 447.142 508.429 468.714 512.777C477.732 514.594 486.44 517.607 495.558 518.909C513.476 521.467 531.307 521.132 549.248 522.413C555.408 522.853 561.496 524.601 567.656 525.041C579.715 525.902 591.677 526.524 603.704 527.669C610.962 528.36 619.258 526.589 625.947 531.173C654.322 550.618 652.627 595.153 658.928 627.535C664.003 653.619 667.663 680.164 671.966 706.376C678.601 746.788 687.552 786.613 682.704 828.142C679.827 852.792 665.884 887.678 645.889 899.975C640.636 903.206 633.85 904.495 628.248 906.984C606.782 916.518 584.455 920.703 561.52 919.248C554.254 918.787 545.583 919.804 538.51 917.496C522.699 912.336 507.992 901.94 491.723 898.223C488.178 897.413 484.493 897.473 480.985 896.471C477.109 895.365 477.768 894.264 474.082 893.843C460.986 892.347 448.768 893.842 435.733 890.339C423.601 887.079 413.06 880.301 401.218 876.323C392.243 873.308 383.146 870.583 374.374 866.687C367.144 863.476 360.227 858.089 352.898 855.299C347.047 853.071 340.875 851.285 335.257 848.29C329.971 845.473 325.331 841.231 319.917 838.654C315.778 836.684 311.838 836.587 307.645 835.15C304.642 834.121 302.456 832.11 299.208 831.646C295.897 831.173 292.431 831.458 289.237 829.894C283.892 827.278 281.188 815.808 281.567 809.746C281.735 807.061 283.542 804.506 283.101 801.862C282.897 800.636 281.06 800.974 280.033 800.548Z" fill="#7d6951" fill-rule="evenodd" opacity="0.224057" stroke="#7d6951" stroke-linecap="round" stroke-linejoin="round" stroke-width="5.44553"/>
<path d="M347.951 253.574C355.933 254.905 363.627 253.619 371.533 252.631C375.78 252.1 380.022 252.254 384.267 251.688C394.672 250.301 404.699 246.85 414.922 244.613C441.358 238.831 468.518 237.042 495.099 232.351C507.537 230.156 520.646 229.132 532.829 225.748C537.949 224.326 543.911 223.627 548.865 221.975C549.198 221.864 549.493 221.347 549.808 221.504C551.934 222.567 550.393 226.626 550.279 228.107C549.934 232.599 550.279 237.278 550.279 241.784C550.279 259.159 554.401 277.506 537.074 289.418C517.5 302.875 491.519 305.421 468.688 309.226C457.072 311.162 445.435 312.23 433.788 313.943C423.612 315.439 412.553 317.025 402.188 315.829C390.4 314.469 380.17 308.208 370.118 302.624C367.932 301.409 364.313 301.411 362.572 299.322C360.7 297.076 359.791 293.321 358.327 290.833C356.468 287.672 354.435 284.613 352.668 281.4C350.591 277.625 347.51 274.387 345.593 270.553C341.046 261.459 338.99 252.867 338.99 242.727" fill="#7d6951" fill-rule="evenodd" opacity="0.372204" stroke="#7d6951" stroke-linecap="round" stroke-linejoin="round" stroke-width="5.44553"/>
</g>
</svg>
