<?xml version="1.0" encoding="UTF-8" standalone="no"?>
<!DOCTYPE svg PUBLIC "-//W3C//DTD SVG 1.1//EN" "http://www.w3.org/Graphics/SVG/1.1/DTD/svg11.dtd"
[
<!ATTLIST g
  xmlns:vectornator CDATA #FIXED "http://vectornator.io"
  vectornator:layerName CDATA #IMPLIED >
<!ATTLIST g
  xmlns:vectornator CDATA #FIXED "http://vectornator.io"
  vectornator:mask CDATA #IMPLIED >
<!ATTLIST text
  xmlns:vectornator CDATA #FIXED "http://vectornator.io"
  vectornator:width CDATA #IMPLIED >
<!ATTLIST text
  xmlns:vectornator CDATA #FIXED "http://vectornator.io"
  vectornator:text CDATA #IMPLIED >

<!ATTLIST path
  xmlns:vectornator CDATA #FIXED "http://vectornator.io"
  vectornator:blendMode CDATA #IMPLIED >
<!ATTLIST path
  xmlns:vectornator CDATA #FIXED "http://vectornator.io"
  vectornator:shadowColor CDATA #IMPLIED >
<!ATTLIST path
  xmlns:vectornator CDATA #FIXED "http://vectornator.io"
  vectornator:shadowOpacity CDATA #IMPLIED >
<!ATTLIST path
  xmlns:vectornator CDATA #FIXED "http://vectornator.io"
  vectornator:shadowRadius CDATA #IMPLIED >
<!ATTLIST path
  xmlns:vectornator CDATA #FIXED "http://vectornator.io"
  vectornator:shadowOffset CDATA #IMPLIED >
<!ATTLIST path
  xmlns:vectornator CDATA #FIXED "http://vectornator.io"
  vectornator:shadowAngle CDATA #IMPLIED >

<!ATTLIST image
  xmlns:vectornator CDATA #FIXED "http://vectornator.io"
  vectornator:blendMode CDATA #IMPLIED >
<!ATTLIST image
  xmlns:vectornator CDATA #FIXED "http://vectornator.io"
  vectornator:shadowColor CDATA #IMPLIED >
<!ATTLIST image
  xmlns:vectornator CDATA #FIXED "http://vectornator.io"
  vectornator:shadowOpacity CDATA #IMPLIED >
<!ATTLIST image
  xmlns:vectornator CDATA #FIXED "http://vectornator.io"
  vectornator:shadowRadius CDATA #IMPLIED >
<!ATTLIST image
  xmlns:vectornator CDATA #FIXED "http://vectornator.io"
  vectornator:shadowOffset CDATA #IMPLIED >
<!ATTLIST image
  xmlns:vectornator CDATA #FIXED "http://vectornator.io"
  vectornator:shadowAngle CDATA #IMPLIED >

<!ATTLIST g
  xmlns:vectornator CDATA #FIXED "http://vectornator.io"
  vectornator:blendMode CDATA #IMPLIED >
<!ATTLIST g
  xmlns:vectornator CDATA #FIXED "http://vectornator.io"
  vectornator:shadowColor CDATA #IMPLIED >
<!ATTLIST g
  xmlns:vectornator CDATA #FIXED "http://vectornator.io"
  vectornator:shadowOpacity CDATA #IMPLIED >
<!ATTLIST g
  xmlns:vectornator CDATA #FIXED "http://vectornator.io"
  vectornator:shadowRadius CDATA #IMPLIED >
<!ATTLIST g
  xmlns:vectornator CDATA #FIXED "http://vectornator.io"
  vectornator:shadowOffset CDATA #IMPLIED >
<!ATTLIST g
  xmlns:vectornator CDATA #FIXED "http://vectornator.io"
  vectornator:shadowAngle CDATA #IMPLIED >

<!ENTITY % SVG.filter.extra.content  "| feDropShadow" >
<!ELEMENT feDropShadow EMPTY>
<!ATTLIST feDropShadow
  xmlns:svg CDATA #FIXED "http://www.w3.org/Graphics/SVG/1.1/DTD/svg11.dtd"
  dx CDATA #IMPLIED>
<!ATTLIST feDropShadow
  xmlns:svg CDATA #FIXED "http://www.w3.org/Graphics/SVG/1.1/DTD/svg11.dtd"
  dy CDATA #IMPLIED>
<!ATTLIST feDropShadow
  xmlns:svg CDATA #FIXED "http://www.w3.org/Graphics/SVG/1.1/DTD/svg11.dtd"
  stdDeviation CDATA #IMPLIED>
<!ATTLIST feDropShadow
  xmlns:svg CDATA #FIXED "http://www.w3.org/Graphics/SVG/1.1/DTD/svg11.dtd"
  flood-opacity CDATA #IMPLIED>
<!ATTLIST feDropShadow
  xmlns:svg CDATA #FIXED "http://www.w3.org/Graphics/SVG/1.1/DTD/svg11.dtd"
  in CDATA #IMPLIED>
<!ATTLIST feDropShadow
  xmlns:svg CDATA #FIXED "http://www.w3.org/Graphics/SVG/1.1/DTD/svg11.dtd"
  result CDATA #IMPLIED>
<!ATTLIST feDropShadow
  xmlns:svg CDATA #FIXED "http://www.w3.org/Graphics/SVG/1.1/DTD/svg11.dtd"
  flood-color CDATA #IMPLIED>
]
>
<!-- Created with Vectornator (http://vectornator.io/) -->
<svg height="100%" stroke-miterlimit="10" style="fill-rule:nonzero;clip-rule:evenodd;stroke-linecap:round;stroke-linejoin:round;" version="1.1" viewBox="0 0 926 280" width="100%" xml:space="preserve" xmlns="http://www.w3.org/2000/svg">
<defs/>
<clipPath id="ArtboardFrame">
<rect height="280" width="926" x="0" y="0"/>
</clipPath>
<g clip-path="url(#ArtboardFrame)" id="Layer-5">
<path d="M-4.55596 21.1407L928.156 21.1407L928.156 176.724L-4.55596 176.724L-4.55596 21.1407Z" fill="#ab9479" fill-rule="evenodd" opacity="0.96436" stroke="#614e39" stroke-linecap="round" stroke-linejoin="round" stroke-width="3.4754"/>
<path d="M0.906901 177.237L928.849 177.237L928.849 232.45L0.906901 232.45L0.906901 177.237Z" fill="#796247" fill-rule="evenodd" opacity="0.96436" stroke="#614e39" stroke-linecap="round" stroke-linejoin="round" stroke-width="3.72654"/>
<path d="M933.437 365.17L940.329 365.17L940.329 366.647L933.437 366.647L933.437 365.17Z" fill="none" fill-rule="evenodd" opacity="0.96436" stroke="#917250" stroke-linecap="round" stroke-linejoin="round" stroke-width="1.45956"/>
<g opacity="0.365309">
<path d="M458.25 206.875C451.174 206.972 444.103 207.17 437.031 207.438C429.285 207.73 421.534 208.231 413.781 208.344C399.163 208.556 384.557 207.526 369.938 207.969C355.913 208.394 341.951 210 327.906 209.844C320.362 209.76 312.793 209.518 305.25 209.344C286.772 208.918 268.293 208.402 249.812 208.094C229.701 207.758 209.613 208.047 189.5 207.906C172.031 207.784 154.559 207.332 137.094 207.938C131.155 208.143 125.24 208.564 119.344 209.312C112.313 210.206 105.336 211.42 98.25 211.812C87.7757 212.393 77.2619 212.74 66.7812 213.188C58.309 213.549 49.8498 214.023 41.375 214.312C34.4617 214.548 27.5286 214.442 20.625 214.938C16.2862 215.249 11.9873 215.82 7.71875 216.656C2.04704 217.734-1.67157 223.203-0.59375 228.875C0.484072 234.547 5.95329 238.265 11.625 237.188C22.1544 235.257 32.8544 235.89 43.5 235.594C53.0276 235.329 62.5666 234.972 72.0938 234.688C81.1642 234.416 90.246 234.197 99.3125 233.812C108.671 233.415 117.87 231.7 127.188 230.906C130.703 230.607 134.224 230.496 137.75 230.406C157.807 229.895 177.88 230.67 197.938 230.812C220.739 230.974 243.542 230.855 266.344 230.781C271.881 230.763 277.431 230.684 282.969 230.688C286.791 230.69 290.617 230.835 294.438 230.938C302.572 231.156 310.71 231.373 318.844 231.594C322.949 231.705 327.049 231.888 331.156 231.906C344.292 231.966 357.376 230.721 370.5 230.469C385.031 230.19 399.564 231.236 414.094 231.062C422.044 230.968 429.964 230.386 437.906 230.062C451.703 229.5 465.535 229.19 479.344 229.188C490.41 229.185 501.512 229.241 512.562 229.875C522.733 230.459 532.847 231.537 543.031 231.906C554.014 232.304 564.986 231.106 575.969 231.438C581.181 231.595 586.341 232.629 591.531 233.062C596.972 233.517 602.48 233.527 607.938 233.531C634.221 233.551 660.381 230.723 686.656 230.406C699.812 230.248 712.969 230.201 726.125 230.125C737.534 230.059 748.966 230.02 760.375 230.094C783.374 230.242 806.344 230.798 829.344 230.781C840.907 230.773 852.473 230.664 864.031 230.344C872.379 230.112 880.742 229.62 889.094 229.531C893.602 229.483 898.215 229.451 902.688 230.094C905.304 230.47 907.86 231.217 910.438 231.781C912.333 232.196 914.226 232.547 916.156 232.75C921.034 233.264 925.984 232.861 930.875 232.812C935.644 232.755 939.463 228.863 939.406 224.094C939.349 219.325 935.425 215.505 930.656 215.562C926.484 215.622 922.121 216.06 917.969 215.625C914.11 215.221 910.408 214.008 906.594 213.344C901.58 212.47 896.39 212.392 891.312 212.406C882.053 212.432 872.784 213.079 863.531 213.375C852.14 213.74 840.741 213.906 829.344 213.906C809.76 213.906 790.174 213.511 770.594 213.219C756.287 213.005 741.993 212.934 727.688 212.656C715.874 212.427 704.065 211.858 692.25 211.688C662.167 211.254 632.187 215.019 602.094 214C599.184 213.901 596.241 213.774 593.344 213.469C587.854 212.89 582.457 211.768 576.938 211.438C565.993 210.782 555.002 211.7 544.062 211C534.03 210.358 524.082 209.016 514.062 208.219C502.576 207.305 490.988 207.024 479.469 206.875C472.392 206.783 465.326 206.778 458.25 206.875Z" fill="#614e39" stroke="none"/>
</g>
<g opacity="1">
<path d="M74.6875 169.719C67.9435 169.452 61.2116 169.788 54.4688 169.906C52.5196 169.94 50.5744 169.942 48.625 169.906C46.7596 169.872 44.8971 169.796 43.0312 169.875C38.3327 170.074 33.722 171.086 29.0312 171.375C26.2208 171.548 23.3775 171.538 20.5625 171.5C14.8868 171.424 9.23337 171.043 3.59375 170.406C2.67116 170.3 1.82517 170.952 1.71875 171.875C1.61233 172.798 2.26491 173.644 3.1875 173.75C8.93555 174.427 14.7123 174.831 20.5 174.938C23.4017 174.991 26.3206 175.039 29.2188 174.875C33.8873 174.61 38.4819 173.614 43.1562 173.438C44.95 173.37 46.7697 173.459 48.5625 173.5C50.5552 173.545 52.5385 173.528 54.5312 173.5C61.2055 173.407 67.8884 173.097 74.5625 173.375C81.9045 173.681 89.2078 174.427 96.5625 174.438C103.406 174.448 110.203 173.574 117.031 173.25C120.605 173.08 124.175 173.174 127.75 173.25C138.807 173.484 149.853 173.948 160.906 174.312C166.001 174.481 171.121 174.708 176.219 174.719C181.071 174.729 185.896 174.252 190.75 174.312C199.041 174.415 207.331 174.824 215.625 174.625C218.119 174.565 220.608 174.463 223.094 174.25C227.104 173.906 231.093 173.32 235.125 173.312C245.458 173.293 255.758 174.409 266.094 174.438C283.783 174.487 301.471 173.476 319.156 173.25C341.649 172.963 364.073 175.438 386.562 174.031C387.328 173.983 387.924 173.328 387.875 172.562C387.826 171.797 387.172 171.233 386.406 171.281C363.968 172.722 341.569 170.288 319.125 170.531C308.069 170.651 296.991 170.898 285.938 171.125C279.329 171.261 272.736 171.416 266.125 171.375C255.784 171.311 245.493 170.153 235.156 170.062C231.031 170.026 226.95 170.566 222.844 170.875C218.793 171.18 214.686 171.179 210.625 171.156C203.117 171.115 195.6 170.601 188.094 170.688C183.699 170.738 179.336 171.15 174.938 171.062C159.233 170.75 143.518 170.026 127.812 169.719C123.056 169.626 118.315 169.647 113.562 169.906C107.895 170.216 102.244 170.806 96.5625 170.781C89.2548 170.749 81.984 170.008 74.6875 169.719Z" fill="#ffdeb9" stroke="none"/>
</g>
<g opacity="1">
<path d="M508.719 167.969C501.052 168.008 493.529 169.716 485.875 169.969C479.852 170.168 473.834 169.659 467.812 169.844C463.24 169.984 458.672 170.548 454.094 170.531C448.675 170.512 443.294 169.759 437.875 169.75C433.721 169.743 429.663 170.546 425.531 170.812C423.522 170.942 421.533 170.607 419.531 170.5C418.313 170.435 417.562 170.433 416.281 170.438C409.298 170.463 402.323 170.715 395.344 170.344C394.417 170.289 393.617 171.01 393.562 171.938C393.508 172.865 394.198 173.633 395.125 173.688C402.802 174.18 410.473 173.924 418.156 174.062C420.697 174.108 423.202 174.583 425.75 174.438C429.809 174.205 433.799 173.455 437.875 173.438C443.284 173.414 448.69 174.035 454.094 174.094C458.716 174.144 463.29 173.628 467.906 173.5C473.942 173.333 479.995 173.796 486.031 173.5C493.66 173.126 501.106 171.193 508.75 171.062C513.718 170.978 518.674 171.765 523.625 172.031C531.884 172.475 540.146 172.123 548.406 172.531C551.634 172.691 554.747 173.751 557.969 174C560.052 174.161 562.064 173.634 564.125 173.469C565.054 173.394 566.012 173.488 566.938 173.594C567.7 173.678 568.385 173.106 568.469 172.344C568.553 171.581 567.981 170.896 567.219 170.812C566.119 170.696 565.009 170.632 563.906 170.719C562 170.869 560.113 171.426 558.188 171.281C554.942 171.037 551.817 169.979 548.562 169.812C541 169.426 533.403 169.715 525.844 169.219C520.143 168.844 514.44 167.94 508.719 167.969Z" fill="#ffdeb9" stroke="none"/>
</g>
<g opacity="1">
<path d="M671.594 169.25C667.609 169.147 663.599 169.461 659.625 169.719C655.121 170.011 650.609 170.24 646.094 170.156C638.155 170.01 630.26 169.294 622.312 169.656C617.417 169.88 612.551 170.263 607.656 170.5C605.711 170.594 603.761 170.706 601.812 170.656C597.893 170.555 593.991 169.901 590.062 170C585.407 170.117 580.598 171.913 576 170.469C575.116 170.185 574.159 170.647 573.875 171.531C573.591 172.415 574.085 173.372 574.969 173.656C580.019 175.312 584.988 173.623 590.125 173.562C594.805 173.507 599.439 174.448 604.125 174.344C610.249 174.207 616.345 173.42 622.469 173.219C630.352 172.959 638.184 173.707 646.062 173.656C654.58 173.601 663.043 172.257 671.562 172.219C676.184 172.198 680.786 172.624 685.406 172.719C688.88 172.79 692.372 172.632 695.844 172.719C698.857 172.794 701.818 173.398 704.844 173.375C705.611 173.367 706.227 172.736 706.219 171.969C706.211 171.202 705.58 170.586 704.812 170.594C701.82 170.635 698.889 170.061 695.906 170C694.551 169.972 693.199 170.052 691.844 170.062C688.666 170.086 685.488 170.035 682.312 169.906C678.741 169.761 675.167 169.343 671.594 169.25Z" fill="#ffdeb9" stroke="none"/>
</g>
<g opacity="1">
<path d="M814.281 168.75C808.492 168.767 802.687 169.026 796.906 169.312C793.121 169.5 789.323 169.768 785.531 169.75C780.706 169.727 775.911 169.237 771.094 169.031C767.877 168.894 764.655 168.94 761.438 169.062C754.529 169.326 747.62 170.04 740.719 170.438C738.774 170.549 736.854 170.636 734.906 170.688C733.357 170.729 731.796 170.674 730.25 170.812C727.932 171.021 725.651 171.671 723.312 171.656C721.088 171.642 718.93 170.955 716.781 170.469C715.215 170.114 713.669 169.906 712.062 169.875C711.134 169.854 710.365 170.572 710.344 171.5C710.323 172.428 711.071 173.198 712 173.219C715.842 173.318 719.401 175.048 723.25 175.125C726.204 175.184 729.084 174.357 732.031 174.281C735.989 174.18 739.952 174.116 743.906 173.875C751.747 173.397 759.547 172.667 767.406 172.594C774.676 172.526 781.916 173.425 789.188 173.25C799.633 172.999 810.075 172.165 820.531 172.438C823.125 172.505 825.728 172.61 828.312 172.844C831.015 173.088 833.692 173.459 836.406 173.562C840.983 173.737 845.55 173.171 850.125 173.25C852.487 173.291 854.826 173.517 857.188 173.594C861.575 173.736 865.987 173.632 870.375 173.688C873.333 173.725 876.291 173.959 879.25 173.938C884.525 173.899 889.758 173.138 895.031 173.031C900.857 172.914 906.674 173.661 912.5 173.594C916.061 173.552 919.574 173.098 923.125 172.875C924.873 172.765 926.625 172.723 928.375 172.719C929.142 172.716 929.753 172.111 929.75 171.344C929.747 170.577 929.142 169.966 928.375 169.969C926.569 169.979 924.771 170.006 922.969 170.125C919.465 170.355 915.952 170.793 912.438 170.844C906.605 170.927 900.801 170.2 894.969 170.312C889.721 170.414 884.501 171.165 879.25 171.094C876.899 171.062 874.567 170.815 872.219 170.719C867.739 170.535 863.232 170.725 858.75 170.594C855.892 170.51 853.043 170.18 850.188 170.094C845.644 169.957 841.104 170.446 836.562 170.188C833.361 170.005 830.194 169.451 827 169.188C822.769 168.839 818.526 168.738 814.281 168.75Z" fill="#ffdeb9" stroke="none"/>
</g>
<g opacity="0.569335">
<path d="M168.781 134.406C149.619 134.828 130.602 137.192 111.469 138.125C96.5594 138.852 81.7222 136.419 66.875 135.531C64.3309 135.379 61.7993 135.267 59.25 135.281C55.2262 135.304 51.2092 135.618 47.1875 135.719C43.934 135.801 40.6894 135.656 37.4375 135.594C31.7814 135.486 26.1227 135.709 20.4688 135.656C15.0855 135.606 9.68794 135.358 4.4375 136.75C4.13344 136.83 3.95082 137.133 4.03125 137.438C4.11168 137.742 4.44594 137.924 4.75 137.844C9.89955 136.485 15.1917 136.787 20.4688 136.844C26.1187 136.904 31.7543 136.665 37.4062 136.781C40.6758 136.848 43.9474 137.015 47.2188 136.938C51.2327 136.842 55.2341 136.518 59.25 136.5C61.7727 136.488 64.2951 136.597 66.8125 136.75C81.7047 137.656 96.5437 140.08 111.5 139.344C130.624 138.403 149.656 136.023 168.812 135.625C176.622 135.463 184.425 136.317 192.219 136.656C197.88 136.903 203.531 136.267 209.188 136.5C213.353 136.672 217.45 137.625 221.625 137.688C230.527 137.82 239.339 136.19 248.25 136.406C263.856 136.785 279.451 137.783 295.062 137.969C308.4 138.127 321.723 137.277 335.062 137.594C352.548 138.009 369.984 139.514 387.469 139.969C399.694 140.287 411.928 140.097 424.156 140.188C432.886 140.252 441.621 140.472 450.344 140.812C450.603 140.823 450.802 140.635 450.812 140.375C450.823 140.115 450.635 139.885 450.375 139.875C441.642 139.538 432.927 139.31 424.188 139.25C411.965 139.166 399.72 139.351 387.5 139.031C370.014 138.574 352.578 137.058 335.094 136.594C321.752 136.239 308.434 137.087 295.094 136.906C279.486 136.695 263.882 135.635 248.281 135.219C243.44 135.09 238.635 135.423 233.812 135.812C229.773 136.139 225.682 136.534 221.625 136.469C217.461 136.402 213.404 135.454 209.25 135.281C203.594 135.046 197.91 135.651 192.25 135.406C184.43 135.069 176.617 134.234 168.781 134.406Z" fill="#796247" stroke="none"/>
</g>
<g opacity="0.569335">
<path d="M455.188 140.031C454.873 140.03 454.595 140.279 454.594 140.594C454.592 140.908 454.873 141.155 455.188 141.156C458.562 141.267 461.909 141.062 465.281 141.094C465.541 141.095 465.749 140.885 465.75 140.625C465.751 140.365 465.541 140.157 465.281 140.156C461.909 140.159 458.563 139.949 455.188 140.031Z" fill="#796247" stroke="none"/>
</g>
<g opacity="0.569335">
<path d="M670.438 134.062C664.884 134.453 659.373 134.28 653.812 134.156C647.639 134.019 641.453 134.035 635.281 134.219C629.753 134.384 624.243 134.708 618.719 134.969C611.38 135.315 604.031 135.636 596.688 135.844C582.003 136.259 567.315 136.35 552.625 136.312C547.727 136.3 542.804 136.221 537.906 136.219C532.634 136.216 527.42 136.968 522.156 137.094C519.5 137.157 516.87 136.753 514.219 136.719C512.34 136.694 510.472 136.798 508.594 136.844C503.693 136.962 498.769 137.157 493.875 137.438C485.141 137.938 476.477 139.086 467.719 139.156C467.404 139.158 467.154 139.404 467.156 139.719C467.158 140.033 467.404 140.283 467.719 140.281C476.496 140.239 485.215 139.138 493.969 138.656C498.85 138.388 503.737 138.176 508.625 138.062C510.488 138.019 512.355 137.944 514.219 137.969C516.887 138.004 519.514 138.421 522.188 138.344C526.569 138.217 530.93 137.566 535.312 137.438C541.068 137.269 546.867 137.542 552.625 137.562C562.428 137.597 572.231 137.524 582.031 137.312C593.671 137.062 605.309 136.632 616.938 136.062C623.452 135.743 629.946 135.251 636.469 135.094C642.242 134.955 648.007 134.928 653.781 135.062C659.37 135.193 664.917 135.387 670.5 135C670.759 134.982 670.956 134.759 670.938 134.5C670.919 134.241 670.697 134.044 670.438 134.062Z" fill="#796247" stroke="none"/>
</g>
<g opacity="0.569335">
<path d="M843.906 129.938C838.931 130.059 833.977 130.73 829 130.812C823.451 130.904 817.89 130.452 812.344 130.344C806.674 130.233 801.041 130.505 795.375 130.656C791.058 130.771 786.722 130.694 782.406 130.844C772.46 131.189 762.572 132.625 752.625 132.906C749.465 132.996 746.343 132.47 743.188 132.469C738.708 132.468 734.259 133.221 729.781 133.281C726.867 133.32 723.968 133.002 721.062 132.844C719.286 132.747 717.498 132.726 715.719 132.719C709.786 132.695 703.868 133.023 697.938 133.125C690.588 133.251 683.265 132.679 675.938 133.469C675.625 133.502 675.404 133.781 675.438 134.094C675.471 134.407 675.75 134.658 676.062 134.625C683.358 133.86 690.654 134.449 697.969 134.344C703.891 134.258 709.794 133.905 715.719 133.938C717.477 133.947 719.244 133.996 721 134.094C723.935 134.256 726.869 134.574 729.812 134.531C734.285 134.466 738.714 133.651 743.188 133.656C746.354 133.66 749.484 134.174 752.656 134.094C762.607 133.841 772.49 132.426 782.438 132.062C786.75 131.905 791.093 131.979 795.406 131.844C801.054 131.666 806.691 131.359 812.344 131.438C817.903 131.515 823.47 131.946 829.031 131.844C834.013 131.752 838.96 131.065 843.938 130.906C849.438 130.731 854.967 131.023 860.469 131.125C872.379 131.346 884.244 131.785 896.125 132.656C896.384 132.675 896.637 132.509 896.656 132.25C896.675 131.991 896.478 131.738 896.219 131.719C884.321 130.858 872.427 130.451 860.5 130.219C854.982 130.111 849.424 129.803 843.906 129.938Z" fill="#796247" stroke="none"/>
</g>
<g opacity="0.569335">
<path d="M904.062 273.781C901.857 273.661 899.664 273.613 897.438 273.812C897.124 273.838 896.881 274.124 896.906 274.438C896.931 274.751 897.218 274.963 897.531 274.938C902.454 274.593 907.334 275.301 912.25 275.469C918.182 275.671 924.161 275.397 930.094 275.312C930.354 275.308 930.536 275.072 930.531 274.812C930.527 274.553 930.322 274.37 930.062 274.375C923.6 274.51 917.147 274.456 910.688 274.188C908.465 274.095 906.268 273.901 904.062 273.781Z" fill="#796247" stroke="none"/>
</g>
<g opacity="0.569335">
<path d="M36.9375 99.4375C30.7557 99.4533 24.6163 100.378 18.4688 100.906C13.9937 101.291 9.48595 101.152 5 101.281C4.6856 101.29 4.42896 101.529 4.4375 101.844C4.44604 102.158 4.71685 102.415 5.03125 102.406C9.54027 102.291 14.0636 102.434 18.5625 102.062C24.6775 101.557 30.7903 100.659 36.9375 100.656C38.4613 100.655 40.0518 100.63 41.5625 100.875C43.5164 101.191 45.3777 101.895 47.375 101.969C49.55 102.049 51.6993 101.662 53.875 101.719C58.0609 101.827 62.2169 102.469 66.4062 102.531C68.6306 102.564 70.838 102.145 73.0625 102.219C79.4773 102.433 85.8687 103.109 92.2812 103.375C99.2353 103.663 106.206 103.256 113.156 103.625C117.814 103.872 122.425 104.466 127.094 104.531C132.263 104.603 137.433 104.298 142.594 104.062C147.047 103.859 151.511 103.749 155.969 103.719C172.667 103.606 189.352 104.51 206.031 105.188C206.291 105.198 206.521 104.978 206.531 104.719C206.542 104.459 206.322 104.26 206.062 104.25C189.366 103.59 172.682 102.753 155.969 102.719C146.353 102.699 136.739 103.637 127.125 103.438C121.521 103.321 115.976 102.482 110.375 102.312C104.365 102.131 98.354 102.403 92.3438 102.156C85.928 101.893 79.5126 101.228 73.0938 101.031C70.8609 100.963 68.669 101.376 66.4375 101.344C62.2524 101.283 58.0885 100.581 53.9062 100.469C51.734 100.41 49.5768 100.794 47.4062 100.719C45.4661 100.651 43.6508 99.9603 41.75 99.6562C40.172 99.4038 38.5289 99.4334 36.9375 99.4375Z" fill="#796247" stroke="none"/>
</g>
<g opacity="0.569335">
<path d="M280.125 99.5938C274.499 99.5142 268.952 100.533 263.344 100.75C259.58 100.896 255.828 100.774 252.062 100.844C250.309 100.876 248.523 100.901 246.781 101.125C243.564 101.538 240.474 102.564 237.25 102.938C231.084 103.652 224.857 103.795 218.656 103.719C218.342 103.714 218.098 103.967 218.094 104.281C218.089 104.596 218.342 104.84 218.656 104.844C224.907 104.936 231.158 104.831 237.375 104.125C240.605 103.758 243.715 102.719 246.938 102.312C248.636 102.098 250.353 102.091 252.062 102.062C255.837 102 259.634 102.141 263.406 102C268.993 101.791 274.522 100.771 280.125 100.844C289.055 100.96 297.883 102.473 306.781 103.062C312.161 103.419 317.581 103.469 322.969 103.625C328.808 103.794 334.63 103.985 340.469 104.188C349.003 104.484 357.561 104.824 366.094 105.156C370.41 105.324 374.712 105.553 379.031 105.625C386.944 105.757 394.836 104.911 402.75 105.156C408.381 105.33 413.967 106.314 419.594 106.594C425.472 106.886 431.34 107.052 437.219 107.344C448.972 107.928 460.732 108.707 472.469 109.562C472.728 109.581 472.95 109.384 472.969 109.125C472.988 108.866 472.79 108.644 472.531 108.625C460.787 107.779 449.041 107.024 437.281 106.438C431.404 106.144 425.501 105.935 419.625 105.625C413.991 105.328 408.421 104.339 402.781 104.156C394.864 103.9 386.979 104.727 379.062 104.562C375.201 104.482 371.327 104.236 367.469 104.062C361.63 103.799 355.809 103.546 349.969 103.312C340.984 102.954 331.988 102.627 323 102.375C319.406 102.274 315.812 102.25 312.219 102.125C306.42 101.924 300.643 101.362 294.875 100.75C289.978 100.23 285.054 99.6635 280.125 99.5938Z" fill="#796247" stroke="none"/>
</g>
<g opacity="0.569335">
<path d="M618.094 100.75C609.308 100.662 600.53 100.685 591.75 100.781C582.462 100.883 573.193 101.184 563.906 101.344C553.138 101.529 542.319 101.042 531.562 101.688C524.175 102.131 516.885 103.409 509.5 103.875C507.521 104 505.514 104.064 503.531 104C500.208 103.892 496.891 103.451 493.562 103.719C489.781 104.024 486.325 105.61 482.656 106.438C482.349 106.506 482.15 106.787 482.219 107.094C482.288 107.401 482.599 107.6 482.906 107.531C486.518 106.726 489.938 105.162 493.656 104.875C496.94 104.622 500.222 105.072 503.5 105.188C506.162 105.281 508.815 105.146 511.469 104.938C519.222 104.328 526.908 103.131 534.688 102.812C544.932 102.393 555.189 102.702 565.438 102.5C591.752 101.98 618.093 101.43 644.406 102.375C655.184 102.762 665.838 104.856 676.625 105.125C684.543 105.322 692.457 104.777 700.375 104.812C704.338 104.83 708.266 105.048 712.219 105.312C712.478 105.33 712.701 105.134 712.719 104.875C712.736 104.616 712.541 104.392 712.281 104.375C708.309 104.113 704.358 103.889 700.375 103.875C692.463 103.847 684.537 104.387 676.625 104.188C665.836 103.916 655.216 101.741 644.438 101.344C635.662 101.021 626.88 100.838 618.094 100.75Z" fill="#796247" stroke="none"/>
</g>
<g opacity="0.569335">
<path d="M780 95.4688C774.538 95.5765 769.069 95.9404 763.688 96.6875C756.39 97.7006 749.276 99.5541 742.031 100.844C734.681 102.152 727.116 102.001 719.938 104.219C719.637 104.311 719.47 104.637 719.562 104.938C719.655 105.238 719.981 105.405 720.281 105.312C727.418 103.13 734.945 103.311 742.25 102.031C749.482 100.764 756.593 98.9118 763.875 97.9062C774.521 96.4362 785.56 96.4913 796.281 96.9375C801.608 97.1592 807.001 97.4908 812.281 98.25C815.701 98.7417 819.023 99.5725 822.5 99.625C827.086 99.6943 831.719 99.2577 836.281 98.8438C843.884 98.1538 851.452 97.3212 859.094 97.25C865.502 97.1903 871.943 97.5089 878.344 97.7812C885.928 98.104 893.501 98.4071 901.094 98.4062C908.761 98.4054 916.417 97.6744 924.062 97.1875C927.881 96.9443 931.708 96.8102 935.531 96.6875C935.791 96.679 935.977 96.4472 935.969 96.1875C935.96 95.9278 935.76 95.7415 935.5 95.75C931.667 95.8768 927.828 96.0336 924 96.2812C916.375 96.7745 908.742 97.4731 901.094 97.4688C887.082 97.4608 873.105 96.1047 859.094 96.1875C851.423 96.2328 843.792 97.0003 836.156 97.6562C831.633 98.0448 827.076 98.4469 822.531 98.375C819.109 98.3209 815.836 97.4816 812.469 97C807.146 96.2387 801.713 95.9284 796.344 95.7188C790.926 95.5072 785.462 95.361 780 95.4688Z" fill="#796247" stroke="none"/>
</g>
<g opacity="0.569335">
<path d="M259.844 62.1875C248.329 62.377 236.831 63.5878 225.312 63.625C210.105 63.6742 194.921 63.1718 179.719 62.8438C173.459 62.7087 167.168 62.5126 160.906 62.5625C153.589 62.6208 146.348 63.8976 139.031 63.875C127.527 63.8394 116.006 62.6547 104.5 62.9688C94.1846 63.2503 84.1664 65.8518 73.9062 66.6875C67.7454 67.1893 61.5739 67.7456 55.4062 68.1562C48.1419 68.6399 40.8304 68.9324 33.5625 68.3438C26.1616 67.7443 18.9281 65.7699 11.5 65.4375C8.39806 65.2987 5.33034 65.5143 2.28125 66.0938C1.97222 66.1522 1.78526 66.4722 1.84375 66.7812C1.90224 67.0903 2.19097 67.2772 2.5 67.2188C12.9944 65.241 23.072 68.671 33.4688 69.5312C40.7954 70.1374 48.1753 69.8534 55.5 69.375C61.6743 68.9717 67.8327 68.4356 74 67.9375C84.2395 67.1105 94.2725 64.5066 104.562 64.1875C116.055 63.8311 127.541 65.0417 139.031 65.0938C146.353 65.1269 153.585 63.8681 160.906 63.8125C167.603 63.7616 174.336 63.9584 181.031 64.0938C195.797 64.3923 210.542 64.8222 225.312 64.7188C236.835 64.638 248.324 63.4131 259.844 63.2188C273.231 62.9929 286.643 63.1552 300.031 63.25C309.55 63.3174 319.044 63.2886 328.562 63.3438C333.764 63.3739 338.987 63.5691 344.188 63.6562C347.911 63.7186 351.623 63.7432 355.344 63.5625C359.078 63.3812 362.79 63.1185 366.531 63.25C366.791 63.2591 366.991 63.0722 367 62.8125C367.009 62.5528 366.822 62.3216 366.562 62.3125C362.795 62.1823 359.073 62.4402 355.312 62.625C351.612 62.8069 347.891 62.8099 344.188 62.75C338.984 62.6659 333.798 62.437 328.594 62.4062C318.152 62.3446 307.692 62.3666 297.25 62.2812C284.777 62.1793 272.316 61.9823 259.844 62.1875Z" fill="#796247" stroke="none"/>
</g>
<g opacity="0.569335">
<path d="M548.406 60.375C536.461 60.2801 524.561 61.4425 512.625 61.6875C507.191 61.799 501.876 60.7576 496.469 60.4688C488.965 60.0679 481.434 60.6929 473.938 61C469.701 61.1736 465.5 61.4784 461.281 61.9062C452.898 62.7563 444.53 64.0451 436.094 64.25C425.223 64.514 414.459 62.9697 403.625 62.4062C401.845 62.3137 400.033 62.2384 398.25 62.25C394.289 62.2758 390.338 62.6226 386.375 62.5938C386.06 62.5911 385.815 62.8417 385.812 63.1562C385.81 63.4708 386.06 63.7161 386.375 63.7188C390.343 63.7562 394.315 63.4233 398.281 63.4062C400.041 63.3987 401.805 63.4672 403.562 63.5625C414.428 64.1515 425.221 65.7518 436.125 65.5C444.594 65.3045 452.993 63.9936 461.406 63.125C465.599 62.6921 469.789 62.3675 474 62.1875C481.455 61.8689 488.944 61.2756 496.406 61.6875C501.845 61.9877 507.158 63.0471 512.625 62.9375C524.551 62.6984 536.472 61.4821 548.406 61.5312C558.303 61.572 568.175 62.3864 578.062 62.7188C587.721 63.0434 597.374 62.6217 607.031 63C611.229 63.1645 615.436 63.5013 619.625 63.8125C624.612 64.183 629.603 64.5269 634.594 64.8438C649.128 65.7667 663.668 66.4615 678.219 67.0625C678.478 67.0731 678.708 66.8533 678.719 66.5938C678.729 66.3341 678.51 66.1356 678.25 66.125C663.706 65.535 649.184 64.8624 634.656 63.9375C629.67 63.62 624.67 63.2561 619.688 62.875C615.488 62.5538 611.301 62.1901 607.094 62C597.437 61.5638 587.753 62.0355 578.094 61.6875C568.196 61.3309 558.314 60.4537 548.406 60.375Z" fill="#796247" stroke="none"/>
</g>
<g opacity="0.569335">
<path d="M699.094 61.4062C698.779 61.3988 698.508 61.6231 698.5 61.9375C698.493 62.2519 698.748 62.5238 699.062 62.5312C707.786 62.7734 716.489 63.2983 725.188 64C730.577 64.4348 735.999 65.0998 741.406 65.25C747.739 65.4258 754.045 64.7643 760.375 64.75C766.211 64.7368 772.043 65.1695 777.875 65.3438C778.135 65.3512 778.368 65.1347 778.375 64.875C778.382 64.6153 778.166 64.4137 777.906 64.4062C771.479 64.2318 765.056 63.7694 758.625 63.7812C752.891 63.7918 747.175 64.295 741.438 64.0625C736.05 63.8442 730.658 63.1936 725.281 62.7812C716.547 62.1114 707.854 61.578 699.094 61.4062Z" fill="#796247" stroke="none"/>
</g>
<g opacity="0.569335">
<path d="M935 62C931.004 62.1416 926.992 62.2149 923 62.4375C909.082 63.2137 895.236 65.0087 881.312 65.7188C872.616 66.1622 863.948 65.9224 855.25 65.7812C848.975 65.6794 842.683 65.6148 836.438 64.9375C827.644 63.9839 818.914 62.2289 810.031 62.4688C808.036 62.5226 806.033 62.6766 804.062 63C800.987 63.5047 797.953 64.3524 794.906 65C794.598 65.0647 794.404 65.3485 794.469 65.6562C794.533 65.964 794.849 66.1584 795.156 66.0938C798.188 65.4638 801.19 64.644 804.25 64.1562C806.169 63.8503 808.121 63.7005 810.062 63.6562C819.778 63.4346 829.355 65.5326 839 66.375C846.745 67.0515 854.546 66.9841 862.312 67.1562C867.674 67.2751 873.049 67.2355 878.406 66.9688C889.359 66.4234 900.233 65.1688 911.156 64.25C915.117 63.9168 919.094 63.559 923.062 63.3438C927.048 63.1276 931.041 63.0727 935.031 62.9375C935.291 62.9285 935.509 62.7284 935.5 62.4688C935.491 62.2091 935.26 61.991 935 62Z" fill="#796247" stroke="none"/>
</g>
<g opacity="0.228249">
<path d="M406.719 23.0312C403.675 22.9939 400.634 23.1599 397.594 23.2812C394.053 23.4225 390.51 23.517 386.969 23.625C376.298 23.9503 365.631 24.1621 354.969 24.7188C348.168 25.0738 341.372 25.5911 334.594 26.25C328.111 26.8802 321.633 27.6077 315.125 27.9375C308.641 28.2661 302.146 28.1601 295.656 28.2188C285.975 28.3062 276.305 28.465 266.625 28.625C243.953 28.9998 221.252 28.2714 198.594 27.5625C179.055 26.9512 159.514 26.4005 139.969 26.0312C126.297 25.773 112.648 24.7458 98.9688 25.1875C95.7423 25.2917 92.5212 25.4902 89.3125 25.8438C85.5756 26.2555 81.8495 26.811 78.0938 27.0312C64.445 27.8317 50.8206 28.306 37.3438 30.8125C24.6336 33.1764 12.1977 36.8187-0.6875 38.2188C-2.1805 38.3759-3.2509 39.7258-3.09375 41.2188C-2.9366 42.7117-1.58675 43.7821-0.09375 43.625C5.15486 43.0899 10.3266 42.2489 15.5 41.2188C23.1349 39.6984 30.7105 37.7783 38.375 36.4062C51.6305 34.0334 65.0263 33.6467 78.4375 32.9062C83.2255 32.6419 87.9443 31.8745 92.7188 31.4688C94.8536 31.2873 97.0152 31.2243 99.1562 31.1562C106.521 30.922 113.887 31.0888 121.25 31.2812C127.453 31.4434 133.671 31.5898 139.875 31.7188C180.788 32.5689 221.692 35.0842 262.625 34.125C272.102 33.9029 281.584 33.5153 291.062 33.3438C299.169 33.1971 307.278 33.292 315.375 32.8438C327.289 32.1842 339.142 30.4927 351.031 29.5312C361.965 28.647 372.945 28.4364 383.906 28.125C390.719 27.9314 397.53 27.5152 404.344 27.4062C413.064 27.2668 421.733 28.5801 430.438 28.875C435.535 29.0477 440.621 28.7764 445.719 28.75C448.23 28.737 450.743 28.8198 453.25 28.9375C454.489 28.9942 455.537 28.0514 455.594 26.8125C455.65 25.5736 454.676 24.5255 453.438 24.4688C450.852 24.3533 448.276 24.262 445.688 24.2812C440.648 24.3188 435.634 24.5971 430.594 24.4375C422.627 24.1852 414.692 23.129 406.719 23.0312Z" fill="#936347" stroke="none"/>
</g>
<g opacity="0.228249">
<path d="M826.281 31.8125C810.936 31.8498 795.565 31.9686 780.219 32C752.424 32.0569 724.629 31.7471 696.875 33.5312C667.782 35.4015 638.708 37.6261 609.531 37C584.757 36.4684 560.041 34.2548 535.25 34.3125C511.907 34.3668 488.678 36.6574 465.375 37.6875C453.732 38.2022 442.057 38.3923 430.406 38.5312C419.627 37.9118 408.86 37.4055 398.062 37.625C384.333 37.9041 370.709 39.7044 357.031 40.75C353.438 41.0247 349.819 41.3035 346.219 41.4375C342.571 41.5733 338.9 41.5201 335.25 41.5625C334.01 41.5773 333.016 42.6037 333.031 43.8438C333.04 44.6203 333.521 45.1664 334.125 45.5625C328.881 46.3766 323.654 47.1696 318.375 47.7188C313.401 48.2362 308.392 48.61 303.406 49C289.745 50.0688 276.089 50.8082 262.406 51.5312C253.548 51.9993 244.73 53.1077 235.875 53.5938C230.68 53.8789 225.482 53.8839 220.281 53.9688C212.879 54.0895 205.465 54.198 198.062 54.3125C173.409 54.6938 148.777 55.089 124.125 55.5625C108.665 55.8594 93.1726 56.1122 77.7188 56.6562C66.9131 57.0366 56.117 57.4936 45.3125 57.9062C41.707 58.044 38.11 58.2537 34.5 58.1875C32.3187 58.1475 30.2777 57.84 28.25 57.3125C28.5219 57.1016 28.7465 56.8317 29.0625 56.6562C31.0777 55.5371 33.3814 54.8809 35.5938 54.2812C42.7244 52.3484 50.0401 51.5668 57.4062 51.2812C63.5684 51.0424 69.7499 51.0734 75.9062 50.6875C82.0424 50.3029 88.1614 49.6444 94.2812 49.0625C104.435 48.097 114.597 47.1441 124.781 46.5625C139.886 45.6999 154.984 44.8385 170.094 44.0625C181.065 43.4991 192.045 42.9409 203.031 42.7812C218.874 42.5511 234.721 43.1183 250.562 42.625C274.975 41.8649 299.308 39.6249 323.75 40.6562C325.25 40.7208 326.529 39.5311 326.594 38.0312C326.658 36.5314 325.5 35.2833 324 35.2188C297.219 34.0432 270.51 36.7443 243.75 37.25C230.151 37.507 216.569 36.9817 202.969 37.1562C186.539 37.3671 170.091 38.3366 153.688 39.2188C141.358 39.8818 129.036 40.4143 116.719 41.2812C108.417 41.8656 100.129 42.6577 91.8438 43.4375C84.4144 44.1368 76.9933 44.8997 69.5312 45.125C62.3038 45.3432 55.0441 45.3124 47.8438 46.0625C43.1988 46.5464 38.5423 47.3752 34.0312 48.5938C32.9906 48.8748 31.7714 49.248 30.75 49.5938C29.5128 50.0125 28.8718 50.2612 27.6875 50.7812C26.9516 51.1044 26.2136 51.4815 25.5312 51.9062C22.9768 53.4963 19.1673 57.1499 21.25 60.375C22.1309 61.739 23.8749 62.3678 25.3438 62.8438C28.887 63.9919 32.7434 64.1283 36.4375 64.125C41.273 64.1207 46.1054 63.7983 50.9375 63.625C60.5373 63.2808 70.1497 62.8627 79.75 62.5312C93.5869 62.0536 107.439 61.8601 121.281 61.5938C143.462 61.1669 165.631 60.7917 187.812 60.4062C198.175 60.2262 208.544 60.0109 218.906 59.8125C224.675 59.7021 230.458 59.7137 236.219 59.375C243.307 58.9583 250.357 58.0515 257.438 57.5312C264.007 57.0485 270.579 56.8346 277.156 56.4688C286.059 55.9735 294.954 55.3468 303.844 54.6562C308.878 54.2652 313.946 53.8947 318.969 53.375C327.501 52.4922 335.922 50.9837 344.406 49.75C356.12 48.0467 367.915 46.8595 379.719 46C390.149 45.2405 400.607 44.8261 411.062 44.625C424.435 44.3678 437.816 44.4222 451.188 44.0938C451.594 44.0838 452 44.0422 452.406 44.0312C455.573 44.1685 458.738 44.4347 461.906 44.5C467.177 44.6087 472.447 44.568 477.719 44.5938C486.404 44.6362 495.097 44.6774 503.781 44.7812C526.739 45.0559 549.718 45.6629 572.625 47.2812C601.275 49.3053 629.956 51.268 658.688 51.5625C688.835 51.8715 718.991 50.8416 749.125 50.0625C762.005 49.7295 774.867 49.4124 787.75 49.2188C796.613 49.0856 805.481 49.0132 814.344 48.8438C826.911 48.6035 839.493 48.2749 852.062 48.1562C862.772 48.0551 873.483 48.2587 884.188 47.8438C887.551 47.7134 890.896 47.5299 894.25 47.25C898.55 46.8911 902.851 46.368 907.156 46.0625C910.739 45.8083 914.307 45.5752 917.875 45.1562C921.657 44.7121 925.384 44.0081 928.875 42.4375C931.211 41.3866 934.289 39.327 932.562 36.3125C932.354 35.9486 932.007 35.5833 931.688 35.3125C929.263 33.2586 925.525 33.986 922.625 34.0312C920.345 34.0668 918.055 33.7123 915.781 33.5625C901.312 32.6094 886.81 32.2402 872.312 32.0312C856.967 31.81 841.627 31.7752 826.281 31.8125ZM854.625 36.9688C871.636 37.0332 888.662 37.2336 905.656 38.0312C909.284 38.2015 912.908 38.3721 916.531 38.625C918.586 38.7684 920.657 39.0319 922.719 39C922.897 38.9972 923.072 39.0058 923.25 39C921.989 39.3383 920.745 39.744 919.438 39.9375C913.816 40.7695 908.125 40.9826 902.469 41.4688C900.244 41.6599 898.035 41.9436 895.812 42.1562C891.883 42.5323 887.944 42.78 884 42.9375C874.676 43.3099 865.329 43.1631 856 43.2188C849.112 43.2599 842.231 43.3979 835.344 43.5312C808.399 44.0528 781.439 44.524 754.5 45.3125C722.592 46.2465 690.645 47.4627 658.719 47.1562C638.707 46.9642 618.718 45.9743 598.75 44.6875C589.388 44.0842 580.017 43.3579 570.656 42.75C552.744 41.5868 534.819 41.0354 516.875 40.6875C517.824 40.6492 518.769 40.5651 519.719 40.5312C533.978 40.0234 548.247 40.2519 562.5 40.8438C578.136 41.4931 593.758 42.5597 609.406 42.875C625.152 43.1922 640.904 42.7035 656.625 41.8438C672.238 40.9899 687.83 39.757 703.438 38.8125C727.348 37.3655 751.308 37.5422 775.25 37.4062C801.709 37.256 828.165 36.8684 854.625 36.9688Z" fill="#936347" stroke="none"/>
</g>
<g opacity="0.228249">
<path d="M952.312 67.4062C947.945 67.9097 943.552 68.2854 939.156 68.4375C929.902 68.7578 920.662 68.3472 911.406 68.3438C897.55 68.3386 883.696 68.6152 869.844 68.9062C862.748 69.0553 855.654 69.0647 848.562 69.375C840.339 69.7349 832.118 70.5445 823.906 71.0938C818.804 71.435 813.7 71.5724 808.594 71.8125C801.352 72.1531 794.125 72.7078 786.875 72.875C777.089 73.1007 767.375 71.4454 757.594 71.7812C746.188 72.1729 734.826 73.3121 723.438 74C718.141 74.3199 712.777 74.6674 707.469 74.5625C702.17 74.4578 696.924 73.5523 691.812 72.1875C688.707 71.3582 685.672 70.1896 682.531 69.5C679.152 68.7579 675.704 68.4685 672.25 68.375C668.909 68.2846 665.557 68.3808 662.219 68.5C657.09 68.6832 652.002 69.0321 646.906 69.6562C640.018 70.4999 633.178 71.6877 626.25 72.1875C621.784 72.5097 617.288 72.5929 612.812 72.6875C602.212 72.9117 591.6 72.7366 581 72.9375C575.105 73.0492 569.292 74.0073 563.406 74.2188C560.447 74.3251 557.458 74.1466 554.5 74.0625C549.7 73.9261 544.924 73.7539 540.125 73.5938C532.726 73.3469 525.307 73.0971 517.906 72.9375C514.218 72.8579 510.531 72.884 506.844 72.7812C502.532 72.6611 498.292 71.6501 493.969 71.7812C491.736 71.849 489.474 72.1065 487.25 72.3125C483.67 72.6441 480.109 73.0246 476.531 73.375C472.965 73.7243 469.381 74.0848 465.812 74.4062C462.411 74.7127 459.015 74.9513 455.625 75.375C438.293 77.5409 419.237 83.781 402.375 76.3438C401.003 75.7344 399.422 76.3467 398.812 77.7188C398.203 79.0908 398.816 80.7032 400.188 81.3125C406.976 84.3464 413.955 85.3804 421 85.375C432.741 85.3659 444.668 82.456 456.312 81.0625C459.64 80.6644 463.006 80.4409 466.344 80.1562C469.93 79.8504 473.511 79.5242 477.094 79.1875C481.106 78.8106 485.11 78.4068 489.125 78.0625C490.79 77.9197 492.454 77.703 494.125 77.6562C498.32 77.5388 502.466 78.5927 506.656 78.7188C510.357 78.83 514.08 78.8221 517.781 78.9062C525.163 79.074 532.557 79.3089 539.938 79.5312C544.753 79.6763 549.558 79.7852 554.375 79.875C557.46 79.9325 560.541 80.0553 563.625 79.9062C569.461 79.6241 575.247 78.7252 581.094 78.625C585.792 78.5445 590.489 78.6257 595.188 78.625C601.681 78.624 608.195 78.5751 614.688 78.4688C618.677 78.4034 622.675 78.3415 626.656 78.0625C633.686 77.5698 640.638 76.365 647.625 75.5C652.552 74.8901 657.478 74.5898 662.438 74.4062C665.655 74.2871 668.873 74.1454 672.094 74.2188C675.181 74.2891 678.288 74.5108 681.312 75.1562C682.97 75.51 684.567 76.0733 686.188 76.5625C688.254 77.1864 690.335 77.7582 692.438 78.25C696.985 79.314 701.641 79.9894 706.312 80.125C712.13 80.2938 717.982 79.7945 723.781 79.375C735.112 78.5554 746.426 77.305 757.781 76.8438C763.676 76.6043 769.56 77.2031 775.438 77.5625C779.294 77.7983 783.137 77.8791 787 77.7812C793.489 77.6168 799.959 77.188 806.438 76.8125C812.377 76.4683 818.319 76.197 824.25 75.7188C832.412 75.0608 840.569 74.2 848.75 73.8125C856.198 73.4597 863.671 73.4409 871.125 73.2812C884.55 72.9936 897.977 72.7204 911.406 72.75C919.593 72.768 927.75 73.1019 935.938 72.9688C941.58 72.877 947.207 72.5105 952.812 71.875C954.045 71.7342 954.922 70.6071 954.781 69.375C954.64 68.1429 953.545 67.2654 952.312 67.4062Z" fill="#936347" stroke="none"/>
</g>
<g opacity="0.228249">
<path d="M125.281 66.7812C122.008 66.7154 118.743 66.7273 115.469 66.8438C106.69 67.1559 97.935 68.1815 89.1562 68.5C80.8727 68.8005 72.5792 68.5001 64.3125 69.2188C57.3327 69.8255 50.5362 71.6927 43.5625 72.3438C34.5061 73.1893 25.3667 72.4746 16.3125 71.9688C15.0742 71.9012 14.0363 72.8242 13.9688 74.0625C13.9012 75.3008 14.8242 76.37 16.0625 76.4375C25.3406 76.9308 34.6926 77.6418 43.9688 76.75C50.9289 76.0808 57.7194 74.1935 64.6875 73.5938C72.8783 72.8888 81.1048 73.1926 89.3125 72.9375C98.0818 72.6649 106.82 71.8837 115.594 71.6875C129.64 71.3734 143.661 72.7812 157.688 73.2812C185.253 74.264 212.804 75.3227 240.375 76.1562C242.939 76.2338 245.498 76.303 248.062 76.375C249.055 76.4029 250.269 76.4357 251.281 76.5312C253.202 76.7125 255.092 77.1345 257 77.4062C259.527 77.7662 262.112 77.9034 264.656 78.0938C274.608 78.8381 284.577 79.2071 294.5 80.3125C301.01 81.0377 307.457 82.1428 314 82.5625C320.606 82.9862 327.251 83.2233 333.875 83.2812C340.499 83.3392 347.105 83.222 353.719 83C360.326 82.7783 366.932 82.3677 373.531 82C382.072 81.5241 390.674 81.9374 399.125 80.4062C400.603 80.1441 401.606 78.7282 401.344 77.25C401.082 75.7718 399.666 74.8004 398.188 75.0625C392.407 76.0639 386.536 76.0621 380.688 76.1562C376.952 76.2164 373.231 76.3914 369.5 76.5938C351.161 77.5885 332.742 77.8066 314.406 76.625C307.44 76.1761 300.545 74.9662 293.594 74.3438C284.111 73.4945 274.583 73.1509 265.094 72.375C262.68 72.1776 260.24 72.0471 257.844 71.6875C255.846 71.3877 253.856 70.9224 251.844 70.7188C248.749 70.4055 245.608 70.4466 242.5 70.3438C237.372 70.174 232.222 70.0014 227.094 69.8438C214.264 69.4494 201.457 69.0701 188.625 68.7812C177.332 68.527 166.041 68.427 154.75 68.0938C144.939 67.8041 135.101 66.9789 125.281 66.7812Z" fill="#936347" stroke="none"/>
</g>
<g opacity="0.228249">
<path d="M300.281 81.0938C290.818 81.0877 281.371 81.9428 271.906 81.9062C259.798 81.8594 247.705 81.4418 235.594 81.6875C229.626 81.8086 223.689 81.922 217.719 81.8438C209.958 81.742 202.191 81.5023 194.438 82C190.815 82.2325 187.231 82.6889 183.656 83.3125C179.523 84.0335 175.396 84.9367 171.219 85.375C165.679 85.9562 160.092 86.1497 154.531 86.4375C146.644 86.8457 138.762 87.2478 130.875 87.6562C122.293 88.1007 113.696 88.2657 105.125 88.9062C103.316 89.0414 101.479 89.1736 99.6875 89.4688C98.5396 89.6578 97.4329 90.0847 96.2812 90.2188C95.6481 90.2925 95.0075 90.237 94.375 90.1875C90.2084 89.8612 86.0789 88.9996 81.9688 88.2812C77.3204 87.4688 72.6545 86.775 67.9375 86.5312C56.1809 85.9238 44.5165 87.421 32.8125 88.2188C25.7399 88.7008 18.416 88.2238 11.625 90.625C9.6375 91.3278 7.81347 92.3039 6.0625 93.4688C4.81216 94.2997 4.4816 95.9997 5.3125 97.25C6.1434 98.5003 7.84342 98.8309 9.09375 98C16.488 93.0921 25.9463 94.2833 34.375 93.6562C45.4463 92.8326 56.537 91.5452 67.6562 92.1562C72.1435 92.4029 76.5488 93.0875 80.9688 93.875C85.2554 94.6388 89.5594 95.5526 93.9062 95.9062C95.0456 95.9989 96.2096 96.0509 97.3438 95.875C98.4543 95.7027 99.5141 95.3042 100.625 95.125C102.664 94.7961 104.755 94.7297 106.812 94.5938C115.35 94.0295 123.892 93.8288 132.438 93.4062C140.401 93.0125 148.38 92.645 156.344 92.25C161.507 91.9939 166.7 91.7811 171.844 91.25C177.339 90.6826 182.724 89.3665 188.188 88.5938C190.388 88.2825 192.595 88.0782 194.812 87.9375C203.51 87.3858 212.231 87.7596 220.938 87.8438C226.942 87.9018 232.935 87.6508 238.938 87.5625C246.455 87.4519 253.983 87.5096 261.5 87.5938C265.756 87.6414 270.025 87.7625 274.281 87.6875C283.913 87.5178 293.517 86.6166 303.156 86.8125C313.443 87.0216 323.661 88.2501 333.938 88.625C340.008 88.8465 346.089 88.5792 352.156 88.9375C359.684 89.3821 367.172 90.3191 374.656 91.2188C386.252 92.6127 397.858 94.0836 409.531 94.6562C413.548 94.8533 417.551 94.3973 421.562 94.2812C424.153 94.2063 426.753 94.294 429.344 94.3438C449.733 94.7352 470.071 96.4806 490.469 96.6562C506.46 96.794 522.445 95.714 538.438 96.2188C546.386 96.4696 554.304 97.2284 562.25 97.5625C573.391 98.0309 584.544 98.1109 595.688 98.5C607.336 98.9067 618.98 99.6539 630.625 100.156C641.912 100.643 653.208 100.796 664.5 101.094C672.921 101.316 681.327 101.659 689.75 101.812C710.919 102.199 732.055 100.657 753.219 100.469C778.844 100.241 804.48 101.433 830.094 102.031C833.27 102.105 836.448 102.195 839.625 102.094C843.888 101.958 848.139 101.604 852.406 101.594C863.006 101.567 873.578 102.458 884.156 103C891.033 103.353 897.894 103.586 904.781 103.531C916.844 103.435 928.861 103.038 940.781 105.25C942.001 105.475 943.181 104.688 943.406 103.469C943.632 102.249 942.845 101.069 941.625 100.844C935.484 99.7124 929.272 99.155 923.031 99C914.488 98.7878 905.949 99.2157 897.406 99.0625C884.901 98.8382 872.437 97.6896 859.938 97.3125C856.447 97.2072 852.96 97.1441 849.469 97.25C845.669 97.3653 841.864 97.681 838.062 97.75C834.865 97.8081 831.664 97.6691 828.469 97.5938C822.776 97.4596 817.098 97.2889 811.406 97.125C794.291 96.6323 777.155 96.0623 760.031 96C742.191 95.9351 724.398 96.792 706.562 97.0312C699.597 97.1247 692.619 97.0277 685.656 96.8438C678.645 96.6585 671.636 96.3775 664.625 96.1875C656.19 95.9589 647.744 95.8592 639.312 95.5312C624.828 94.968 610.358 93.9907 595.875 93.4062C586.331 93.0211 576.793 92.8353 567.25 92.4375C562.506 92.2398 557.767 91.9907 553.031 91.6562C546.617 91.2034 540.213 90.6997 533.781 90.5625C519.361 90.2549 504.951 91.0795 490.531 90.9062C470.625 90.6671 450.772 89.0001 430.875 88.4688C427.722 88.3846 424.56 88.3175 421.406 88.4062C417.55 88.5148 413.705 88.9395 409.844 88.75C397.906 88.1639 386.019 86.6418 374.156 85.25C366.95 84.4045 359.747 83.5329 352.5 83.125C345.852 82.7508 339.179 83.1458 332.531 82.8125C321.782 82.2736 311.053 81.1006 300.281 81.0938Z" fill="#936347" stroke="none"/>
</g>
<g opacity="0.228249">
<path d="M924.125 130.906C909.497 133.466 894.707 131.628 879.969 131.812C869.724 131.941 859.636 133.881 849.406 134.156C845.773 134.254 842.133 134.173 838.5 134.125C833.266 134.056 828.045 133.947 822.812 133.812C810.871 133.506 798.913 133.296 786.969 133.625C781.426 133.778 775.887 134.11 770.344 134.25C759.523 134.524 748.694 134.234 737.875 134.625C731.064 134.871 724.268 135.416 717.469 135.875C709.682 136.4 701.884 136.885 694.094 137.344C671.423 138.678 648.762 139.838 626.094 141.219C621.759 141.483 617.405 141.7 613.062 141.781C601.637 141.996 590.23 141.779 578.812 142.344C570.893 142.736 563.005 143.575 555.188 144.906C540.609 147.388 526.114 151.232 512.344 156.656C504.48 159.754 497.149 164.193 488.938 166.375C487.485 166.756 486.619 168.235 487 169.688C487.381 171.14 488.86 172.006 490.312 171.625C498.758 169.441 506.283 164.997 514.375 161.875C527.812 156.691 541.958 153.067 556.156 150.719C562.954 149.594 569.808 148.806 576.688 148.406C587.219 147.794 597.77 147.928 608.312 147.688C618.078 147.464 627.81 146.776 637.562 146.25C657.267 145.187 676.995 144.333 696.688 143.062C703.755 142.607 710.814 142.144 717.875 141.594C724.616 141.069 731.372 140.439 738.125 140.094C748.91 139.542 759.709 139.64 770.5 139.281C776.043 139.097 781.581 138.742 787.125 138.562C800.883 138.117 814.675 138.315 828.438 138.469C835.461 138.547 842.509 138.802 849.531 138.594C859.408 138.301 869.177 136.413 879.062 136.219C888.902 136.025 898.723 136.907 908.562 136.781C914.056 136.711 919.489 136.277 924.906 135.344C926.128 135.132 926.931 133.972 926.719 132.75C926.507 131.528 925.347 130.694 924.125 130.906Z" fill="#936347" stroke="none"/>
</g>
<g opacity="0.228249">
<path d="M756.031 141.969C743.789 142.104 731.544 142.408 719.312 142.938C708.622 143.401 697.936 144.086 687.25 144.625C665.411 145.727 643.591 147.185 621.812 149.156C612.642 149.986 603.391 150.359 594.344 152.188C590.275 153.01 586.35 154.158 582.469 155.625C581.062 156.15 580.349 157.719 580.875 159.125C581.4 160.531 582.937 161.244 584.344 160.719C596.603 156.195 609.448 155.973 622.312 154.906C630.571 154.222 638.826 153.529 647.094 152.969C659.14 152.153 671.203 151.495 683.25 150.688C727.496 147.722 771.918 147.134 816.25 147.938C828.191 148.154 840.124 148.352 852.062 148.688C857.775 148.848 863.513 148.982 869.219 149.312C887.982 150.399 906.551 153.236 925.219 155.281C933.173 156.153 941.111 156.744 949.094 157.281C950.331 157.363 951.418 156.425 951.5 155.188C951.581 153.95 950.644 152.863 949.406 152.781C941.484 152.271 933.583 151.718 925.688 150.875C913.795 149.606 901.95 147.94 890.062 146.625C881.174 145.642 872.27 144.906 863.344 144.375C850.215 143.594 837.05 143.473 823.906 143.094C801.276 142.44 778.675 141.719 756.031 141.969Z" fill="#936347" stroke="none"/>
</g>
<g opacity="0.228249">
<path d="M583.594 155.25C578.594 156.214 573.606 156.559 568.531 156.844C567.245 156.916 565.945 157.026 564.656 157.031C560.087 157.051 555.508 156.613 550.938 156.531C548.959 156.496 547.009 156.515 545.031 156.469C543.067 156.423 541.089 156.274 539.125 156.25C533.664 156.183 528.305 156.644 522.844 156.125C521.608 156.018 520.513 156.952 520.406 158.188C520.299 159.423 521.233 160.487 522.469 160.594C526.541 160.912 530.58 160.694 534.656 160.781C536.087 160.812 537.481 161.011 538.906 161.125C540.193 161.228 541.463 161.273 542.75 161.375C546.701 161.69 550.637 162.278 554.594 162.531C557.952 162.746 561.293 162.708 564.656 162.719C566.686 162.725 568.721 162.822 570.75 162.719C575.497 162.477 580.139 161.69 584.75 160.562C586.216 160.241 587.165 158.779 586.844 157.312C586.522 155.846 585.06 154.929 583.594 155.25Z" fill="#936347" stroke="none"/>
</g>
<g opacity="0.228249">
<path d="M573.719 131.719C559.396 131.66 545.071 132.031 530.75 132.125C514.464 132.232 498.191 132.14 481.906 132.406C461.686 132.737 441.458 133.536 421.25 134.281C400.575 135.044 379.907 135.658 359.219 135.844C320.545 136.192 281.857 135.708 243.188 136.625C215.44 137.283 187.758 139.155 160.031 140.312C141.778 141.075 123.516 141.366 105.25 141.594C89.6791 141.788 74.0963 141.877 58.5312 142.375C51.7837 142.591 45.0241 142.923 38.2812 143.25C34.1701 143.449 30.0546 143.725 25.9375 143.688C23.9689 143.67 21.9952 143.606 20.0312 143.781C18.1877 143.946 16.3833 144.369 14.5625 144.688C11.5323 145.217 8.4759 145.71 5.5 146.5C3.68217 146.983 1.84449 147.563 0.21875 148.531C-0.024003 148.676 0.216828 148.54-1.5 149.875C-2.03644 150.4-2.33628 151.086-2.34375 151.781C-2.34796 152.173-2.07111 152.511-1.90625 152.875C-1.51759 154.767 0.654669 155.817 2.34375 156.375C5.48141 157.411 8.79973 158.076 12.0625 158.594C19.4751 159.771 27.0446 159.809 34.5312 159.875C43.8671 159.958 53.1666 159.906 62.5 159.688C77.2523 159.342 92.0016 158.628 106.75 158.156C115.041 157.891 123.36 157.652 131.656 157.781C143.809 157.971 155.915 158.907 168.062 159.25C188.574 159.83 209.104 160.384 229.625 160.438C245.046 160.478 260.462 160.101 275.875 159.656C295.973 159.077 316.069 158.154 336.156 157.312C359.624 156.329 383.081 155.416 406.562 154.812C434.095 154.105 461.65 153.75 489.188 153.281C506.195 152.992 523.212 152.609 540.219 152.281C560.602 151.888 580.962 151.546 601.344 151.062C619.796 150.624 638.254 149.971 656.688 149.031C664.098 148.653 671.544 148.516 678.938 147.875C680.679 147.724 682.425 147.527 684.156 147.281C685.707 147.061 687.231 146.823 688.781 146.594C692.08 146.105 696.048 145.757 699.062 144.25C700.219 143.671 701.449 142.715 701.75 141.375C701.855 140.909 701.947 140.41 701.875 139.938C701.799 139.439 701.601 138.965 701.344 138.531C700.081 136.401 695.875 136.377 693.719 136.25C693.269 136.223 692.825 136.21 692.375 136.188C691.686 136.152 691.078 136.099 690.406 136.062C689.488 136.012 688.57 135.977 687.656 135.875C679.882 135.011 672.09 134.747 664.281 134.406C655.272 134.013 646.261 133.625 637.25 133.281C616.082 132.475 594.903 131.806 573.719 131.719ZM588.562 137.75C611.287 138.108 634.013 139.013 656.719 139.969C664.651 140.303 672.612 140.483 680.531 141.062C681.746 141.151 682.946 141.277 684.156 141.406C683.24 141.543 682.326 141.706 681.406 141.812C677.666 142.247 673.915 142.428 670.156 142.625C652.376 143.555 634.575 144.42 616.781 145.062C593.593 145.899 570.415 146.36 547.219 146.906C517.023 147.618 486.825 148.292 456.625 148.844C428.137 149.364 399.629 149.937 371.156 151.031C335.914 152.385 300.728 154.587 265.469 155.531C253.533 155.851 241.565 156.053 229.625 156.031C215.793 156.007 201.983 155.691 188.156 155.344C177.865 155.085 167.565 154.912 157.281 154.438C146.293 153.931 135.317 153.287 124.312 153.344C107.202 153.432 90.0969 154.338 73 154.938C65.9647 155.184 58.9151 155.466 51.875 155.469C45.6842 155.471 39.4717 155.471 33.2812 155.406C27.9434 155.351 22.598 155.269 17.2812 154.75C13.8549 154.416 10.4405 153.843 7.09375 153.031C6.33679 152.848 5.57117 152.656 4.8125 152.438C5.04352 152.357 5.26754 152.26 5.5 152.188C8.74769 151.17 12.1545 150.639 15.5 150.062C17.4399 149.728 19.3735 149.291 21.3438 149.188C24.1664 149.04 26.9876 149.246 29.8125 149.156C35.1256 148.988 40.4395 148.675 45.75 148.438C64.354 147.607 82.9747 147.47 101.594 147.281C120.598 147.089 139.6 146.863 158.594 146.156C174.643 145.559 190.677 144.604 206.719 143.844C218.916 143.265 231.105 142.806 243.312 142.531C269.748 141.936 296.216 141.937 322.656 141.906C338.263 141.888 353.865 141.923 369.469 141.625C404.964 140.946 440.412 139.001 475.906 138.25C497.256 137.799 518.617 138.151 539.969 137.875C556.171 137.666 572.36 137.495 588.562 137.75Z" fill="#936347" stroke="none"/>
</g>
<g opacity="0.228249">
<path d="M444.656 138.906C435.709 138.918 426.789 139.032 417.844 139.312C390.855 140.158 363.921 142.454 336.938 143.375C322.935 143.853 308.941 144.177 294.938 144.625C278.011 145.167 261.074 145.833 244.156 146.594C233.13 147.09 222.106 147.516 211.094 148.281C186.721 149.975 162.503 153.467 138.219 156.062C132.453 156.679 126.687 157.35 120.906 157.812C109.806 158.7 98.6682 158.35 87.5625 159.094C58.6457 161.031 29.7855 163.968 0.84375 165.562C-0.655455 165.641-1.79697 166.907-1.71875 168.406C-1.64053 169.905-0.374205 171.078 1.125 171C30.0988 169.573 58.9919 166.817 87.9375 164.969C99.0753 164.258 110.244 164.643 121.375 163.75C133.726 162.759 146.02 161.081 158.312 159.562C174.633 157.547 191.004 155.646 207.406 154.438C222.483 153.327 237.588 152.809 252.688 152.094C280.831 150.761 308.974 149.596 337.125 148.438C354.526 147.721 371.934 146.566 389.312 145.438C398.868 144.817 408.43 144.15 418 143.781C453.678 142.405 489.395 144.015 525.062 144.969C526.302 145.001 527.343 144.021 527.375 142.781C527.407 141.542 526.427 140.501 525.188 140.469C498.36 139.804 471.498 138.87 444.656 138.906Z" fill="#936347" stroke="none"/>
</g>
<g opacity="0.228249">
<path d="M165.781 104.969C161.694 105.058 157.605 105.295 153.562 105.75C151.338 106 149.142 106.328 146.969 106.875C145.703 107.194 144.293 107.723 142.969 107.75C139.94 107.812 136.992 106.772 134.031 106.25C129.537 105.458 124.911 104.945 120.344 105C115.308 105.061 110.272 105.489 105.25 105.844C94.1346 106.629 83.0438 107.829 71.9062 108.281C60.4216 108.748 48.9634 107.081 37.5 106.656C25.1096 106.197 12.691 106.45 0.34375 105.125C-1.14859 104.962-2.493 106.039-2.65625 107.531C-2.8195 109.024-1.74234 110.368-0.25 110.531C12.2195 111.921 24.7649 111.703 37.2812 112.219C48.896 112.697 60.4841 114.422 72.125 114C83.9784 113.57 95.7945 112.333 107.625 111.531C111.878 111.243 116.142 110.916 120.406 110.875C124.693 110.834 129.106 111.342 133.312 112.156C136.558 112.784 139.724 113.755 143.062 113.688C145.24 113.644 147.398 112.842 149.5 112.375C151.056 112.029 152.636 111.833 154.219 111.656C162.041 110.783 170.018 110.827 177.875 111C192.152 111.314 206.375 113.051 220.656 113.25C230.037 113.381 239.4 112.926 248.781 112.969C261.768 113.027 274.769 113.438 287.75 113.812C300.985 114.195 314.191 114.592 327.406 115.438C340.811 116.296 354.197 117.437 367.594 118.406C380.654 119.351 393.73 120.156 406.781 121.219C432.655 123.325 458.55 125.783 484.531 125.906C513.669 126.045 542.751 124.397 571.844 123.031C581.371 122.584 590.919 122.959 600.438 122.312C606.493 121.901 612.507 121.009 618.562 120.594C633.554 119.564 648.563 119.027 663.562 118.125C668.116 117.851 672.668 117.563 677.219 117.25C680.84 117.001 684.464 116.685 688.094 116.594C694.323 116.436 700.554 116.853 706.781 116.938C711.304 116.999 715.821 116.991 720.344 117.062C727.988 117.183 735.645 117.468 743.281 117.812C744.52 117.867 745.57 116.895 745.625 115.656C745.68 114.417 744.708 113.367 743.469 113.312C735.788 112.977 728.125 112.735 720.438 112.625C715.565 112.555 710.685 112.559 705.812 112.5C699.873 112.428 693.943 112.029 688 112.188C684.306 112.286 680.623 112.616 676.938 112.875C672.401 113.194 667.852 113.478 663.312 113.75C648.301 114.649 633.255 115.181 618.25 116.188C612.196 116.593 606.21 117.48 600.156 117.875C593.679 118.298 587.143 118.204 580.656 118.25C575.212 118.289 569.783 118.504 564.344 118.719C537.753 119.769 511.183 121.126 484.562 120.875C458.714 120.631 432.975 117.903 407.25 115.625C394.185 114.468 381.11 113.55 368.031 112.562C356.858 111.718 345.678 110.759 334.5 109.969C325.542 109.335 316.569 108.822 307.594 108.5C300.632 108.25 293.683 108.114 286.719 107.938C274.481 107.628 262.241 107.355 250 107.281C245.171 107.252 240.328 107.298 235.5 107.406C230.581 107.516 225.671 107.678 220.75 107.562C206.477 107.229 192.275 105.361 178 105.031C173.938 104.937 169.869 104.879 165.781 104.969Z" fill="#936347" stroke="none"/>
</g>
<g opacity="0.228249">
<path d="M822.656 20.125C793.057 20.08 763.465 20.8371 733.875 21.4688C711.798 21.94 689.737 22.286 667.656 22.5C605.55 23.1018 543.45 23.8272 481.344 24.375C453.973 24.6164 426.585 24.5288 399.219 25.0938C372.987 25.6353 346.772 26.8448 320.562 28.0312C304.172 28.7732 287.793 29.4 271.406 30.2188C247.752 31.4006 224.131 33.2965 200.438 33.5625C180.371 33.7878 160.29 33.2672 140.25 32.25C126.419 31.548 112.577 30.4335 98.7188 30.5312C92.3226 30.5763 85.9219 30.8062 79.5312 31.0625C68.8396 31.4913 58.1534 32.1115 47.5 33.125C38.6629 33.9657 29.8438 35.1003 21 35.875C13.4526 36.5361 5.92001 36.8944-1.65625 36.9375C-3.15748 36.9436-4.38109 38.1863-4.375 39.6875C-4.36891 41.1887-3.15748 42.3811-1.65625 42.375C6.06911 42.3562 13.7708 41.9928 21.4688 41.3438C30.3286 40.5967 39.1779 39.532 48.0312 38.7188C58.5852 37.7493 69.1601 37.1714 79.75 36.7812C86.0786 36.5481 92.4166 36.3073 98.75 36.2812C112.849 36.2232 126.898 37.4521 140.969 38.1562C160.788 39.1481 180.655 39.7407 200.5 39.5312C224.283 39.2803 247.955 37.3314 271.688 35.9688C286.17 35.1372 300.695 34.6087 315.188 33.9688C340.755 32.8397 366.32 31.7763 391.906 31.1562C423.067 30.4011 454.241 30.53 485.406 30.0938C526.804 29.5143 568.196 28.7217 609.594 28.125C633.326 27.7829 657.049 27.5574 680.781 27.25C698.52 27.0202 716.267 26.5111 734 26.0312C763.547 25.2317 793.096 24.4623 822.656 24.5C851.341 24.5366 880.013 25.6509 908.688 26.25C919.514 26.4762 930.328 26.5838 941.156 26.6562C942.396 26.6639 943.43 25.6464 943.438 24.4062C943.445 23.1661 942.428 22.1639 941.188 22.1562C930.38 22.0958 919.587 22.0264 908.781 21.8125C880.079 21.2443 851.368 20.1686 822.656 20.125Z" fill="#936347" stroke="none"/>
</g>
<g opacity="0.228249">
<path d="M910.688 49.1562C888.763 49.2478 866.843 49.7743 844.938 50.7188C806.951 52.3566 769.036 55.067 731.094 57.4688C713.283 58.5961 695.483 60.0379 677.656 60.875C648.415 62.248 619.132 61.2462 589.875 61.5625C559.792 61.8878 529.7 62.9538 499.625 63.6875C488.06 63.9697 476.506 64.2539 464.938 64.3438C442.015 64.5218 419.077 63.768 396.188 62.5938C366.791 61.0856 337.447 58.9633 308.031 57.8125C279.269 56.6872 250.455 56.5106 221.688 57.5625C206.809 58.1066 191.969 59.0475 177.125 60.1875C175.628 60.2993 174.513 61.5967 174.625 63.0938C174.737 64.5908 176.034 65.7056 177.531 65.5938C192.306 64.5212 207.099 63.667 221.906 63.1875C247.91 62.3455 273.938 62.4989 299.938 63.4375C357.606 65.5194 415.187 70.8521 472.938 70.125C511.955 69.6338 550.926 67.8647 589.938 67.0938C619.244 66.5146 648.589 67.275 677.875 65.8125C685.6 65.4267 693.345 64.8575 701.062 64.3438C722.119 62.942 743.134 61.26 764.188 59.8125C797.39 57.5298 830.608 55.4942 863.875 54.4375C879.476 53.9419 895.079 53.6995 910.688 53.6562C911.928 53.6519 912.942 52.6464 912.938 51.4062C912.933 50.1661 911.928 49.1519 910.688 49.1562Z" fill="#936347" stroke="none"/>
</g>
<g opacity="0.228249">
<path d="M46 113.438C41.2857 113.473 36.587 113.575 31.875 113.812C22.6385 114.277 13.5197 116.016 4.34375 117.062C2.85103 117.222 1.77771 118.57 1.9375 120.062C2.09729 121.555 3.44478 122.629 4.9375 122.469C2.07112 124.777 1.40775 125.336 2.0625 124.781C3.25322 123.773 4.66212 123.032 6.0625 122.344C6.41041 122.173 6.83327 122.26 7.21875 122.219C7.98882 122.137 8.76212 122.059 9.53125 121.969C11.4425 121.744 13.3415 121.497 15.25 121.25C19.3681 120.717 23.5135 120.18 27.6562 119.875C30.302 119.681 32.9427 119.601 35.5938 119.531C43.001 119.335 50.4349 119.371 57.8438 119.406C62.1574 119.427 66.4678 119.382 70.7812 119.406C76.6699 119.439 82.5487 119.594 88.4375 119.625C90.5636 119.636 92.687 119.627 94.8125 119.625C90.9571 120.189 87.117 120.766 83.2188 121C74.5385 121.52 65.8035 120.766 57.125 121.344C52.2414 121.669 47.4109 122.519 42.5625 123.156C37.4163 123.833 32.2676 124.281 27.0938 124.688C21.2229 125.149 15.3343 125.568 9.46875 126.094C7.50726 126.27 5.55296 126.425 3.59375 126.625C3.10571 126.675 2.61304 126.731 2.125 126.781C1.63696 126.831 0.671351 127.428 0.65625 126.938C0.629838 126.08 0.65163 126.913-0.8125 127.062C-2.04596 127.191-2.94126 128.298-2.8125 129.531C-2.68374 130.765-1.57721 131.66-0.34375 131.531C11.3505 130.283 23.0669 129.487 34.7812 128.469C42.3418 127.811 49.8536 126.6 57.4375 126.188C67.0591 125.665 76.6957 126.694 86.3125 126.062C88.6449 125.909 90.9593 125.674 93.2812 125.406C95.1138 125.195 96.9489 124.93 98.7812 124.719C100.154 124.561 101.531 124.476 102.906 124.344C103.692 124.268 104.475 124.184 105.25 124.031C106.43 123.798 107.567 123.398 108.688 122.969C110.843 122.142 113.303 120.94 113.875 118.469C114.371 116.327 113.153 114.116 111 113.531C109.313 113.073 107.734 113.668 106.062 113.781C104.56 113.883 103.008 113.698 101.5 113.688C100.522 113.681 99.5406 113.68 98.5625 113.688C97.1072 113.698 95.6426 113.698 94.1875 113.719C92.2693 113.746 90.3558 113.8 88.4375 113.812C74.2957 113.907 60.1429 113.331 46 113.438Z" fill="#936347" stroke="none"/>
</g>
</g>
<g clip-path="url(#ArtboardFrame)" id="Layer-6">
<g opacity="0.236001">
<path d="M66.0938 65.9688C49.6888 66.3317 33.4365 68.9201 17.2812 71.5938C8.3415 72.9852 2.2023 81.3728 3.59375 90.3125C4.9852 99.2523 13.3727 105.36 22.3125 103.969C36.9556 101.833 51.6998 99.6614 66.5312 99.625C78.393 99.5959 90.1874 101.222 102 102.062C108.289 102.51 114.589 102.694 120.875 103.188C128.817 103.811 136.729 104.811 144.531 106.438C148.03 107.167 151.559 107.978 154.938 109.156C160.823 111.208 166.414 114.001 172.156 116.406C179.107 119.318 186.212 121.678 193.688 122.781C214.016 125.782 234.577 123.022 255 123.625C265.009 123.921 275.034 124.579 285.031 125.125C291.259 125.465 297.493 125.721 303.719 126.094C310.8 126.518 317.852 127.108 324.938 127.469C334.045 127.932 343.193 128.219 352.312 128.188C363.921 128.148 375.523 127.586 387.125 127.219C407.639 126.57 428.162 125.959 448.688 125.938C465.389 125.92 482.029 126.882 498.719 127.312C502.794 127.418 506.892 127.434 510.969 127.5C514.208 127.553 517.447 127.67 520.688 127.656C523.928 127.643 527.167 127.49 530.406 127.406C534.503 127.3 538.592 127.22 542.688 127.062C549.345 126.807 556.01 126.339 562.656 125.875C572.652 125.177 582.632 124.397 592.625 123.656C599.714 123.131 606.83 122.541 613.938 122.344C629.003 121.925 644.061 122.576 659.125 122C676.891 121.32 694.64 119.921 712.406 119.219C719.443 118.941 726.465 119.468 733.5 119.031C745.258 118.301 756.989 117.218 768.75 116.531C794.422 115.033 820.119 113.927 845.812 112.875C860.903 112.257 876 111.617 891.094 111.062C902.914 110.628 914.72 109.805 926.531 109.188C938.862 108.543 951.246 108.183 963.562 109.281C967.894 109.668 972.185 110.292 976.469 111.031C983.838 112.278 990.816 107.307 992.062 99.9375C993.309 92.5683 988.369 85.5906 981 84.3438C970.997 82.6844 960.921 81.8534 950.781 81.75C932.18 81.5602 913.656 83.4722 895.094 84.3438C875.519 85.2629 855.955 85.9606 836.375 86.75C812.89 87.6968 789.372 88.7217 765.875 89.2812C754.724 89.5468 743.56 89.8697 732.406 89.9688C725.407 90.0309 718.436 89.5858 711.438 89.7812C691.126 90.3484 670.855 91.8443 650.531 92.0312C645.871 92.0741 641.189 91.8909 636.531 91.75C626.523 91.4474 616.516 90.9933 606.5 91.1562C589.614 91.431 572.726 92.285 555.844 92.7188C551.188 92.8384 546.533 93.0422 541.875 93.0625C537.918 93.0798 533.957 93.0103 530 93C526.979 92.9921 523.958 93.0788 520.938 93C505.186 92.5889 489.461 91.5291 473.719 90.9062C462.521 90.4632 451.299 90.3479 440.094 90.375C419.924 90.4237 399.766 91.4282 379.625 92.4062C367.605 92.99 355.571 93.7721 343.531 93.6875C336.094 93.6352 328.675 93.2985 321.25 92.9062C316.232 92.6412 311.195 92.3946 306.188 91.9688C289.561 90.5548 272.996 88.5293 256.312 87.8438C244.799 87.3706 233.291 88.0204 221.781 88.2812C216.502 88.4009 211.211 88.4071 205.938 88.0938C203.113 87.926 200.293 87.7167 197.5 87.25C193.97 86.6602 190.537 85.4652 187.219 84.1562C182.81 82.417 178.514 80.4442 174.125 78.6562C170.84 77.3181 167.518 76.0677 164.125 75.0312C159.974 73.7634 155.696 72.8262 151.438 72C142.137 70.1957 132.702 69.1391 123.25 68.5625C116.876 68.1737 110.501 68.1104 104.125 67.7812C91.4371 67.1263 78.8181 65.6873 66.0938 65.9688Z" fill="#8c705f" stroke="none"/>
</g>
<g opacity="0.236001">
<path d="M894.281 28.4062C885.587 28.3221 876.899 28.4163 868.219 28.9375C844.095 30.3862 820.144 34.1164 795.969 34.875C785.722 35.1965 775.521 33.7839 765.344 32.8125C757.505 32.0643 749.653 31.6539 741.781 31.4688C726.445 31.1081 711.116 31.522 695.781 31.6875C682.345 31.8325 668.906 31.8108 655.469 31.875C646.536 31.9177 637.62 32.0702 628.688 32.125C613.986 32.2152 599.329 32.9716 584.688 34.2812C565.253 36.0196 545.787 38.3955 526.25 38.4688C518.355 38.4984 510.465 38.0017 502.594 37.4375C488.504 36.4275 474.486 34.8264 460.469 33.0938C457.337 32.7067 454.216 32.3028 451.094 31.8438C444.715 30.9059 438.327 29.8774 431.875 29.625C425.375 29.3708 418.878 29.4471 412.375 29.4688C395.793 29.5239 379.207 30.1802 362.625 30.2812C348.845 30.3653 335.06 29.9872 321.281 29.8125C302.621 29.5759 283.975 29.3946 265.312 29.5C254.618 29.5604 243.908 29.7521 233.219 30.0938C228.665 30.2393 224.113 30.3528 219.562 30.5938C213.131 30.9343 206.707 31.4082 200.281 31.8438C181.801 33.0966 163.301 34.461 144.781 34.9688C130.314 35.3654 115.84 35.0418 101.375 34.6875C83.8361 34.258 66.2958 33.7464 48.75 33.7812C32.7313 33.8131 16.7073 34.5031 0.6875 34.4375C-7.90206 34.4023-16.4621 34.125-25.0312 33.5312C-32.489 33.0391-38.9453 38.6673-39.4375 46.125C-39.9297 53.5827-34.3015 60.0391-26.8438 60.5312C-17.685 61.1055-8.52033 61.3354 0.65625 61.3125C18.3804 61.2683 36.1198 60.3953 53.8438 60.3125C82.5227 60.1785 111.162 61.9014 139.844 61.6875C154.39 61.579 168.929 60.8097 183.469 60.4375C195.838 60.1208 208.191 60.0301 220.562 59.8438C235.468 59.6193 250.371 59.0692 265.281 59.1875C283.663 59.3333 302.042 59.7665 320.406 60.5938C334.3 61.2196 348.194 62.1865 362.094 62.6875C377.041 63.2263 391.985 63.3324 406.938 63.6562C414.699 63.8243 422.468 63.9431 430.219 64.4062C435.414 64.7167 440.529 65.7544 445.656 66.5938C450.357 67.3634 455.092 68.0136 459.812 68.6562C471.367 70.2295 482.975 71.5124 494.594 72.5C503.779 73.2807 512.998 73.9057 522.219 73.9688C553.988 74.1861 585.304 67.7363 617 66.625C623.499 66.3971 630.028 66.2493 636.531 66.3438C642.676 66.433 648.827 66.6935 654.969 66.9062C663.814 67.2126 672.65 67.5144 681.5 67.5938C703.168 67.788 724.835 66.7185 746.5 67.3438C750.559 67.4609 754.606 67.6332 758.656 67.9375C770.114 68.7985 781.551 70.2124 793.062 70.0625C801.422 69.9536 809.777 69.2148 818.094 68.4062C834.154 66.8447 850.159 64.561 866.219 63C884.175 61.2547 902.267 61.7511 920.281 61.625C929.329 61.65 936.663 54.3286 936.688 45.2812C936.712 36.2339 929.391 28.8687 920.344 28.8438C911.657 28.735 902.976 28.4904 894.281 28.4062Z" fill="#8c705f" stroke="none"/>
</g>
<g opacity="0.236001">
<path d="M326.188 127.281C316.268 127.157 306.349 127.386 296.438 127.781C292.066 127.956 287.684 128.219 283.312 128.375C277.102 128.596 270.899 128.677 264.688 128.844C232.978 129.695 201.221 130.814 169.5 129.938C144.16 129.237 118.812 126.538 93.4688 128.594C86.4587 129.162 79.508 130.155 72.5938 131.438C64.7896 132.885 57.0187 134.624 49.125 135.531C45.7829 135.915 42.4823 136.007 39.125 136.125C36.0595 136.232 32.9737 136.541 29.9062 136.594C29.0977 136.608 28.306 136.602 27.5 136.531C27.3225 136.516 27.1277 136.477 26.9375 136.438C26.5573 136.083 26.1933 135.728 25.8125 135.375C24.8847 134.514 23.9217 133.702 22.9375 132.906C15.926 127.188 5.6241 128.238-0.09375 135.25C-5.81159 142.262-4.76153 152.563 2.25 158.281C3.70906 159.495 4.96279 160.951 6.40625 162.188C8.40668 163.901 10.5783 165.378 12.9688 166.5C21.0091 170.274 29.913 169.787 38.5312 169.5C40.9777 169.419 43.4282 169.497 45.875 169.406C50.2591 169.243 54.6226 168.807 58.9688 168.219C69.9129 166.737 80.7019 164.228 91.7188 163.281C105.091 162.132 118.56 162.616 131.938 163.406C144.068 164.123 156.168 165.063 168.312 165.531C200.951 166.789 233.695 165.961 266.281 163.875C272.517 163.476 278.733 162.944 284.969 162.562C290.144 162.246 295.349 162.099 300.531 161.938C308.844 161.678 317.154 161.53 325.469 161.781C331.338 161.958 337.192 162.358 343.031 162.969C350.99 163.801 358.936 164.919 366.938 165.25C377.676 165.694 388.417 164.801 399.156 165.156C403.93 165.314 408.684 165.806 413.438 166.25C423.106 167.153 432.75 168.368 442.438 169.062C452.289 169.768 462.192 169.855 472.062 170.125C486.765 170.527 501.488 170.905 516.188 171.406C532.965 171.979 549.627 174.248 566.406 174.844C575.934 175.182 585.468 175.135 595 175.062C607.688 174.965 620.385 174.613 633.062 174.094C644.223 173.637 655.382 173.044 666.531 172.375C673.685 171.946 680.858 171.538 688 170.938C700.09 169.921 712.129 168.564 724.219 167.531C740.474 166.143 756.768 165.06 773.062 164.25C798.221 162.999 823.435 162.382 848.625 162.469C874.463 162.558 900.294 163.234 926.062 160.875C933.503 160.168 938.957 153.565 938.25 146.125C937.543 138.685 930.94 133.199 923.5 133.906C900.725 136.148 877.856 135.906 855 135.906C830.997 135.906 806.984 136.255 783 137.25C773.537 137.643 764.085 138.032 754.625 138.5C743.89 139.031 733.142 139.715 722.406 140.219C710.292 140.787 698.176 141.155 686.062 141.719C674.045 142.278 662.052 143.135 650.031 143.656C626.892 144.659 603.707 145.014 580.562 143.969C573.753 143.661 566.905 143.285 560.125 142.562C546.06 141.065 532.088 138.669 517.969 137.688C503.116 136.656 488.277 135.84 473.406 135.125C463.961 134.671 454.492 134.411 445.062 133.688C430.114 132.54 415.254 130.064 400.25 129.625C395.852 129.496 391.46 129.51 387.062 129.625C380.323 129.801 373.555 130.212 366.812 129.969C359.967 129.722 353.133 128.874 346.312 128.281C339.605 127.699 332.92 127.366 326.188 127.281Z" fill="#8c705f" stroke="none"/>
</g>
<g opacity="0.236001">
<path d="M647.25 187.5C610.351 187.739 573.491 189.166 536.594 189.594C527.632 189.698 518.675 189.364 509.719 189.094C500.799 188.824 491.861 188.647 482.938 188.531C454.47 188.162 425.992 188.44 397.531 189.125C386.832 189.383 376.125 189.608 365.438 190.188C348.542 191.103 331.726 192.89 314.812 193.5C296.92 194.145 278.992 193.882 261.094 194.125C251.976 194.249 242.859 194.569 233.75 195C205.52 196.335 177.38 199.102 149.125 199.938C135.474 200.341 121.809 199.861 108.156 199.844C101.118 199.835 94.0976 200.1 87.0625 200.281C80.9796 200.438 74.895 200.512 68.8125 200.688C63.8992 200.83 58.9993 201.029 54.0938 201.344C46.4422 201.835 38.8078 202.503 31.1562 203C22.2152 203.58 13.2723 203.983 4.3125 204.062C1.54803 204.079-0.703581 206.329-0.6875 209.094C-0.671419 211.858 1.57928 214.079 4.34375 214.062C13.492 214.037 22.649 213.694 31.7812 213.156C44.2247 212.424 56.6272 211.379 69.0938 211.094C75.1664 210.955 81.2396 210.901 87.3125 210.781C94.2539 210.644 101.181 210.453 108.125 210.5C121.89 210.593 135.64 211.098 149.406 210.75C159.01 210.507 168.629 209.974 178.219 209.406C196.918 208.299 215.604 206.889 234.312 205.938C250.951 205.092 267.592 204.693 284.25 204.5C295.459 204.37 306.673 204.359 317.875 203.906C337.472 203.115 356.988 201.163 376.594 200.531C389.413 200.118 402.239 199.863 415.062 199.625C437.648 199.206 460.254 199.035 482.844 199.188C491.714 199.247 500.568 199.355 509.438 199.531C516.707 199.676 524.009 199.88 531.281 199.812C536.27 199.766 541.232 199.584 546.219 199.438C555.033 199.178 563.843 198.897 572.656 198.594C597.54 197.737 622.445 196.859 647.344 196.594C663.2 196.425 679.05 196.534 694.906 196.562C712.46 196.594 730.009 196.527 747.562 196.469C811.05 196.258 874.543 196.001 938.031 196C940.315 195.998 942.159 194.159 942.156 191.875C942.154 189.591 940.315 187.716 938.031 187.719C875.868 187.846 813.695 188.323 751.531 188.219C732.67 188.187 713.828 187.794 694.969 187.594C679.07 187.425 663.149 187.397 647.25 187.5Z" fill="#5b4435" stroke="none"/>
</g>
<g opacity="0.236001">
<path d="M410.906 792.594C409.632 792.723 408.405 793.367 407.531 794.438C406.483 795.337 405.401 796.238 404.719 797.469C404.493 797.875 404.416 798.345 404.188 798.75C403.743 799.538 403.052 800.231 402.781 801.094C402.56 801.799 402.538 803.062 402.406 803.781C402.329 804.204 402.17 804.608 402.094 805.031C402.017 805.457 402.038 805.922 401.938 806.344C401.75 807.134 401.327 807.85 401 808.594C400.221 810.74 401.353 813.096 403.5 813.875C404.037 814.07 404.589 814.153 405.125 814.125C406.734 814.041 408.197 813.016 408.781 811.406C408.921 810.919 409.238 809.735 409.5 809.281C409.693 808.948 409.993 808.687 410.219 808.375C410.435 808.077 410.581 807.723 410.812 807.438C411.281 806.859 411.946 806.46 412.406 805.875C412.817 805.353 412.901 804.628 413.25 804.062C413.423 803.782 413.736 803.604 413.938 803.344C414.52 802.592 414.859 801.594 415.281 800.75C417.029 798.608 416.704 795.467 414.562 793.719C413.492 792.845 412.181 792.465 410.906 792.594Z" fill="#5b4435" stroke="none"/>
</g>
<g opacity="0.236001">
<path d="M217.969 210.375C203.5 210.636 189.066 212.281 174.688 213.875C166.206 214.815 157.737 215.822 149.219 216.375C128.003 217.752 106.708 215.223 85.5312 217.5C78.9512 218.208 72.4088 219.307 65.875 220.344C61.2867 221.072 56.6708 221.703 52.0938 222.5C44.3277 223.852 36.5156 225.586 28.5938 225.562C20.9853 225.54 13.7499 222.951 6.3125 221.688C3.58829 221.217 1.00159 223.026 0.53125 225.75C0.0609103 228.474 1.86954 231.061 4.59375 231.531C9.8966 232.463 15.0645 234.116 20.375 235C23.0743 235.45 25.7955 235.693 28.5312 235.719C37.0637 235.797 45.4691 234.062 53.8438 232.656C58.3743 231.896 62.9274 231.286 67.4688 230.594C73.8359 229.623 80.2148 228.588 86.625 227.938C101.125 226.467 115.655 227.391 130.188 227.562C136.754 227.64 143.319 227.583 149.875 227.188C158.564 226.664 167.223 225.656 175.875 224.719C194.463 222.704 213.15 220.586 231.875 221.562C253.151 222.672 274.261 225.729 295.531 226.969C307.025 227.638 318.57 226.719 330.062 227.438C339.275 228.013 348.387 229.559 357.562 230.5C362.319 230.988 367.095 231.284 371.875 231.406C377.802 231.557 383.728 231.528 389.656 231.531C401.458 231.538 413.262 231.4 425.062 231.219C463.917 230.621 502.74 229.094 541.594 228.469C560.184 228.17 578.74 229.223 597.312 229.812C614.905 230.371 632.496 230.234 650.094 230.469C655.34 230.539 660.6 230.624 665.844 230.781C671.568 230.952 677.303 231.191 683.031 231.156C702.391 231.039 721.561 228.109 740.906 227.656C771.761 226.934 802.596 228.671 833.438 229.188C840.16 229.3 846.871 228.573 853.594 228.656C865.264 228.8 876.921 229.21 888.594 229.25C905.085 229.307 921.558 228.814 937.969 227.125C940.24 226.889 941.892 224.834 941.656 222.562C941.42 220.291 939.396 218.639 937.125 218.875C921.007 220.567 904.825 221.116 888.625 221.094C876.976 221.078 865.334 220.682 853.688 220.562C846.98 220.493 840.3 221.21 833.594 221.094C802.651 220.556 771.707 218.85 740.75 219.344C720.568 219.666 700.477 222.374 680.281 222.156C673.79 222.086 667.303 221.748 660.812 221.594C656.114 221.482 651.418 221.411 646.719 221.344C630.365 221.109 614 221.12 597.656 220.438C578.938 219.656 560.246 218.348 541.5 218.406C501.445 218.531 461.423 219.847 421.375 220.406C410.214 220.562 399.037 220.669 387.875 220.688C382.62 220.696 377.379 220.731 372.125 220.625C358.831 220.356 345.742 217.972 332.5 217.031C320.395 216.171 308.263 217.216 296.156 216.531C274.861 215.328 253.767 211.812 232.469 210.625C227.639 210.356 222.792 210.288 217.969 210.375Z" fill="#5b4435" stroke="none"/>
</g>
</g>
</svg>
