<?xml version="1.0" encoding="UTF-8" standalone="no"?>
<!DOCTYPE svg PUBLIC "-//W3C//DTD SVG 1.1//EN" "http://www.w3.org/Graphics/SVG/1.1/DTD/svg11.dtd">

<!-- Created with Vectornator (http://vectornator.io/) -->
<svg height="100%" stroke-miterlimit="10" style="fill-rule:nonzero;clip-rule:evenodd;stroke-linecap:round;stroke-linejoin:round;" version="1.1" viewBox="0 0 926 428" width="100%" xml:space="preserve" xmlns="http://www.w3.org/2000/svg">
<defs/>
<clipPath id="ArtboardFrame">
<rect height="428" width="926" x="0" y="0"/>
</clipPath>
<g clip-path="url(#ArtboardFrame)" id="Layer-1">
<path d="M-20.0561-0.0962097L946.009-0.0962097C946.733-0.0962097 947.32 0.482883 947.32 1.19723L947.32 427.292C947.32 428.007 946.733 428.586 946.009 428.586L-20.0561 428.586C-20.7799 428.586-21.3666 428.007-21.3666 427.292L-21.3666 1.19723C-21.3666 0.482883-20.7799-0.0962097-20.0561-0.0962097Z" fill="#ab9479" fill-rule="evenodd" opacity="0.992248" stroke="#ab9479" stroke-linecap="round" stroke-linejoin="round" stroke-width="1.98327"/>
<path d="M926.039 2.90198L949.202 2.90198C949.892 2.90198 950.452 3.46163 950.452 4.15198L950.452 6.23202C950.452 6.92237 949.892 7.48202 949.202 7.48202L926.039 7.48202C925.348 7.48202 924.789 6.92237 924.789 6.23202L924.789 4.15198C924.789 3.46163 925.348 2.90198 926.039 2.90198Z" fill="#fffaf5" fill-rule="evenodd" opacity="0.992248" stroke="#a6a39f" stroke-linecap="round" stroke-linejoin="round" stroke-width="1.98327"/>
</g>
<g clip-path="url(#ArtboardFrame)" id="Layer-2">
<path d="M5.40597 64.8161C10.2063 67.2163 22.3437 64.8161 27.1751 64.8161C42.2472 64.8161 57.2986 65.2348 72.3879 65.2348C92.7272 65.2348 113.227 66.3622 133.509 67.328C165.502 68.8515 197.766 66.8809 229.795 67.7466C328.027 70.4015 426.401 71.0171 524.516 67.7466C558.122 66.6264 591.811 69.5651 625.407 68.1652C699.517 65.0773 773.898 59.3739 848.122 59.3739" fill="#ab9479" fill-rule="evenodd" opacity="0.718992" stroke="#574a3b" stroke-linecap="round" stroke-linejoin="round" stroke-width="5.92123"/>
<path d="M826.974 60.1003C861.612 51.4408 899.096 60.1003 934.248 60.1003" fill="#ab9479" fill-rule="evenodd" opacity="0.718992" stroke="#574a3b" stroke-linecap="round" stroke-linejoin="round" stroke-width="5.92123"/>
<path d="M-0.32441 141.856C10.0768 138.884 23.4313 139.115 34.2577 137.865C78.8727 132.717 123.499 138.467 168.152 136.979C203.846 135.789 239.254 130.816 275.002 129.441C338.016 127.018 401.957 130.181 464.76 133.875C491.6 135.454 518.609 133.792 545.451 135.205C563.206 136.14 580.897 137.945 598.655 138.752C643.243 140.779 688.031 143.063 732.549 145.846C747.037 146.751 761.918 146.873 776.442 147.176C789.255 147.443 802.107 146.275 814.571 149.836" fill="#ab9479" fill-rule="evenodd" opacity="0.718992" stroke="#574a3b" stroke-linecap="round" stroke-linejoin="round" stroke-width="5.92123"/>
<path d="M810.386 148.766C840.089 148.766 869.106 143.056 898.669 140.69C908.461 139.906 924.172 135.283 933.271 140.017" fill="#ab9479" fill-rule="evenodd" opacity="0.718992" stroke="#574a3b" stroke-linecap="round" stroke-linejoin="round" stroke-width="5.92123"/>
<path d="M2.0565 213.354C16.2209 220.436 39.7469 210.649 54.3199 209.434C100.364 205.597 145.937 206.168 192.164 206.168C227.43 206.168 262.144 202.701 297.344 200.941C320.179 199.8 343.106 201.157 365.94 199.635C403.992 197.098 442.063 193.918 480.266 192.449C504.339 191.523 528.736 192.896 552.782 193.755C592.584 195.177 632.521 193.271 672.334 194.408C699.126 195.174 725.893 196.887 752.689 197.675C801.431 199.109 849.799 200.963 898.373 206.168C912.039 207.632 936.677 203.672 947.37 210.088" fill="#ab9479" fill-rule="evenodd" opacity="0.718992" stroke="#574a3b" stroke-linecap="round" stroke-linejoin="round" stroke-width="5.92123"/>
<path d="M-1.86325 287.829C17.9506 294.434 40.8562 287.569 60.8528 285.216C73.5754 283.719 86.5869 283.897 99.397 283.256C156.944 280.379 215.039 285.477 272.519 282.603C307.821 280.838 343.059 277.414 378.353 275.417C433.162 272.314 487.601 275.355 542.329 276.723C615.166 278.544 687.808 278.316 760.528 283.909C821.86 288.627 882.683 293.056 944.103 293.056" fill="#ab9479" fill-rule="evenodd" opacity="0.718992" stroke="#574a3b" stroke-linecap="round" stroke-linejoin="round" stroke-width="5.92123"/>
<path d="M3.36309 354.465C19.1557 343.937 52.0866 341.575 71.3054 339.439C107.655 335.4 143.88 330.616 180.405 328.333C211.402 326.396 242.842 330.086 273.826 330.947C346.429 332.963 419.355 330.484 492.025 332.906C571.58 335.558 650.982 338.383 730.477 342.052C802.841 345.392 877.4 344.129 948.676 358.385" fill="#ab9479" fill-rule="evenodd" opacity="0.718992" stroke="#574a3b" stroke-linecap="round" stroke-linejoin="round" stroke-width="5.92123"/>
<path d="M9.24271 410.648C25.1261 410.648 39.9597 406.821 55.6264 406.075C152.309 401.471 249.553 403.2 346.341 401.502C370.802 401.073 395.132 403.474 419.51 404.115C508.221 406.45 597.306 406.728 686.053 406.728C755.852 406.728 825.395 414.477 895.107 416.528C916.387 417.154 937.887 416.2 959.129 417.834C961.69 418.031 965.376 418.018 967.622 419.141" fill="#ab9479" fill-rule="evenodd" opacity="0.718992" stroke="#574a3b" stroke-linecap="round" stroke-linejoin="round" stroke-width="5.92123"/>
<g opacity="0.718992">
<path d="M34.4685 19.0476C58.8721 24.4706 85.1119 20.0489 109.949 21.2042C178.738 24.4036 247.525 28.2131 316.444 28.2131C338.125 28.2131 359.52 25.5173 381.142 25.5173C385.995 25.5173 396.649 25.2468 398.933 31.448C402.19 40.2858 375.918 38.4569 372.515 38.4569C344.968 38.4569 318.707 43.9247 291.643 48.7008C269.381 52.6294 247.323 52.6517 224.788 53.5531C167.292 55.853 109.932 56.8625 52.7996 48.7008C44.3676 47.4962 34.9126 46.1379 26.3813 46.5442C11.1982 47.2672-12.7746 50.0903-19.4464 30.9088C-21.9201 23.7971-14.6702 4.40455-7.58515 1.25563C-4.93707 0.0787022-1.82942 1.93797 1.04124 2.33393C15.5066 4.32914 26.5709 11.7712 40.3991 14.7344C51.1962 17.048 62.3546 15.2921 73.2873 15.8127C87.9903 16.5128 102.334 18.6634 116.958 20.1259" fill="#9a8165" fill-rule="evenodd" stroke="none"/>
<path d="M-6.25 0.5625C-9.55691 0.90499-12.2967 4.68252-13.9062 7.25C-14.1797 7.68614-14.4335 8.11475-14.6875 8.5625C-15.1879 9.44481-15.7227 10.4905-16.1562 11.4062C-17.9838 15.2663-19.3982 19.4276-20.0625 23.6562C-20.3913 25.7495-20.5847 27.9687-20.1562 30.0625C-19.5643 32.9554-17.7511 36.0327-15.875 38.2812C-14.7155 39.671-13.3486 40.8884-11.875 41.9375C-7.98719 44.7054-3.38271 46.1131 1.28125 46.875C6.86299 47.7869 12.5827 47.7567 18.2188 47.5312C21.6633 47.3935 25.0835 47.1371 28.5312 47.0938C39.6415 46.954 50.679 49.2088 61.6562 50.5938C82.4589 53.2183 103.359 54.8357 124.312 55.5938C138.071 56.0915 151.831 56.2383 165.594 56.1562C179.356 56.0742 193.118 55.7458 206.875 55.3438C216.142 55.073 225.39 54.7215 234.656 54.4375C248.152 54.0239 261.681 53.6767 275.125 52.3438C282.46 51.6165 289.711 50.4883 296.969 49.2188C315.307 46.0108 333.614 42.5462 352.188 41C357.808 40.5321 363.453 40.2238 369.094 40.1562C372.739 40.1126 376.387 40.3301 380.031 40.3438C381.68 40.3499 383.321 40.3238 384.969 40.25C386.325 40.1892 387.025 40.1189 388.375 40C389.218 39.9258 390.069 39.8422 390.906 39.7188C394.838 39.1387 401.561 37.5972 401 32.3125C400.655 29.0607 397.94 26.675 395.094 25.4688C390.333 23.4512 384.826 23.5871 379.75 23.6562C372.98 23.7485 366.232 23.9156 359.469 24.25C344.77 24.9768 330.101 26.1372 315.375 26.0938C250.473 25.9022 185.621 22.2743 120.812 19.125C115.127 18.8487 109.442 18.4979 103.75 18.4062C103.303 18.399 102.854 18.4103 102.406 18.4062C92.7227 17.2494 83.0155 16.1572 73.2812 15.6875C62.3518 15.1601 51.2352 16.8919 40.4375 14.5312C31.5028 12.5779 23.2659 8.53721 14.6875 5.5C10.2387 3.92488 5.75094 2.75534 1.09375 2C-1.34419 1.60459-3.73291 0.30181-6.25 0.5625ZM-5.875 1.21875C-3.53548 1.12132-1.281 2.29887 1 2.65625C6.19287 3.46986 11.1538 4.83249 16.0938 6.625C24.5522 9.69422 32.8057 13.6029 41.7188 15.2188C52.1484 17.1095 62.7711 15.4895 73.2812 15.9375C82.7846 16.3426 92.2607 17.3328 101.719 18.4062C98.1584 18.3856 94.5891 18.414 91.0312 18.5C72.3351 18.9517 53.4702 20.3764 35.0312 16.4062C33.5763 16.0947 32.1553 17.0138 31.8438 18.4688C31.5322 19.9237 32.4513 21.376 33.9062 21.6875C52.7833 25.7072 72.056 24.2851 91.1875 23.7812C95.3508 23.6716 99.5226 23.5673 103.688 23.625C108.965 23.6982 114.228 24.0098 119.5 24.25C156.418 25.9321 193.343 27.7562 230.281 28.9375C257.918 29.8214 285.568 30.3074 313.219 30.3438C321.549 30.3547 329.84 30.0778 338.156 29.5938C348.905 28.9681 359.645 28.0193 370.406 27.625C373.093 27.5266 375.781 27.5271 378.469 27.4688C383.229 27.3653 388.395 27.0164 392.969 28.5938C394.816 29.2309 397.143 30.5104 397.406 32.6875C397.619 34.4499 394.368 35.34 393.156 35.6562C392.938 35.7131 392.719 35.7621 392.5 35.8125C386.58 37.1724 380.347 36.983 374.312 36.8125C365.162 36.554 355.935 37.3003 346.844 38.2812C328.784 40.2299 310.951 43.7517 293.094 47C274.686 50.3485 256.036 51.1949 237.375 51.875C226.58 52.2684 215.796 52.7437 205 53.125C156.112 54.8515 106.839 55.2498 58.25 48.75C48.4088 47.4335 38.4943 45.6936 28.5312 45.875C25.7872 45.925 23.0524 46.1358 20.3125 46.2812C14.0434 46.6139 7.69265 46.825 1.46875 45.8438C-3.3809 45.0792-8.23138 43.5834-12.1562 40.5312C-13.5308 39.4624-14.7612 38.2317-15.8125 36.8438C-17.2941 34.8877-18.7731 32.2949-19.2812 29.875C-19.7473 27.6556-19.478 25.2729-19.0938 23.0625C-18.325 18.6403-16.7876 14.3034-14.75 10.3125C-14.2787 9.38948-13.7955 8.53723-13.25 7.65625C-11.7404 5.21824-9.08793 1.35255-5.875 1.21875Z" fill="#9a8165" stroke="none"/>
</g>
<g opacity="0.718992">
<path d="M822.293 517.769C823.016 513.437 823.738 509.104 824.46 504.771" fill="#9a8165" fill-rule="evenodd" stroke="none"/>
<path d="M824.469 504.781C823.664 506.878 822.879 508.964 822 511.031C821.411 512.417 820.713 513.761 820.219 515.188C820.038 515.707 819.758 516.78 819.625 517.312C819.38 518.78 820.376 520.193 821.844 520.438C823.311 520.682 824.693 519.686 824.938 518.219C824.984 517.671 825.096 516.55 825.094 516C825.088 514.491 824.889 513.002 824.781 511.5C824.62 509.259 824.55 507.026 824.469 504.781Z" fill="#9a8165" stroke="none"/>
</g>
<g opacity="0.718992">
<path d="M461.24 31.792C492.755 14.2841 531.206 16.5731 565.946 15.1835C581.664 14.5548 597.244 11.968 612.883 10.8509C643.917 8.63415 674.985 11.0159 706.034 10.1288C738.634 9.19736 770.856 6.51826 803.519 6.51826C832.387 6.51826 860.675 13.2625 889.449 14.4614C894.132 14.6565 913.076 11.822 912.557 21.6825C912.121 29.962 891.09 47.9813 883.672 49.1225C872.274 50.8762 861.809 47.4293 850.456 46.9562C834.876 46.307 819.112 46.9562 803.519 46.9562C777.817 46.9562 751.927 46.6086 726.253 47.6783C692.03 49.1043 658.1 54.0066 623.714 52.733C584.71 51.2884 546.66 45.9738 507.455 47.6783C479.334 48.901 451.583 51.4189 423.691 46.9562C419.319 46.2567 410.08 47.626 407.805 41.1793C404.257 31.1264 421.897 31.3632 425.857 31.0699C436.701 30.2666 446.927 25.293 457.63 25.293C466.334 25.293 470.656 27.884 479.293 25.293" fill="#9a8165" fill-rule="evenodd" stroke="none"/>
<path d="M796.375 4.53125C790.254 4.58287 784.119 4.72409 778 4.90625C755.67 5.57103 733.394 7.04597 711.062 7.6875C701.634 7.95836 692.182 8.03577 682.75 7.9375C664.607 7.74848 646.488 7.0934 628.344 7.59375C620.497 7.81014 612.66 8.27097 604.844 9C594.426 9.97169 584.031 11.3834 573.594 12.1562C563.676 12.8907 553.72 12.9533 543.781 13.1875C521.231 13.7189 498.183 14.6685 476.656 22.0625C473.317 23.2095 470.072 24.5642 466.875 26.0312C465.141 25.8137 463.392 25.5907 461.656 25.4375C458.576 25.1657 455.383 25.1903 452.312 25.5625C449.208 25.9389 446.128 26.7388 443.094 27.4688C437.377 28.844 431.728 30.4504 425.844 30.9375C424.535 31.0459 423.217 31.0398 421.906 31.125C420.805 31.1966 419.69 31.303 418.594 31.4375C417.853 31.5285 417.015 31.6464 416.281 31.7812C412.903 32.4016 407.861 33.8153 407.219 37.8438C407.071 38.7701 407.157 39.7255 407.406 40.625C407.614 41.3733 407.924 42.0943 408.344 42.75C411.471 47.6308 418.744 46.452 423.656 47.1875C425.4 47.4485 427.127 47.7371 428.875 47.9688C452.627 51.1167 476.634 49.5337 500.469 48.4375C507.685 48.1056 514.869 47.8485 522.094 47.8438C533.391 47.8363 544.694 48.3175 555.969 49C572.875 50.0234 589.752 51.5308 606.656 52.5938C615.19 53.1303 623.729 53.6182 632.281 53.7188C662.273 54.0714 692.11 50.3016 722.031 48.9062C751.13 47.5492 780.258 48.2664 809.375 48.1875C819.158 48.161 828.935 47.9227 838.719 48.0312C843.525 48.0846 848.364 48.1365 853.156 48.5312C861.007 49.1778 868.754 51.0287 876.656 51.0938C878.587 51.1096 880.519 51.0344 882.438 50.8125C883.338 50.7083 884.223 50.5976 885.094 50.3438C887.028 49.7801 888.844 48.7816 890.562 47.75C893.075 46.2416 895.431 44.5154 897.719 42.6875C902.728 38.6859 907.638 34.1165 911.25 28.7812C912.789 26.5081 914.262 23.8619 914.188 21.0312C914.079 16.8791 910.852 14.4677 907.125 13.5C903.19 12.4785 899.1 12.4787 895.062 12.5938C893.309 12.6437 891.537 12.7822 889.781 12.75C886.723 12.6938 883.641 12.4353 880.594 12.1875C875.238 11.7521 869.927 11.1482 864.594 10.5C846.094 8.25144 827.627 5.18313 808.969 4.59375C804.763 4.46088 800.582 4.49577 796.375 4.53125ZM807.094 8.5625C834.094 8.94562 860.622 14.8668 887.562 16.0938C893.42 16.3605 899.385 15.2897 905.188 16.4688C907.707 16.9807 910.845 18.0947 910.938 21.125C911.002 23.2424 909.723 25.3094 908.594 27C905.934 30.981 902.459 34.4434 898.906 37.625C896.02 40.2099 892.96 42.6398 889.688 44.7188C887.987 45.7987 886.192 46.8854 884.25 47.4688C883.118 47.8087 881.888 47.8672 880.719 47.9688C878.475 48.1636 876.217 48.1733 873.969 48.0625C867.064 47.7224 860.263 46.2436 853.375 45.7188C850.465 45.497 847.542 45.4637 844.625 45.4062C838.74 45.2904 832.854 45.2949 826.969 45.375C819.148 45.4815 811.353 45.6473 803.531 45.6875C774.906 45.8346 746.248 45.3947 717.656 47.0938C689.214 48.784 660.843 52.3343 632.312 52.1562C623.786 52.1031 615.261 51.6773 606.75 51.1875C589.84 50.2144 572.943 48.781 556.031 47.8438C544.731 47.2175 533.412 46.7786 522.094 46.8438C514.27 46.8888 506.468 47.2414 498.656 47.6562C474.883 48.9186 450.907 50.4776 427.219 47.2188C425.658 47.004 424.103 46.6902 422.531 46.5625C417.962 46.1914 410.741 46.8631 408.312 41.875C408.018 41.2702 407.789 40.5968 407.656 39.9375C407.521 39.2679 407.489 38.5832 407.594 37.9062C408.008 35.2146 410.625 33.7707 412.969 32.9688C417.583 31.3898 422.442 31.604 427.219 31.0938C434.862 30.2773 442.153 27.5774 449.688 26.1875C450.564 26.0259 451.429 25.8305 452.312 25.7188C455.373 25.3319 458.583 25.2758 461.656 25.5312C463.342 25.6714 465.035 25.8888 466.719 26.0938C464.438 27.1445 462.185 28.2409 459.969 29.4375C458.66 30.1456 458.167 31.7538 458.875 33.0625C459.583 34.3712 461.223 34.8643 462.531 34.1562C467.003 31.7312 471.6 29.605 476.375 27.8438C499.314 19.383 524.224 18.8745 548.375 18.2812C556.913 18.0715 565.481 17.9355 574 17.2812C584.468 16.4772 594.864 15.0346 605.312 14.0312C613.019 13.2911 620.731 12.8346 628.469 12.5938C654.336 11.7887 680.223 13.1783 706.094 12.4375C715.936 12.1557 725.761 11.5931 735.594 11.0938C750.113 10.3564 764.627 9.61172 779.156 9.09375C784.906 8.88875 790.653 8.74328 796.406 8.65625C799.965 8.60242 803.535 8.512 807.094 8.5625Z" fill="#9a8165" stroke="none"/>
</g>
<g opacity="0.718992">
<path d="M478.435 87.3941C508.452 84.6267 537.343 88.8383 567.602 88.8383C599.675 88.8383 631.947 88.1981 663.998 88.8383C688.726 89.3323 712.909 92.4692 737.5 93.171C774.767 94.2345 812.41 90.9098 849.561 89.5604C875.324 88.6247 901.247 87.7961 926.678 91.0047C931.752 91.6448 948.466 93.0847 949.572 97.5036C952.354 108.616 917.929 112.833 906.194 114.112C889.85 115.893 873.168 114.429 856.791 114.112C825.035 113.498 793.266 114.247 761.6 115.556C692.343 118.419 624.989 129.056 555.552 130.72C515.612 131.678 473.302 124.938 432.647 124.222C349.982 122.764 267.826 120.034 185.632 115.556C154.452 113.858 120.59 111.224 89.2354 111.224C37.7094 111.224-12.0509 114.861-62.5888 106.891C-77.5048 104.539-97.6558 97.8925-110.787 93.171C-114.196 91.945-120.479 90.3768-119.222 88.1162C-114.788 80.1459-89.2642 81.6965-79.4582 80.8952C-42.0817 77.8408-4.78963 78.3303 32.6025 75.8404C74.7489 73.034 116.79 68.9082 159.123 66.4531C189.969 64.6641 221.011 66.5725 251.904 65.7309C316.87 63.9613 378.945 66.1439 443.492 70.7857C474.929 73.0464 550.106 78.3533 572.422 91.7268" fill="#9a8165" fill-rule="evenodd" stroke="none"/>
<path d="M308.156 64.8438C294.802 64.7432 281.447 64.7848 268.094 65C257.548 65.17 246.985 65.5186 236.438 65.5625C215.805 65.6484 195.195 64.8728 174.562 65.3438C165.43 65.5522 156.302 66.1181 147.188 66.6875C134.422 67.485 121.689 68.4151 108.938 69.4062C77.2801 71.8669 45.6006 74.7783 13.875 76.2188C-5.56591 77.1014-25.0242 77.3404-44.4688 78.125C-52.6501 78.4551-60.8277 78.8337-69 79.3438C-73.1713 79.6041-77.3255 80.0248-81.5 80.2188C-89.1577 80.5744-96.8429 80.401-104.469 81.3125C-108.808 81.8312-114.059 82.6249-117.688 85.25C-118.852 86.0924-120.281 87.4639-120.188 88.875C-120.156 89.3454-119.97 89.819-119.531 90.2812C-118.144 91.7416-115.821 92.3731-114 93C-110.336 94.2614-106.698 95.5577-103.031 96.8125C-91.7457 100.674-80.2807 104.278-68.5938 106.719C-65.0812 107.452-61.5502 108.016-58 108.531C-11.3558 115.299 35.873 112.525 82.8125 112.344C95.6108 112.294 108.401 112.577 121.188 113.125C142.664 114.046 164.101 115.617 185.562 116.812C219.807 118.72 254.072 120.315 288.344 121.656C322.66 122.999 356.98 124.098 391.312 124.938C401.205 125.179 411.106 125.393 421 125.594C428.261 125.741 435.525 125.826 442.781 126.125C478.743 127.607 514.525 132.855 550.562 132.594C559.829 132.527 569.089 132.124 578.344 131.688C596.999 130.808 615.646 129.357 634.25 127.75C676 124.143 717.654 119.678 759.531 117.781C789.262 116.435 819.052 115.759 848.812 116.188C855.211 116.28 861.606 116.441 868 116.688C877.332 117.047 886.691 117.46 896.031 117.125C900.98 116.948 905.898 116.499 910.812 115.906C917.293 115.124 923.757 114.134 930.125 112.688C934.55 111.682 939.011 110.499 943.156 108.625C947.135 106.826 952.023 103.834 952.125 98.9062C952.233 93.6791 946.745 92.0963 942.594 91.0625C941.752 90.8528 940.944 90.6719 940.094 90.5C939.215 90.3225 938.383 90.1494 937.5 90C933.477 89.3193 929.425 88.8959 925.375 88.4062C912.539 86.8542 899.553 86.2243 886.625 86.2812C868.016 86.3632 849.4 86.9796 830.812 87.875C805.93 89.0736 781.076 90.6854 756.156 90.8125C745.893 90.8648 735.623 90.6538 725.375 90.0938C706.991 89.0891 688.654 87.0898 670.25 86.4062C660.149 86.0311 650.045 86.0113 639.938 85.9688C622.846 85.8968 605.748 86.0351 588.656 86.125C579.144 86.1751 569.636 86.2857 560.125 86.0938C559.458 86.0803 558.792 86.0168 558.125 86C556.65 85.5666 555.194 85.0782 553.719 84.6875C544.45 82.2328 534.992 80.5476 525.531 79.0312C520.182 78.1738 514.784 77.615 509.406 76.9375C515.296 77.6818 521.166 78.4493 527.031 79.375C535.98 80.7874 544.919 82.419 553.688 84.7188C555.127 85.0964 556.561 85.5821 558 86C541.4 85.5771 524.821 84.2111 508.219 83.8438C498.194 83.6219 488.212 83.8897 478.219 84.7188C476.736 84.8424 475.626 86.1422 475.75 87.625C475.874 89.1078 477.174 90.2174 478.656 90.0938C488.462 89.2713 498.288 89.0101 508.125 89.2188C525.439 89.586 542.685 91.0727 560 91.4062C569.89 91.5968 579.796 91.4673 589.688 91.4062C606.762 91.3008 623.831 91.1631 640.906 91.2188C650.112 91.2488 659.33 91.2683 668.531 91.5625C687.42 92.1664 706.229 94.2122 725.094 95.2188C735.445 95.771 745.823 95.9725 756.188 95.9062C778.067 95.7665 799.906 94.4851 821.75 93.3438C842.292 92.2705 862.865 91.3493 883.438 91.2188C900.06 91.1133 916.614 92.0068 933.094 94.2188C936.909 94.7309 940.834 95.2722 944.469 96.5938C945.189 96.8555 945.941 97.1564 946.594 97.5625C946.784 97.681 946.959 97.8171 947.125 97.9688C947.143 97.9854 947.299 98.1616 947.281 98.125C947.275 98.1124 947.342 98.459 947.344 98.4688C947.356 98.5763 947.345 98.7038 947.344 98.8125C947.322 100.256 946.003 101.406 944.938 102.188C942.647 103.868 939.92 104.934 937.25 105.844C932.97 107.303 928.529 108.302 924.094 109.156C917.757 110.376 911.355 111.276 904.938 111.938C893.409 113.126 881.809 112.719 870.25 112.312C862.468 112.039 854.662 111.837 846.875 111.781C815.878 111.56 784.9 112.343 753.938 113.781C734.907 114.666 715.908 116.246 696.938 117.969C669.151 120.492 641.404 123.402 613.594 125.656C592.633 127.356 571.567 128.81 550.531 129.031C514.556 129.41 478.812 124.279 442.906 122.906C435.627 122.628 428.346 122.564 421.062 122.438C411.173 122.265 401.264 122.057 391.375 121.844C357.055 121.103 322.744 120.15 288.438 118.906C254.177 117.664 219.922 116.129 185.688 114.312C163.202 113.119 140.754 111.509 118.25 110.688C108.585 110.335 98.9225 110.103 89.25 110.094C40.2482 110.045-8.99153 113.629-57.7188 106.688C-61.2328 106.187-64.7414 105.654-68.2188 104.938C-79.8395 102.542-91.2433 98.9651-102.469 95.1562C-106.138 93.9113-109.771 92.6262-113.438 91.375C-114.906 90.8741-117.168 90.2663-118.312 89.0938C-118.799 88.5951-118.329 88.1781-117.938 87.7188C-117.163 86.8098-116.125 86.1476-115.062 85.625C-110.872 83.5638-105.872 83.0205-101.281 82.625C-94.4358 82.0353-87.5724 82.1784-80.7188 81.7812C-75.6094 81.4852-70.5153 80.9738-65.4062 80.6562C-57.2501 80.1493-49.0727 79.7663-40.9062 79.4688C-16.3834 78.5753 8.16295 78.0629 32.6562 76.5C59.0143 74.8181 85.3302 72.4221 111.656 70.3125C123.962 69.3264 136.275 68.4242 148.594 67.625C157.254 67.0632 165.885 66.5313 174.562 66.3125C195.187 65.7923 215.811 66.5102 236.438 66.375C246.988 66.3058 257.545 65.9453 268.094 65.75C281.441 65.5029 294.807 65.4002 308.156 65.4688C351.632 65.6919 395.069 67.5877 438.438 70.5938C460.123 72.0968 481.867 73.6521 503.469 76.1875C500.245 75.8103 497.038 75.281 493.812 74.9375C475.064 72.9407 456.273 71.5361 437.469 70.1875C394.434 67.1011 351.303 65.1685 308.156 64.8438ZM503.469 76.1875C505.45 76.4193 507.427 76.6881 509.406 76.9375C507.426 76.6872 505.452 76.4202 503.469 76.1875Z" fill="#9a8165" stroke="none"/>
</g>
<g opacity="0.718992">
<path d="M765.943 461.666C765.943 457.035 765.943 452.403 765.943 447.772" fill="#9a8165" fill-rule="evenodd" stroke="none"/>
<path d="M765.938 447.781C765.488 450.101 765.065 452.417 764.531 454.719C763.992 457.045 763.454 459.271 763.25 461.656C763.25 463.144 764.45 464.375 765.938 464.375C767.425 464.375 768.625 463.144 768.625 461.656C768.421 459.271 767.883 457.045 767.344 454.719C766.81 452.417 766.387 450.101 765.938 447.781Z" fill="#9a8165" stroke="none"/>
</g>
<g opacity="0.718992">
<path d="M-30.1692 142.343C-49.1894 146.466-58.7506 182.702-27.0949 186.108C-1.18996 188.895 25.7914 184.112 51.8125 185.182C105.718 187.396 159.784 185.17 213.726 186.108C244.254 186.638 274.375 188.918 304.931 189.35C363.619 190.178 422.517 188.368 481.192 189.35C541.366 190.357 601.329 191.183 661.552 190.276C716.981 189.441 773.494 191.717 828.589 193.981C847.328 194.751 874.827 196.857 891.1 191.665C901.999 188.189 911.541 166.074 914.67 159.71C914.89 159.263 918.828 151.961 917.744 151.374C913.695 149.178 865.056 149.408 858.308 149.521C827.785 150.032 798.394 153.476 768.128 154.615C739.909 155.678 710.253 154.662 682.047 154.152C639.687 153.387 597.252 154.983 554.975 154.152C506.483 153.199 457.983 152.62 409.458 151.837C389.123 151.508 369.337 149.033 348.996 148.595C315.542 147.875 282.046 148.326 248.569 147.205C228.736 146.542 209.015 144.817 189.132 144.427C162.119 143.896 135.173 145.5 108.175 144.89C60.8255 143.82 13.6012 132.855-30.1692 142.343Z" fill="#9a8165" fill-rule="evenodd" stroke="none"/>
<path d="M3.375 138.531C1.99687 138.569 0.627017 138.75-0.75 138.812C3.61601 138.63 7.97409 138.548 12.3438 138.594C9.35117 138.568 6.36658 138.45 3.375 138.531ZM12.3438 138.594C12.8547 138.598 13.3641 138.618 13.875 138.625C13.6456 138.621 13.4169 138.597 13.1875 138.594C12.906 138.59 12.6253 138.597 12.3438 138.594ZM13.875 138.625C37.4966 138.991 60.967 142.065 84.5 143.844C91.3899 144.364 98.3123 144.778 105.219 145C117.444 145.393 129.679 145.231 141.906 145.031C160.954 144.721 180.018 144.291 199.062 145.031C212.27 145.545 225.456 146.507 238.656 147.156C247.535 147.593 256.426 147.864 265.312 148.062C285.886 148.521 306.455 148.507 327.031 148.75C337.721 148.876 348.415 148.978 359.094 149.5C375.039 150.279 390.941 151.964 406.906 152.375C417.859 152.657 428.826 152.761 439.781 152.938C458.982 153.248 478.175 153.554 497.375 153.875C523.622 154.313 549.875 155.055 576.125 155.219C602.606 155.384 629.081 154.842 655.562 154.875C672.715 154.896 689.852 155.314 707 155.688C727.374 156.132 747.817 156.54 768.188 155.719C794.478 154.659 820.675 152.03 846.969 151.062C862.647 150.485 878.35 150.612 894.031 150.969C899.386 151.091 904.75 151.248 910.094 151.625C911.71 151.739 913.332 151.868 914.938 152.094C915.436 152.164 915.946 152.231 916.438 152.344C915.833 154.447 914.851 156.4 913.844 158.344C911.667 162.544 909.764 166.872 907.5 171.031C904.928 175.756 902.09 180.467 898.5 184.5C896.618 186.615 894.444 188.647 891.844 189.844C890.165 190.617 888.295 191.006 886.5 191.406C883.359 192.106 880.169 192.557 876.969 192.875C867.414 193.826 857.739 193.687 848.156 193.344C838.199 192.987 828.267 192.424 818.312 192C787.559 190.691 756.805 189.494 726.031 188.812C711.489 188.49 696.921 188.312 682.375 188.312C670.408 188.313 658.435 188.521 646.469 188.625C631.442 188.756 616.433 188.768 601.406 188.719C571.37 188.621 541.313 188.212 511.281 187.719C491.467 187.393 471.661 187.018 451.844 186.906C411.437 186.678 371.032 187.369 330.625 187.188C317.001 187.126 303.368 186.985 289.75 186.562C266.961 185.855 244.199 184.386 221.406 183.781C194.107 183.057 166.805 183.369 139.5 183.531C119.279 183.651 99.0318 183.716 78.8125 183.344C72.0845 183.22 65.3813 183.049 58.6562 182.812C53.1064 182.617 47.555 182.372 42 182.406C28.2021 182.492 14.4414 183.695 0.65625 184.156C-2.60717 184.265-5.85971 184.347-9.125 184.344C-11.82 184.341-14.526 184.272-17.2188 184.156C-18.8239 184.087-20.429 183.992-22.0312 183.875C-29.695 183.314-38.4155 182.207-42.7812 174.969C-43.3205 174.075-43.7523 173.143-44.0938 172.156C-46.7839 164.383-43.5313 155.116-37.7812 149.562C-36.4926 148.318-35.0596 147.205-33.4688 146.375C-32.8861 146.071-32.1794 145.759-31.5625 145.531C-31.2433 145.414-31.5533 145.558-29.5 144.969C-28.0571 144.605-27.1992 143.13-27.5625 141.688C-27.9258 140.245-29.3696 139.355-30.8125 139.719C-32.0826 140.041-31.4785 140.177-32.0938 140.062C-32.5529 139.977-32.9993 140.338-33.4375 140.5C-33.8711 140.66-34.2965 140.843-34.7188 141.031C-35.9856 141.595-37.1712 142.276-38.3125 143.062C-42.913 146.234-46.3842 150.947-48.4062 156.125C-49.5928 159.164-50.2848 162.391-50.375 165.656C-50.4391 167.977-50.1821 170.323-49.5625 172.562C-49.0596 174.381-48.3216 176.135-47.3438 177.75C-43.3139 184.404-35.8634 187.644-28.4062 188.625C-20.9416 189.607-13.3299 189.719-5.8125 189.625C10.1545 189.425 26.062 187.773 42.0312 187.656C48.0784 187.612 54.114 187.908 60.1562 188.094C68.5991 188.354 77.0537 188.554 85.5 188.656C112.508 188.984 139.492 188.584 166.5 188.438C184.756 188.339 203.03 188.324 221.281 188.781C244.068 189.352 266.842 190.78 289.625 191.438C304.511 191.867 319.389 191.932 334.281 191.938C373.463 191.952 412.662 191.098 451.844 191.219C471.647 191.28 491.418 191.674 511.219 191.938C540.019 192.32 568.822 192.57 597.625 192.594C613.919 192.607 630.238 192.515 646.531 192.312C658.487 192.164 670.418 191.92 682.375 191.875C703.298 191.795 724.241 192.091 745.156 192.625C757.362 192.937 769.548 193.33 781.75 193.75C797.733 194.3 813.74 194.902 829.719 195.562C840.071 195.99 850.416 196.574 860.781 196.531C868.389 196.5 876.054 196.201 883.562 194.906C887.254 194.27 891.269 193.603 894.531 191.656C897.68 189.777 900.234 186.994 902.469 184.125C905.71 179.963 908.371 175.353 910.812 170.688C913.061 166.391 915.146 161.996 917.25 157.625C917.932 156.207 918.575 154.759 919.031 153.25C919.161 152.821 919.283 152.358 919.281 151.906C919.278 151.217 919.043 150.721 918.5 150.281C918.2 150.038 917.711 149.909 917.344 149.812C916.101 149.487 914.806 149.346 913.531 149.219C913.195 149.185 912.868 149.154 912.531 149.125C911.826 149.064 910.985 149.016 910.281 148.969C909.436 148.912 908.628 148.857 907.781 148.812C894.714 148.121 881.582 148.148 868.5 148.188C858.757 148.217 849.045 148.468 839.312 148.969C815.554 150.191 791.865 152.471 768.094 153.5C744.78 154.509 721.382 153.928 698.062 153.469C682.126 153.155 666.189 152.927 650.25 153C625.539 153.114 600.837 153.644 576.125 153.562C562.511 153.517 548.893 153.232 535.281 153C522.146 152.776 509.011 152.62 495.875 152.438C476.673 152.171 457.483 151.914 438.281 151.656C427.835 151.516 417.382 151.428 406.938 151.188C387.601 150.742 368.336 148.611 349 148.094C336.801 147.767 324.609 147.754 312.406 147.688C291.133 147.572 269.858 147.476 248.594 146.812C235.385 146.4 222.198 145.49 209 144.844C197.326 144.272 185.626 143.971 173.938 144.062C149.072 144.257 124.171 145.52 99.3125 144.406C73.4208 143.246 47.6807 139.736 21.7812 138.688C19.1478 138.581 16.5127 138.662 13.875 138.625ZM-0.75 138.812C-2.73237 138.895-4.70853 139.08-6.6875 139.219C-4.70913 139.073-2.7321 138.903-0.75 138.812ZM-6.6875 139.219C-9.4578 139.423-12.241 139.488-15 139.812C-15.8998 139.918-16.7894 140.099-17.6875 140.219C-14.0377 139.739-10.3571 139.476-6.6875 139.219ZM-18.4062 140.312C-20.5035 140.602-22.6036 140.877-24.6875 141.25C-25.1473 141.332-25.6035 141.445-26.0625 141.531C-23.5195 141.058-20.9691 140.661-18.4062 140.312Z" fill="#9a8165" stroke="none"/>
</g>
<g opacity="0.718992">
<path d="M28.983 234.058C64.0076 234.816 99.166 227.641 133.976 224.792C158.553 222.78 183.142 220.924 207.809 220.454C235.968 219.919 264.124 219.135 292.29 219.956C295.09 220.038 297.892 220.151 300.685 220.375C303.298 220.585 308.113 218.664 308.5 221.257C308.981 224.472 304.67 226.745 301.888 228.426C296.256 231.827 288.991 231.07 282.484 232.042C251.195 236.716 219.635 239.162 188.316 243.584C156.961 248.01 125.475 253.507 93.9706 256.688C78.9562 258.205 63.7915 257.786 48.8019 259.509C34.768 261.123 8.93482 271.216-4.36633 267.76C-9.58706 266.404-10.2276 261.798-10.0233 257.097C-9.57749 246.841-2.46202 241.983 5.41145 237.204C26.5795 224.354 51.9907 222.191 76.1926 222.497" fill="#9a8165" fill-rule="evenodd" stroke="none"/>
<path d="M267.5 217.594C258.742 217.537 249.973 217.573 241.219 217.688C232.415 217.802 223.616 217.986 214.812 218.125C206.281 218.26 197.745 218.391 189.219 218.719C176.361 219.212 163.52 220.068 150.688 221C142.126 221.622 133.575 222.234 125.031 223.062C103.138 225.186 81.3712 228.646 59.4375 230.375C49.3073 231.173 39.1913 231.521 29.0312 231.375C27.5434 231.356 26.3005 232.543 26.2812 234.031C26.262 235.519 27.4497 236.731 28.9375 236.75C39.2637 236.869 49.5819 236.497 59.875 235.656C85.2396 233.584 110.355 229.249 135.719 227.156C159.226 225.217 182.729 223.408 206.312 222.719C219.723 222.327 233.149 222.098 246.562 221.844C255.345 221.677 264.122 221.574 272.906 221.594C278.177 221.606 283.449 221.646 288.719 221.75C291.739 221.809 294.764 221.841 297.781 222C299.46 222.089 301.079 222.301 302.75 222.094C304.055 221.932 305.462 221.546 306.781 221.75C306.79 221.818 306.786 221.823 306.781 221.875C306.772 221.99 306.722 222.14 306.688 222.25C306.56 222.66 306.308 223.022 306.031 223.344C305.059 224.476 303.726 225.288 302.469 226.062C301.359 226.746 300.269 227.436 299.062 227.938C296.418 229.037 293.517 229.404 290.688 229.656C288.436 229.857 286.183 229.957 283.938 230.219C282.064 230.437 280.209 230.754 278.344 231.031C274.441 231.611 270.536 232.164 266.625 232.688C257.491 233.91 248.341 234.997 239.188 236.062C219.533 238.351 199.884 240.629 180.312 243.562C151.543 247.875 122.857 252.885 93.9062 255.875C82.6534 257.037 71.314 257.184 60.0312 257.906C55.0012 258.228 49.901 258.55 44.9375 259.469C35.9045 261.14 27.1297 263.894 18.1562 265.844C13.2473 266.91 8.22076 267.845 3.1875 268C0.524242 268.082-2.3195 268.027-4.875 267.188C-9.32707 265.726-9.84308 261.202-9.65625 257.125C-9.58449 255.559-9.36832 254.009-8.9375 252.5C-7.00884 245.743-1.0809 241.552 4.59375 238.031C9.68119 234.875 15.0108 232.241 20.625 230.156C38.3458 223.576 57.4562 222.412 76.1875 222.5C56.4303 222.258 36.2032 223.419 17.6562 230.844C12.3048 232.986 7.19995 235.681 2.34375 238.781C-2.83593 242.088-7.82586 246.155-9.625 252.281C-10.1954 254.224-10.4158 256.262-10.4375 258.281C-10.4667 261.003-10.1329 264.03-8.15625 266.094C-6.49284 267.831-4.08269 268.39-1.78125 268.688C1.72556 269.14 5.28413 268.916 8.78125 268.5C21.4684 266.991 33.5797 262.592 46.1562 260.531C48.3043 260.179 50.4581 259.978 52.625 259.781C62.6396 258.872 72.6799 258.781 82.7188 258.281C89.1425 257.961 95.5439 257.378 101.938 256.688C130.898 253.56 159.606 248.641 188.469 244.781C206.093 242.424 223.791 240.552 241.469 238.656C255.246 237.179 268.987 235.497 282.719 233.656C287.176 233.059 291.701 233.17 296.125 232.312C300.278 231.507 304.28 229.449 307.531 226.75C309.069 225.474 310.371 223.673 310.312 221.594C310.27 220.101 309.445 218.785 307.969 218.344C305.89 217.722 303.722 218.425 301.625 218.562C300.418 218.641 299.202 218.42 298 218.344C296.587 218.254 295.165 218.211 293.75 218.156C285 217.817 276.258 217.651 267.5 217.594Z" fill="#9a8165" stroke="none"/>
</g>
<g opacity="0.718992">
<path d="M328.473 250.916C394.953 239.21 459.707 232.953 527.984 228.957C621.343 223.493 715.77 219.452 809.569 223.185C841.545 224.458 873.819 226.88 904.62 232.959C911.5 234.317 940.878 237.082 935.464 247.41C931.968 254.077 903.653 256.846 896.469 257.674C855.091 262.445 811.548 261.455 769.721 261.878C713.429 262.449 657.159 261.237 600.883 261.868C559.37 262.333 517.559 264.585 476.054 264.105C424.294 263.508 372.832 260.706 321.052 261.967C288.155 262.769 251.374 264.91 218.845 261.682C207.726 260.579 197.371 259.31 190.249 252.676C177.18 240.504 218.441 241.636 227.072 241.194C235.647 240.754 244.223 240.237 252.737 239.427C283.165 236.53 312.296 231.454 343.138 229.856C376.639 228.12 409.131 228.508 442.402 224.116C568.988 207.407 699.085 213.695 826.889 219.209C849.686 220.192 872.376 222.078 895.162 223.279C917.743 224.468 942.055 223.493 962.994 229.954" fill="#9a8165" fill-rule="evenodd" stroke="none"/>
<path d="M609.406 212.938C588.233 213.109 567.038 213.627 545.875 214.594C521.893 215.689 497.948 217.358 474.062 219.781C462.423 220.962 450.826 222.389 439.219 223.844C406.057 228 372.557 227.297 339.25 229.281C315.311 230.707 291.561 234.23 267.75 236.938C254.199 238.478 240.651 239.569 227.031 240.25C224.092 240.397 221.129 240.372 218.188 240.438C213.088 240.55 207.982 240.756 202.906 241.281C201.657 241.41 200.43 241.567 199.188 241.75C198.029 241.921 196.865 242.1 195.719 242.344C195 242.497 194.333 242.679 193.625 242.875C190.796 243.657 186.07 245.372 186.781 249.188C186.855 249.581 186.99 249.949 187.156 250.312C187.474 251.01 187.909 251.639 188.406 252.219C192.324 256.789 198.33 259.161 204.031 260.531C208.401 261.581 212.879 262.133 217.344 262.594C222.987 263.177 228.648 263.561 234.312 263.875C257.626 265.168 281.025 264.289 304.344 263.594C323.368 263.027 342.404 262.704 361.438 262.938C383.485 263.208 405.522 263.83 427.562 264.438C443.719 264.883 459.869 265.343 476.031 265.5C489.906 265.635 503.783 265.561 517.656 265.312C545.403 264.815 573.155 263.701 600.906 263.469C643.109 263.115 685.298 263.706 727.5 263.844C749.912 263.917 772.338 263.692 794.75 263.656C818.242 263.618 841.754 263.603 865.219 262.344C877.748 261.672 890.229 260.577 902.688 259.094C908.089 258.451 913.478 257.667 918.812 256.594C922.172 255.918 925.54 255.155 928.781 254.031C931.865 252.963 935.729 251.483 937.344 248.406C937.762 247.609 938.065 246.738 938.188 245.844C938.92 240.488 933.16 237.565 929 236C921.99 233.363 914.48 232.374 907.125 231.188C904.48 230.761 901.854 230.201 899.219 229.719C895.317 229.005 891.389 228.356 887.469 227.75C859.764 223.468 831.77 221.701 803.781 220.625C774.889 219.514 746.005 219.217 717.094 219.344C665.184 219.571 613.267 221.761 561.438 224.5C522.189 226.574 482.97 228.94 443.844 232.719C405.048 236.465 366.408 241.622 328 248.25C326.534 248.504 325.559 249.909 325.812 251.375C326.066 252.841 327.471 253.816 328.938 253.562C367.209 246.92 405.683 241.771 444.344 238C483.391 234.191 522.549 231.748 561.719 229.625C612.986 226.847 664.311 224.711 715.656 224.25C744.985 223.987 774.313 224.295 803.625 225.312C830.783 226.255 857.968 227.825 884.875 231.781C891.692 232.784 898.43 234.123 905.219 235.281C911.524 236.357 917.894 237.116 924.062 238.875C925.216 239.204 926.376 239.579 927.5 240C928.026 240.197 928.545 240.407 929.062 240.625C930.965 241.425 934.871 243.291 933.781 245.969C933.274 247.214 932.019 247.941 930.875 248.531C928.954 249.523 926.885 250.216 924.812 250.812C916.697 253.148 908.181 254.186 899.812 255.156C889.968 256.298 880.109 257.262 870.219 257.906C844.645 259.571 819.023 259.673 793.406 259.812C771.442 259.932 749.465 260.215 727.5 260.219C685.286 260.226 643.089 259.8 600.875 260.281C566.184 260.677 531.506 262.451 496.812 262.719C451.145 263.071 405.506 260.745 359.844 260.438C341.314 260.313 322.8 260.679 304.281 261.281C281.027 262.037 257.692 262.977 234.438 261.75C228.806 261.453 223.174 261.064 217.562 260.5C213.188 260.06 208.815 259.58 204.531 258.562C199.247 257.307 193.586 255.137 189.938 250.906C189.622 250.54 189.327 250.174 189.094 249.75C187.421 246.702 192.077 245.33 194.156 244.75C194.475 244.661 194.772 244.579 195.094 244.5C195.432 244.417 195.785 244.355 196.125 244.281C196.812 244.133 197.621 243.961 198.312 243.844C199.102 243.71 199.862 243.606 200.656 243.5C201.497 243.387 202.281 243.308 203.125 243.219C204.401 243.083 205.658 242.971 206.938 242.875C213.656 242.373 220.404 242.479 227.125 242.125C242.044 241.34 256.883 240.029 271.719 238.25C294.232 235.551 316.698 232.254 339.344 230.844C357.173 229.733 375.029 229.443 392.875 228.688C409.105 228 425.318 226.967 441.438 224.906C452.339 223.512 463.256 222.137 474.188 221C498.046 218.519 521.979 216.811 545.938 215.656C630.89 211.563 715.965 214.73 800.875 218.281C815.234 218.882 829.62 219.428 843.969 220.25C861.509 221.255 879.013 222.6 896.562 223.438C915.122 224.324 933.926 223.773 952.25 227.312C955.875 228.013 959.458 228.935 963 229.969C959.46 228.926 955.904 227.99 952.281 227.281C933.495 223.604 914.184 224.219 895.156 223.188C878.084 222.262 861.036 220.958 843.969 219.938C829.287 219.059 814.599 218.495 799.906 217.844C736.462 215.031 672.927 212.424 609.406 212.938Z" fill="#9a8165" stroke="none"/>
</g>
<g opacity="0.718992">
<path d="M192.844 325.688C183.911 325.642 174.986 325.772 166.062 326.188C157.638 326.58 149.218 327.257 140.812 327.938C113.224 330.172 85.6347 333.844 59.0312 341.719C57.3034 342.23 55.5575 342.756 53.8438 343.312C52.3989 343.782 50.9712 344.275 49.5625 344.844C48.4051 345.311 47.2684 345.807 46.1562 346.375C42.1957 348.397 37.4938 351.717 37.625 356.719C37.6468 357.551 37.8045 358.397 38.0625 359.188C39.8014 364.515 45.6207 367.316 50.3125 369.594C55.5094 372.117 60.9337 374.195 66.375 376.125C72.5984 378.332 78.8931 380.337 85.25 382.125C117.212 391.114 150.02 396.44 183 399.969C201.481 401.946 220.026 403.272 238.562 404.594C268.549 406.732 298.655 409.73 328.719 407.219C337.805 406.46 346.843 405.162 355.875 403.938C372.406 401.697 388.914 399.203 405.438 396.906C420.508 394.812 435.626 392.896 450.781 391.531C456.468 391.019 462.144 390.56 467.844 390.219C471.561 389.996 475.284 389.873 479 389.625C493.11 388.682 507.278 387.091 521.438 387.719C528.025 388.011 534.582 388.688 541.156 389.188C551.913 390.005 562.682 390.794 573.438 391.625C602.4 393.863 631.4 396.198 660.219 399.906C688.986 403.608 717.516 410.18 746.625 410.562C780.035 411.002 813.008 403.9 845.594 397.375C863.388 393.812 881.333 390.971 899.062 387.094C901.222 386.622 903.387 386.144 905.562 385.75C909.225 385.086 912.898 384.556 916.469 383.469C919.484 382.551 922.354 381.117 925.031 379.469C928.778 377.162 933.025 373.627 933.156 369C933.175 368.339 933.1 367.642 932.938 366.938C932.807 366.369 932.625 365.809 932.375 365.281C931.885 364.248 931.271 363.311 930.531 362.438C929.47 361.185 928.224 360.099 926.906 359.125C922.728 356.038 917.879 353.906 913.062 352.031C906.42 349.446 899.528 347.448 892.625 345.688C862.703 338.056 831.763 336.08 801 335.531C789.025 335.318 777.039 335.362 765.062 335.406C758.258 335.431 751.46 335.39 744.656 335.469C735.613 335.573 726.568 335.751 717.531 336.125C700.745 336.82 683.978 337.943 667.188 338.562C642.999 339.454 618.794 339.406 594.594 339.312C586.749 339.282 578.908 339.211 571.062 339.188C563.728 339.166 556.393 339.187 549.062 338.938C534.059 338.427 519.082 337.093 504.094 336.281C494.003 335.735 483.887 335.501 473.781 335.594C467.824 335.648 461.886 335.966 455.938 336.188C455.509 336.164 455.084 336.084 454.656 336.062C440.319 335.344 425.922 336.144 411.625 334.562C406.614 334.008 401.662 333.1 396.75 331.969C386.722 329.659 376.751 326.646 366.406 326.188C363.934 326.078 361.474 326.084 359 326.031C355.819 325.963 352.619 325.815 349.438 325.812C346.251 325.81 343.061 325.968 339.875 326.031C316.131 326.506 292.417 328.458 268.656 328.031C259.827 327.873 251.01 327.475 242.188 327.125C225.755 326.473 209.292 325.772 192.844 325.688ZM349.438 326.219C352.616 326.212 355.822 326.347 359 326.406C361.471 326.452 363.937 326.429 366.406 326.531C375.579 326.913 384.461 329.318 393.344 331.438C399.37 332.875 405.429 334.116 411.594 334.781C425.9 336.324 440.312 335.477 454.656 336.156C454.823 336.164 454.99 336.179 455.156 336.188C421.612 337.475 388.204 341.05 354.875 344.969C353.397 345.143 352.325 346.491 352.5 347.969C352.675 349.446 354.022 350.518 355.5 350.344C394.803 345.68 434.223 341.282 473.844 340.875C483.838 340.772 493.831 340.97 503.812 341.5C518.836 342.297 533.836 343.604 548.875 344.094C556.6 344.345 564.334 344.332 572.062 344.344C579.565 344.355 587.06 344.388 594.562 344.406C618.831 344.464 643.12 344.497 667.375 343.562C691.353 342.638 715.312 340.705 739.312 340.375C756.214 340.143 773.128 340.063 790.031 340.094C822.015 340.151 854.286 341.321 885.594 348.406C893.006 350.084 900.384 352.056 907.562 354.562C912.311 356.22 917.053 358.084 921.406 360.625C923.034 361.575 924.627 362.612 926.031 363.875C926.687 364.464 927.295 365.128 927.812 365.844C928.147 366.308 928.427 366.806 928.625 367.344C929.91 370.833 925.995 373.797 923.5 375.438C920.513 377.401 917.263 378.933 913.812 379.875C910.862 380.681 907.815 381.102 904.812 381.656C902.235 382.132 899.686 382.726 897.125 383.281C884.375 386.048 871.527 388.276 858.719 390.75C853.374 391.782 848.051 392.878 842.719 393.969C811.114 400.436 779.084 407.337 746.656 407.031C717.684 406.758 689.268 400.308 660.625 396.719C631.276 393.04 601.74 390.806 572.25 388.625C561.49 387.829 550.73 387.063 539.969 386.281C533.831 385.835 527.681 385.221 521.531 384.969C507.268 384.384 493.052 386.003 478.844 387C475.135 387.26 471.398 387.453 467.688 387.688C461.963 388.049 456.242 388.499 450.531 389.031C435.341 390.446 420.197 392.386 405.094 394.531C388.579 396.877 372.116 399.429 355.594 401.719C346.602 402.965 337.578 404.311 328.531 405.094C298.227 407.716 267.833 404.722 237.594 402.656C219.434 401.415 201.295 400.133 183.188 398.25C150.283 394.828 117.529 389.655 85.625 380.781C79.2928 379.02 73.0128 377.024 66.8125 374.844C61.4126 372.945 56.0655 370.894 50.9062 368.406C48.7409 367.362 46.6021 366.232 44.5938 364.906C42.2245 363.342 40.1933 361.545 39.2812 358.781C37.1999 352.474 44.1549 348.511 48.9062 346.438C49.9844 345.967 51.0809 345.555 52.1875 345.156C53.513 344.679 54.8412 344.227 56.1875 343.812C57.9369 343.274 59.7108 342.76 61.4688 342.25C87.7003 334.64 114.813 331.087 141.969 328.812C150 328.14 158.043 327.491 166.094 327.094C175.001 326.654 183.926 326.51 192.844 326.531C209.283 326.57 225.731 327.206 242.156 327.812C250.985 328.138 259.822 328.522 268.656 328.656C292.427 329.018 316.124 326.978 339.875 326.438C343.058 326.365 346.254 326.225 349.438 326.219Z" fill="#8e6e4b" stroke="none"/>
</g>
<g opacity="0.718992">
<path d="M652.701 307.07C727.16 300.24 805.989 298.823 880.675 303.483C895.197 304.389 948.548 306.259 927.662 323.48C919.285 330.387 900.475 330.453 889.623 331.449C852.46 334.858 816.312 334.767 778.947 335.013C712.652 335.451 647.071 334.623 580.827 333.029C554.599 332.398 529.009 328.3 502.891 327.003C467.181 325.231 430.936 325.723 395.179 325.948C348.308 326.244 301.183 325.974 254.343 325.363C240.812 325.186 213.013 326.573 203.609 315.986C198.379 310.097 206.013 306.05 211.488 303.867C226.386 297.927 250.623 298.122 266.594 297.824C298.555 297.227 330.132 298.361 362.071 296.115C394.841 293.81 427.251 289.128 460.046 287.325C522.516 283.891 585.085 286.06 647.646 285.466C701.123 284.958 754.468 281.563 807.97 281.497C858.553 281.435 910.126 285.153 960.493 289.047" fill="#9a8165" fill-rule="evenodd" stroke="none"/>
<path d="M814.312 281.281C760.962 280.948 707.648 284.288 654.312 284.938C586.129 285.767 517.854 282.761 449.75 287.25C417.785 289.357 386.03 293.997 354.031 295.688C335.521 296.665 316.999 296.611 298.469 296.594C284.208 296.58 269.946 296.635 255.688 296.906C247.086 297.07 238.45 297.382 229.906 298.438C223.511 299.227 217.082 300.417 211.062 302.781C210.326 303.07 209.594 303.39 208.875 303.719C204.723 305.616 198.668 309.325 201.312 314.719C201.679 315.466 202.161 316.165 202.719 316.781C207.073 321.586 213.822 323.598 220 324.75C231.797 326.951 243.842 326.494 255.781 326.656C302.245 327.287 348.719 327.662 395.188 327.469C420.625 327.363 446.065 327.126 471.5 327.656C481.929 327.874 492.367 328.128 502.781 328.75C511.435 329.267 520.089 329.957 528.719 330.781C544.96 332.332 561.184 334.216 577.5 334.812C585.145 335.092 592.789 335.259 600.438 335.438C612.822 335.727 625.208 335.981 637.594 336.219C692.066 337.264 746.551 337.442 801.031 337.156C821.374 337.05 841.711 336.83 862.031 335.812C868.205 335.503 874.368 335.123 880.531 334.656C885.619 334.271 890.691 333.786 895.781 333.438C898.671 333.24 901.586 333.029 904.469 332.75C906.292 332.573 908.092 332.38 909.906 332.125C918.292 330.946 927.9 328.767 933.125 321.406C933.767 320.501 934.304 319.503 934.625 318.438C934.867 317.632 934.985 316.779 934.938 315.938C934.636 310.575 928.365 307.931 924.062 306.531C923.143 306.232 922.058 305.904 921.125 305.656C913.365 303.599 905.262 302.749 897.281 302.062C888.298 301.29 879.285 300.787 870.281 300.312C829.342 298.154 788.326 297.591 747.344 298.75C715.656 299.646 684.045 301.593 652.469 304.375C650.987 304.506 649.9 305.83 650.031 307.312C650.163 308.795 651.455 309.881 652.938 309.75C723.515 303.45 794.526 301.57 865.312 305.188C873.207 305.591 881.111 306.003 889 306.5C897.813 307.055 906.673 307.769 915.344 309.5C916.367 309.704 917.391 309.914 918.406 310.156C919.373 310.386 920.266 310.629 921.219 310.906C922.075 311.155 922.881 311.415 923.719 311.719C924.409 311.969 925.206 312.284 925.875 312.594C927.091 313.157 929.847 314.529 929.938 316.219C929.975 316.911 929.638 317.587 929.281 318.156C926.74 322.207 921.883 324.358 917.469 325.594C909.817 327.736 901.728 328.088 893.844 328.656C889.276 328.985 884.722 329.455 880.156 329.812C872.509 330.411 864.849 330.884 857.188 331.25C837.695 332.182 818.199 332.404 798.688 332.594C749.475 333.073 700.273 332.967 651.062 332.344C635.249 332.144 619.437 331.891 603.625 331.594C594.96 331.431 586.287 331.311 577.625 331.031C561.381 330.507 545.206 328.696 529.031 327.219C520.357 326.426 511.698 325.764 503 325.281C492.165 324.68 481.286 324.464 470.438 324.281C443.884 323.833 417.335 324.247 390.781 324.438C345.307 324.764 299.816 324.538 254.344 324.094C242.308 323.976 230.046 324.585 218.219 321.906C213.336 320.8 207.498 318.909 204.219 314.875C203.857 314.43 203.534 313.937 203.312 313.406C202.057 310.399 205.571 308.107 207.781 306.875C208.244 306.617 208.68 306.389 209.156 306.156C209.843 305.821 210.545 305.513 211.25 305.219C212.086 304.87 212.926 304.549 213.781 304.25C214.76 303.908 215.753 303.597 216.75 303.312C218.151 302.912 219.546 302.562 220.969 302.25C231.95 299.839 243.328 299.395 254.531 299.125C265.854 298.852 277.206 298.709 288.531 298.656C313.086 298.542 337.612 298.691 362.125 297.031C374.748 296.177 387.356 294.844 399.938 293.531C417.59 291.689 435.229 289.788 452.938 288.562C477.403 286.87 501.95 286.299 526.469 286.062C569.094 285.652 611.72 286.491 654.344 285.844C707.676 285.034 760.932 281.546 814.281 281.719C863.098 281.876 911.845 285.401 960.5 289.062C911.849 285.254 863.136 281.586 814.312 281.281Z" fill="#9a8165" stroke="none"/>
</g>
</g>
<g clip-path="url(#ArtboardFrame)" id="Layer-3">
<path d="M-0.00479656 24.8157C27.2039 14.9216 62.499 19.8281 91.1957 19.8281C143.598 19.8281 194.901 21.7357 247.234 16.9781C268.296 15.0634 289.01 12.1298 309.935 9.14056C315.155 8.39479 320.368 7.5854 325.61 7.00305C329.386 6.5834 333.611 5.30363 337.01 7.00305" fill="none" fill-rule="evenodd" opacity="1" stroke="#8e6e4b" stroke-linecap="round" stroke-linejoin="round" stroke-width="5.92123"/>
<path d="M1.42021 42.6283C-1.63567 42.6283 11.5983 40.8776 13.5328 40.4907C20.9508 39.0071 28.8216 38.5796 36.3329 37.6407C63.1182 34.2926 89.9575 32.8538 116.846 30.5157C183.532 24.7169 249.24 16.7958 316.347 15.5531C368.137 14.594 419.869 17.1229 471.673 15.5531C534.397 13.6524 597.785 9.01474 660.487 12.7031C722.878 16.3732 785.463 17.5084 847.875 21.2531C875.179 22.8913 902.532 29.0907 929.813 29.0907" fill="none" fill-rule="evenodd" opacity="1" stroke="#8e6e4b" stroke-linecap="round" stroke-linejoin="round" stroke-width="5.92123"/>
<path d="M2.84522 54.0283C10.6976 57.9545 33.9464 54.5092 41.3204 54.0283C58.7022 52.8947 75.919 50.0455 93.3332 49.0408C151.024 45.7125 208.762 50.3659 266.472 46.9033C339.8 42.5036 413.266 43.797 486.636 41.9158C539.874 40.5507 592.96 37.1844 646.236 36.2157C684.617 35.5179 722.628 39.0552 760.95 39.7782C793.85 40.399 827.091 41.4583 859.988 40.4907C887.279 39.6881 917.679 35.0713 944.776 40.4907" fill="none" fill-rule="evenodd" opacity="1" stroke="#8e6e4b" stroke-linecap="round" stroke-linejoin="round" stroke-width="5.92123"/>
<path d="M525.823 97.4911C519.689 93.4017 532.429 94.6924 533.661 94.6411C537.465 94.4826 541.255 94.0439 545.061 93.9286C549.097 93.8063 553.136 93.9286 557.173 93.9286C561.448 93.9286 565.724 93.9286 569.999 93.9286C595.844 93.9286 621.811 92.9913 647.661 92.5035C717.53 91.1853 788.01 90.4225 857.85 93.2161C873.835 93.8554 889.568 96.0661 905.588 96.0661" fill="none" fill-rule="evenodd" opacity="1" stroke="#8e6e4b" stroke-linecap="round" stroke-linejoin="round" stroke-width="5.92123"/>
<path d="M913.426 111.741C862.895 111.741 812.931 107.201 762.375 105.329C668.675 101.858 574.715 99.4864 480.936 97.4911C431.067 96.43 381.206 91.143 331.31 89.6535C281.173 88.1569 230.411 90.5051 180.259 91.791C143.898 92.7234 107.598 94.5274 71.2456 95.3536C47.0336 95.9038 23.4024 95.1569-0.717301 97.4911C-12.208 98.6031-23.5107 99.865-34.9175 101.766C-35.5443 101.871-42.0425 103.032-42.0425 103.904C-42.0425 104.701-34.0332 106.066-29.2175 106.754C-15.5779 108.702-1.59703 109.384 12.1078 111.029C71.0032 118.096 131.735 116.862 190.946 115.304C218.998 114.565 246.947 112.838 275.022 112.454C307.847 112.004 340.524 114.132 373.347 113.166C433.066 111.41 492.457 105.202 552.186 103.904C616.978 102.495 682.029 106.079 746.7 108.891C789.552 110.754 832.114 116.724 874.95 118.866C890.476 119.642 917.457 116.804 931.238 125.991" fill="none" fill-rule="evenodd" opacity="1" stroke="#8e6e4b" stroke-linecap="round" stroke-linejoin="round" stroke-width="5.92123"/>
<path d="M638.641 558.124C632.824 556.24 628.036 551.552 624.252 546.75" fill="none" fill-rule="evenodd" opacity="1" stroke="#8e6e4b" stroke-linecap="round" stroke-linejoin="round" stroke-width="5.92123"/>
<path d="M487.305 166.725C527.632 174.087 570.74 169.635 611.349 169.304C668.205 168.84 726.307 170.027 782.745 177.44" fill="none" fill-rule="evenodd" opacity="1" stroke="#8e6e4b" stroke-linecap="round" stroke-linejoin="round" stroke-width="5.92123"/>
<path d="M668.335 186.911C686.63 183.615 709.236 186.22 728.004 186.999C765.817 188.568 802.915 192.35 840.545 196.225C863.708 198.61 888.662 195.748 911.393 199.897" fill="none" fill-rule="evenodd" opacity="1" stroke="#8e6e4b" stroke-linecap="round" stroke-linejoin="round" stroke-width="5.92123"/>
<path d="M-0.74912 235.857C15.179 235.857 30.7628 233.786 46.567 232.571C84.6838 229.639 122.717 228.628 160.914 228.628" fill="none" fill-rule="evenodd" opacity="1" stroke="#8e6e4b" stroke-linecap="round" stroke-linejoin="round" stroke-width="5.92123"/>
<path d="M-21.1214 256.229C9.05125 244.16 46.8165 250.047 78.7683 249.657C94.7597 249.462 110.755 249.444 126.742 249C181.235 247.486 238.074 238.618 292.348 246.371" fill="none" fill-rule="evenodd" opacity="1" stroke="#8e6e4b" stroke-linecap="round" stroke-linejoin="round" stroke-width="5.92123"/>
<path d="M21.5946 265.429C50.6814 277.895 87.5967 270.803 117.541 267.401C142.085 264.612 166.427 263.375 191.144 262.8C246.555 261.512 302.003 262.944 357.408 261.486C401.007 260.339 444.592 256.835 488.185 255.572C530.208 254.354 572.361 254.555 614.361 253.6C662.585 252.504 711.315 252.91 759.595 253.6C765.076 253.678 770.547 254.075 776.025 254.257C778.041 254.324 799.497 254.443 799.683 254.257C800.321 253.619 797.884 253.956 797.054 253.6C790.782 250.912 786.55 249.426 779.31 249C767.578 248.31 755.585 247.882 743.823 247.686C704.418 247.029 664.943 247.686 625.533 247.686C570.365 247.686 515.089 248.707 459.926 247.686C422.616 246.995 386.245 244.691 348.865 246.371C326.747 247.365 304.57 250.543 282.491 252.286C273.409 253.003 264.944 253.469 256.204 250.971" fill="none" fill-rule="evenodd" opacity="1" stroke="#8e6e4b" stroke-linecap="round" stroke-linejoin="round" stroke-width="5.92123"/>
<path d="M549.301 310.774C569.312 306.772 591.426 309.554 611.732 308.802C663.345 306.891 715.148 307.298 766.824 308.145C789.604 308.519 812.432 308.924 835.17 307.488C862.273 305.776 888.819 301.573 916.002 301.573" fill="none" fill-rule="evenodd" opacity="1" stroke="#8e6e4b" stroke-linecap="round" stroke-linejoin="round" stroke-width="5.92123"/>
<path d="M614.361 314.717C639.059 314.717 662.737 319.686 687.307 320.631C708.334 321.44 729.359 320.12 750.395 321.288C767.986 322.266 785.368 325.392 802.969 326.546C819.868 327.654 836.674 326.546 853.571 326.546" fill="none" fill-rule="evenodd" opacity="1" stroke="#8e6e4b" stroke-linecap="round" stroke-linejoin="round" stroke-width="5.92123"/>
<path d="M35.3952 368.605C97.7812 368.605 159.75 359.832 222.031 355.461C282.661 351.207 344.695 352.107 405.381 354.804C441.868 356.426 477.973 361.887 514.471 363.347C527.873 363.883 541.254 364.97 554.559 366.633C559.961 367.308 558.862 366.72 563.102 368.605C563.997 369.003 566.423 369.226 565.731 369.919C559.506 376.143 543.343 373.883 535.501 374.519C514.466 376.225 493.52 377.747 472.413 378.462C376.276 381.721 280.025 380.027 183.915 383.062C138.543 384.495 93.1693 388.586 47.8814 391.606C32.4507 392.634 16.7033 393.404 1.22239 392.92C-0.422354 392.869-15.0903 391.747-9.94949 388.32" fill="none" fill-rule="evenodd" opacity="1" stroke="#8e6e4b" stroke-linecap="round" stroke-linejoin="round" stroke-width="5.92123"/>
<path d="M427.068 412.635C466.474 412.635 505.895 414.988 545.358 413.949C614.934 412.118 684.069 405.346 753.681 406.063C787.218 406.409 820.702 405.406 854.228 405.406C865.008 405.406 878.14 408.236 887.743 403.435" fill="none" fill-rule="evenodd" opacity="1" stroke="#8e6e4b" stroke-linecap="round" stroke-linejoin="round" stroke-width="5.92123"/>
<path d="M621.59 384.377C706.107 384.377 790.877 386.348 875.257 386.348" fill="none" fill-rule="evenodd" opacity="1" stroke="#8e6e4b" stroke-linecap="round" stroke-linejoin="round" stroke-width="5.92123"/>
<path d="M197.716 172.111C294.21 168.784 390.139 158.311 486.87 158.311" fill="none" fill-rule="evenodd" opacity="1" stroke="#8e6e4b" stroke-linecap="round" stroke-linejoin="round" stroke-width="5.92123"/>
<path d="M278.548 183.283C304.96 181.082 331.042 182.51 357.408 181.311C398.983 179.422 440.651 177.946 482.27 176.054C561.482 172.454 640.255 172.587 719.508 174.083C764.792 174.937 810.466 180.77 855.542 184.597C873.899 186.156 892.492 187.247 910.744 189.855" fill="none" fill-rule="evenodd" opacity="1" stroke="#8e6e4b" stroke-linecap="round" stroke-linejoin="round" stroke-width="5.92123"/>
<path d="M507.9 651.187C484.445 642.166 468.716 634.048 461.241 609.128" fill="none" fill-rule="evenodd" opacity="1" stroke="#524332" stroke-linecap="round" stroke-linejoin="round" stroke-width="2.79227"/>
<path d="M0.968026 349.605C19.607 349.605 37.943 337.441 56.3554 335.599C95.5802 331.677 134.995 330.305 174.133 325.413C196.354 322.636 221.519 325.122 243.526 327.323C264.952 329.466 286.64 329.39 307.827 332.416C315.237 333.475 322.791 331.143 330.109 331.143C350.223 331.143 370.297 331.143 390.589 331.143C455.315 331.143 520.087 330.395 584.763 332.416C622.008 333.58 659.081 338.238 696.175 341.329C705.202 342.081 714.734 341.525 723.55 340.056C739.156 337.455 756.148 340.634 771.934 339.419C788.59 338.138 808.711 337.264 825.412 338.783C838.961 340.014 853.118 344.122 866.793 342.602C874.496 341.747 881.173 339.529 889.075 340.056C908.786 341.37 918.204 346.899 938.733 340.056" fill="none" fill-rule="evenodd" opacity="1" stroke="#524332" stroke-linecap="round" stroke-linejoin="round" stroke-width="2.79227"/>
<path d="M-0.316179 295.414C-0.316179 291.629 14.0445 292.411 16.5115 291.962C32.1202 289.124 47.9706 290.674 63.5425 288.079C85.8601 284.359 108.609 284.666 131.285 283.332C151.499 282.143 172.215 277.323 192.554 279.018C199.619 279.606 206.457 282.448 213.697 282.901C224.157 283.555 234.341 286.04 244.763 286.784C250.778 287.214 260.643 286.267 265.474 291.099C272.068 297.693 271.186 309.738 270.652 318.282C270.441 321.662 271.131 325.284 270.652 328.638C270.588 329.088 270.22 329.932 270.22 329.932C270.22 329.932 270.652 328.508 270.652 327.775C270.652 324.61 270.652 321.446 270.652 318.282C270.652 312.817 269.348 304.071 271.083 298.866C271.814 296.674 277.737 288.783 275.83 288.51C274.108 288.264 272.309 288.527 270.652 288.942C269.769 289.162 267.42 290.448 268.063 289.805C269.081 288.787 277.996 283.553 278.418 283.764C278.812 283.961 274.148 289.716 273.672 290.668C273.123 291.767 272.378 295.348 272.378 294.119C272.378 293.546 271.176 290.575 271.515 290.236C276.726 285.025 284.349 284.529 290.931 283.332C307.604 280.301 324.393 277.723 341.414 277.723" fill="none" fill-rule="evenodd" opacity="1" stroke="#524332" stroke-linecap="round" stroke-linejoin="round" stroke-width="2.79227"/>
<path d="M341.92 278.267C357.373 276.539 373.655 280.131 389.204 280.13C443.574 280.127 497.912 281.288 552.19 280.368C567.418 280.11 582.754 282.095 598.041 281.836C613.022 281.582 629.66 278.993 644.349 283.044C645.369 283.325 642.236 283.185 641.187 283.328C639.73 283.527 635.512 283.975 634.542 282.266C633.581 280.573 647.608 283.964 647.931 284.032C654.886 285.49 661.766 285.71 668.683 287.057C691.002 291.404 714.183 292.282 736.114 298.331C755.172 303.587 774.897 308.714 793.391 315.67C804.84 319.977 815.437 326.376 827.311 329.651C832.535 331.092 860.168 340.164 862.046 343.471" fill="none" fill-rule="evenodd" opacity="1" stroke="#524332" stroke-linecap="round" stroke-linejoin="round" stroke-width="2.79227"/>
<path d="M673.193 284.292C673.074 284.438 672.04 285.36 672.175 285.659C672.443 286.253 680.186 284.332 680.452 284.287C686.945 283.183 693.444 282.574 700.019 282.181C718.172 281.097 736.697 284.974 754.629 287.331C788.002 291.717 821.53 290.919 854.986 293.275C870.325 294.355 885.54 296.276 900.916 296.892C906.229 297.105 912.297 298.464 917.541 297.928" fill="none" fill-rule="evenodd" opacity="1" stroke="#524332" stroke-linecap="round" stroke-linejoin="round" stroke-width="2.79227"/>
<path d="M755.084 300.016C756.003 302.055 762.743 303.741 764.686 304.4C775.355 308.023 786.582 309.683 797.203 313.703C817.157 321.254 836.504 329.866 856.883 336.537C866.474 339.677 876.187 344.62 886.111 346.596C893.297 348.028 899.922 347.007 907.038 347.508C912.47 347.891 919.737 350.562 924.911 352.521" fill="none" fill-rule="evenodd" opacity="1" stroke="#524332" stroke-linecap="round" stroke-linejoin="round" stroke-width="2.79227"/>
<path d="M532.572 195.812C541.33 195.812 539.651 203.266 539.651 209.463C539.651 223.839 539.303 238.2 537.628 252.44C536.955 258.163 537.123 263.87 537.123 269.63C537.123 271.492 537.933 276.508 536.617 275.192C536.216 274.791 537.603 256.005 537.628 255.473C538.559 235.933 540.506 221.403 549.257 203.902C550.317 201.781 548.394 201.731 550.268 199.857C555.46 194.665 569.833 196.318 576.56 196.318C598.245 196.318 619.602 195.515 641.277 196.318C700.863 198.525 760.601 197.822 820.26 199.351C849.93 200.112 879.661 204.407 909.246 204.407" fill="none" fill-rule="evenodd" opacity="1" stroke="#524332" stroke-linecap="round" stroke-linejoin="round" stroke-width="2.79227"/>
<path d="M542.179 211.486C541.28 208.789 542.401 204.559 540.662 202.385C530.536 189.728 508.558 193.284 494.146 193.284C454.657 193.284 415.302 197.328 375.835 198.846C360.283 199.444 344.207 196.922 328.814 198.846C323.173 199.551 317.701 200.835 312.129 201.879C310.958 202.099 309.763 202.172 308.59 202.385C307.907 202.509 305.946 203.201 306.568 202.891C315.85 198.25 328.447 199.641 338.421 198.34C381.006 192.786 423.88 201.397 466.844 199.351C502.514 197.653 538.278 193.555 574.032 191.767C608.269 190.055 642.505 194.801 676.669 194.801C735.448 194.801 794.519 194.939 853.124 198.846C863.828 199.559 873.519 195.665 883.966 196.318C899.574 197.293 915.436 201.374 930.987 201.374" fill="none" fill-rule="evenodd" opacity="1" stroke="#524332" stroke-linecap="round" stroke-linejoin="round" stroke-width="2.79227"/>
<path d="M524.669 488.293C529.743 485.979 534.031 482.033 537.796 477.919" fill="none" fill-rule="evenodd" opacity="1" stroke="#524332" stroke-linecap="round" stroke-linejoin="round" stroke-width="2.79227"/>
<path d="M309.969 201.393C285.534 197.979 260.919 205.218 236.376 203.85C228.595 203.417 209.226 202.603 203.756 209.378C201.502 212.17 201.43 218.383 200.448 221.655C196.988 233.188 195.022 245.3 193.347 257.288C193.223 258.176 190.427 271.212 190.862 271.272C192.529 271.505 191.784 264.722 191.796 260.787C191.839 247.931 193.402 235.031 192.941 222.199C192.765 217.275 192.964 212.263 192.895 207.33C192.873 205.744 193.735 201.15 193.029 202.572C189.492 209.702 192.358 224.036 191.559 232.091C190.914 238.596 190.003 245.033 189.909 251.5C189.858 255.008 189.302 258.492 188.975 261.985C186.908 284.059 195.814 274.645 196.191 263.524C196.597 251.583 194.524 239.88 195.338 227.842C195.741 221.875 195.942 215.915 196.769 209.995C196.818 209.648 197.204 209.152 196.915 208.953C196.303 208.533 170.258 206.291 167.093 205.849C129.992 200.665 92.3841 210.243 54.9962 210.358C41.1735 210.401 26.1071 209.675 12.3999 211.307C4.64205 212.231-3.06746 216.047-10.933 214.948C-11.4536 214.875-12.4392 215.252-12.4949 214.73C-12.699 212.814-9.92487 212.376-8.93464 212.042" fill="none" fill-rule="evenodd" opacity="1" stroke="#524332" stroke-linecap="round" stroke-linejoin="round" stroke-width="2.79227"/>
<path d="M53.8823 138.545C51.6239 154.71 52.4127 170.363 50.9077 186.432C50.4831 190.965 49.345 196.075 49.9851 200.634C50.2335 202.404 49.5047 207.587 50.299 205.986C53.5065 199.521 50.6888 190.558 50.7507 183.756C50.8504 172.814 51.9421 162.008 54.2191 151.331C54.9032 148.123 56.1856 142.861 58.8704 140.834C68.2665 133.742 96.89 133.938 107.921 135.479C113.46 136.252 119.153 136.338 124.727 136.765C125.95 136.859 127.156 137.104 128.371 137.274C129.065 137.371 131.013 137.143 130.454 137.565C127.857 139.525 109.385 137.509 105.548 137.27C85.2423 136.009 64.9081 138.44 44.5109 137.236C42.4076 137.112 8.02889 135.037 13.3685 139.785" fill="none" fill-rule="evenodd" opacity="1" stroke="#524332" stroke-linecap="round" stroke-linejoin="round" stroke-width="2.79227"/>
<path d="M717.233 74.9551C717.233 92.3205 711.523 108.843 711.523 126.349C711.523 131.583 711.523 136.818 711.523 142.053C711.523 143.956 711.523 145.859 711.523 147.763C711.523 148.715 711.523 151.57 711.523 150.618C711.523 132.376 714.007 114.358 715.805 96.3691C716.319 91.237 716.629 80.9948 720.088 76.3827C721.516 74.4792 726.054 68.9898 724.371 70.6722C722.409 72.6343 721.329 80.2921 720.088 77.8103C719.237 76.1077 719.237 73.8024 720.088 72.0998C724.439 63.3993 748.509 65.6888 755.778 64.9618C789.291 61.6106 823.232 59.2514 857.138 59.2514C868.472 59.2514 924.376 60.8196 931.374 67.817C933.393 69.836 925.646 68.1323 922.808 67.817C916.498 67.1159 910.512 64.578 904.249 63.5342C885.191 60.3577 862.06 62.1066 842.862 62.1066C781.5 62.1066 721.489 64.9618 660.129 64.9618C646.098 64.9618 632.513 63.8297 618.728 62.1066C615.389 61.6892 610.24 57.6693 608.735 60.679C607.186 63.7776 615.264 63.5342 618.728 63.5342C626.342 63.5342 633.956 63.5342 641.57 63.5342C664.406 63.5342 694.085 52.5972 714.378 67.817C721.188 72.925 716.927 126.655 710.095 133.487C705.269 138.313 693.185 141.175 687.253 139.197C685.234 138.524 679.639 137.294 681.543 136.342C689.152 132.538 722.944 137.77 732.937 137.77C750.924 137.77 768.055 140.443 785.758 142.053C812.369 144.472 840.367 142.053 867.132 142.053C875.457 142.053 924.389 146.029 927.091 140.625" fill="none" fill-rule="evenodd" opacity="1" stroke="#524332" stroke-linecap="round" stroke-linejoin="round" stroke-width="2.79227"/>
<path d="M220.426 2.14718C219.435 8.09735 218.516 58.307 214.716 62.1066C207.599 69.2237 191.428 60.1535 183.309 59.2514C151.063 55.6686 115.945 63.5342 83.3762 63.5342C58.6311 63.5342 33.8859 63.5342 9.14077 63.5342C3.95751 63.5342-6.31665 62.5492-7.9905 69.2446C-8.22133 70.168-8.78239 71.5719-7.9905 72.0998C5.72057 81.2406 65.9282 73.5274 81.9486 73.5274C119.402 73.5274 156.867 83.2234 194.729 79.2379C208.971 77.7388 222.055 71.5905 236.13 69.2446C254.696 66.1503 274.56 64.8681 293.234 63.5342C358.752 58.8544 424.614 66.9884 490.244 63.5342C537.199 61.0629 584.493 62.1066 631.577 62.1066C670.499 62.1066 710.133 60.5721 748.64 63.5342C816.296 68.7385 886.308 63.5342 954.216 63.5342" fill="none" fill-rule="evenodd" opacity="1" stroke="#524332" stroke-linecap="round" stroke-linejoin="round" stroke-width="2.79227"/>
<path d="M15.4128 84.7286C14.9909 81.1478 24.0165 85.0899 27.4583 85.3056C34.0388 85.7178 37.4236 85.1295 44.3101 84.3181C63.509 82.056 80.8372 82.0661 100.02 82.7447C123.535 83.5767 146.705 77.1024 170.148 76.4781C194.332 75.8341 218.7 75.8904 242.942 75.8862C280.671 75.8796 318.633 73.5426 356.562 74.4764C390.99 75.3239 425.245 77.7234 459.701 77.2959C499.266 76.8049 538.271 73.0508 577.895 72.3527C612.176 71.7487 646.263 72.9353 680.686 72.2188C739.579 70.993 797.937 72.1992 856.735 75.4309C877.523 76.5734 897.978 76.3622 918.815 77.0994C922.131 77.2167 949.897 77.3945 938.448 82.7711" fill="none" fill-rule="evenodd" opacity="0.314973" stroke="#524332" stroke-linecap="round" stroke-linejoin="round" stroke-width="17.9509"/>
<path d="M726.263 77.8281C728.271 94.8715 721.033 113.705 720.597 131.396C720.59 131.696 719.715 138.131 720.541 139.388C722.194 141.907 746.091 135.379 750.943 134.808C772.563 132.26 793.498 135.109 814.876 135.26C825.227 135.333 835.363 133.91 845.742 134.617C870.727 136.321 894.91 135.98 919.868 136.863C923.281 136.984 941.067 135.584 939.269 140.566" fill="none" fill-rule="evenodd" opacity="0.314973" stroke="#524332" stroke-linecap="round" stroke-linejoin="round" stroke-width="17.9509"/>
<path d="M7.61748 213.407C18.4047 218.896 36.094 217.543 48.0398 217.627C80.7163 217.858 112.704 212.977 145.445 214.136C149.788 214.289 154.135 214.358 158.475 214.597C162.274 214.806 189.08 215.991 189.052 219.977C188.969 231.744 182.854 243.788 182.283 255.709C181.911 263.475 183.859 276.635 180.609 283.854C178.746 287.99 140.847 276.169 133.7 275.407C105.231 272.372 76.4862 275.844 48.1082 277.507C31.4262 278.484 13.2151 280.995-3.43162 280.585C-14.0523 280.324-20.4589 280.083-20.5154 279.604C-20.786 277.307-15.9212 279.062-13.6242 278.792" fill="none" fill-rule="evenodd" opacity="0.314973" stroke="#524332" stroke-linecap="round" stroke-linejoin="round" stroke-width="17.9509"/>
<path d="M283.001 322.694C263.62 281.423 297.133 281.104 329.553 277.284C346.057 275.339 362.546 275.348 379.124 274.437C386.06 274.056 392.969 272.815 399.914 272.986C412.247 273.29 424.583 273.747 436.919 273.616C499.947 272.952 562.977 276.1 625.765 275.321C659.26 274.905 693.043 272.514 726.471 274.434C757.24 276.202 788.112 280.027 819.013 280.499C852.535 281.01 885.477 277.869 918.967 281.697C931.255 283.102 943.65 282.122 955.451 286.381" fill="none" fill-rule="evenodd" opacity="0.314973" stroke="#524332" stroke-linecap="round" stroke-linejoin="round" stroke-width="17.9509"/>
<path d="M282.076 331.786C327.335 333.954 373.449 323.518 418.975 324.639C463.344 325.731 507.963 329.893 552.344 329.885C589.428 329.879 626.645 326.984 663.763 326.738C686.476 326.588 709.263 329.016 731.866 328.695C785.284 327.937 838.482 327.746 891.816 330.81C899.112 331.229 907.705 329.846 914.806 331.096C921.191 332.219 927.619 334.752 934.207 334.798C940.313 334.842 948.142 333.23 954.244 335.432" fill="none" fill-rule="evenodd" opacity="0.314973" stroke="#524332" stroke-linecap="round" stroke-linejoin="round" stroke-width="17.9509"/>
</g>
</svg>
