<?xml version="1.0" encoding="UTF-8" standalone="no"?>
<!DOCTYPE svg PUBLIC "-//W3C//DTD SVG 1.1//EN" "http://www.w3.org/Graphics/SVG/1.1/DTD/svg11.dtd">

<!-- Created with Vectornator (http://vectornator.io/) -->
<svg height="100%" stroke-miterlimit="10" style="fill-rule:nonzero;clip-rule:evenodd;stroke-linecap:round;stroke-linejoin:round;" version="1.1" viewBox="0 0 1024 1024" width="100%" xml:space="preserve" xmlns="http://www.w3.org/2000/svg" xmlns:vectornator="http://vectornator.io" xmlns:xlink="http://www.w3.org/1999/xlink">
<metadata>
<vectornator:setting key="IsTimeLapseWatermarkDisabled" value="false"/>
<vectornator:setting key="UndoHistoryDisabled" value="true"/>
<vectornator:setting key="VNDimensionsVisible" value="true"/>
<vectornator:setting key="VNSnapToGuides" value="true"/>
<vectornator:setting key="WDCMYKEnabledKey" value="false"/>
<vectornator:setting key="WDDisplayWhiteBackground" value="false"/>
<vectornator:setting key="WDDynamicGuides" value="false"/>
<vectornator:setting key="WDGuidesVisible" value="true"/>
<vectornator:setting key="WDIsolateActiveLayer" value="false"/>
<vectornator:setting key="WDOutlineMode" value="false"/>
<vectornator:setting key="WDRulersVisible" value="true"/>
<vectornator:setting key="WDSnapToEdges" value="false"/>
<vectornator:setting key="WDSnapToGrid" value="false"/>
<vectornator:setting key="WDSnapToPoints" value="false"/>
<vectornator:setting key="WDUnits" value="Pixels"/>
</metadata>
<defs/>
<clipPath id="ArtboardFrame">
<rect height="1024" width="1024" x="0" y="0"/>
</clipPath>
<g clip-path="url(#ArtboardFrame)" id="Layer-1" vectornator:layerName="Layer 1">
<path d="M-95.1559 592.422C-95.1559 582.729-97.1811 571.021-93.9281 561.727C-91.5898 555.046-88.0266 548.577-84.1055 542.695C-81.3566 538.572-76.3391 534.093-74.8969 529.189C-74.1404 526.618-74.283 521.63-74.283 518.753C-74.283 516.502-73.6116 514.149-74.283 512C-74.7146 510.619-76.6234 510.18-77.3525 508.93C-78.6969 506.626-79.5664 503.844-81.6499 502.177" fill="#f6ffbc" fill-rule="evenodd" opacity="0.992248" stroke="#697447" stroke-linecap="round" stroke-linejoin="round" stroke-width="8.60389"/>
<path d="M279.682 787.004C280.023 788.367 281.162 790.951 281.162 790.951C281.162 790.951 279.035 787.837 277.709 786.511C277.051 785.853 276.354 785.233 275.736 784.538C272.642 781.058 269.383 777.724 266.363 774.179C260.508 767.305 253.798 758.94 250.085 750.501C245.417 739.892 241.621 728.992 236.766 718.437C233.275 710.847 228.495 703.552 225.42 695.745C219.43 680.54 214.89 664.643 210.621 648.882C200.182 610.339 195.177 571.801 193.849 531.972C193.5 521.501 194.102 511.216 195.822 500.894C196.15 498.928 196.215 493.595 197.795 492.015C198.876 490.934 200.53 491.937 201.742 491.028C205.491 488.216 204.732 484.424 210.621 485.602C216.155 486.709 220.645 496 227.393 493.001C230.265 491.725 229.681 488.404 232.326 487.082C232.932 486.779 233.778 488.009 234.299 487.575C235.098 486.909 234.821 485.546 235.286 484.615C239.954 475.28 242.257 466.2 246.138 456.498C248.482 450.639 251.792 444.925 254.524 439.232C261.468 424.767 268.674 410.912 276.229 396.809C279.517 390.672 282.313 384.148 286.588 378.557C289.665 374.534 294.402 371.757 297.441 367.705C301.942 361.703 309.987 349.391 319.146 351.426C327.264 353.23 334.243 362.231 341.344 366.225C348.094 370.022 353.658 374.52 359.596 379.544C361.792 381.402 364.576 382.428 366.995 383.983C374.307 388.684 381.966 397.56 386.727 404.702C397.941 421.524 404.791 440.417 412.378 458.964C415.958 467.714 420.032 476.007 422.737 485.109C426.368 497.32 428.192 510.132 432.603 522.106C436.818 533.545 440.294 545.364 444.936 556.636C449.52 567.769 454.083 578.337 456.775 590.18C469.543 646.362 456.827 709.816 422.244 755.927C409.557 772.843 394.69 791.162 375.381 800.817C365.006 806.004 354.432 807.118 343.317 809.203C332.144 811.297 323.034 813.647 312.24 809.203C304.969 806.209 296.811 805.145 289.055 803.776C285.708 803.186 281.162 802.978 281.162 798.35" fill="#f6ffbc" fill-rule="evenodd" opacity="0.992248" stroke="#697447" stroke-linecap="round" stroke-linejoin="round" stroke-width="8.60389"/>
<path d="M469.996 629.81C473.958 614.757 473.247 597.684 476.074 582.2C482.924 544.687 497.401 509.225 502.051 471.257C502.961 463.825 501.363 455.97 502.33 448.742C503.229 442.023 505.577 435.518 505.984 428.73C506.58 418.807 504.62 408.061 505.232 397.876C506.752 372.565 515.318 347.533 519.413 322.55C522.195 305.574 521.889 288.322 524.022 271.327C526.482 251.725 530.115 232.858 535.144 213.751C543.704 181.232 561.977 146.927 581.728 119.526C585.539 114.238 600.391 96.2031 609.049 98.4821C616.24 100.375 629.512 124.269 632.117 130.369C634.964 137.034 637.503 144.277 638.668 151.455C642.993 178.117 640.541 206.688 637.273 233.373C626.961 317.574 596.952 396.714 557.682 471.38C546.976 491.736 534.49 515.9 517.573 531.813C509.731 539.189 500.061 543.727 491.801 550.038C490.944 550.692 486.983 556.988 486.598 557.542C478.05 569.874 470.944 583.917 473.214 599.195" fill="#f6ffbc" fill-rule="evenodd" opacity="0.992248" stroke="#697447" stroke-linecap="round" stroke-linejoin="round" stroke-width="8.60389"/>
<path d="M443.212 809.951C449.24 784.732 456.36 757.17 468.088 733.895C493.207 684.042 529.917 641.085 570.065 602.668C579.089 594.032 587.053 583.795 596.701 575.828C630.79 547.679 667.252 520.878 707.319 501.867C741.717 485.547 778.247 467.909 816.356 462.66C826.731 461.23 847.29 458.097 854.654 468.792C859.906 476.421 857.423 490.609 856.36 499.157C853.769 519.997 847.79 540.522 845.182 561.497C842.987 579.153 840.724 597.303 835.854 614.474C830.975 631.678 821.6 646.679 813.448 662.398C793.65 700.574 762.982 736.965 721.989 753.132C688.193 766.459 649.241 770.164 613.36 772.518C572.895 775.171 530.477 768.282 491.567 782.043C480.806 785.849 465.964 795.279 456.829 802.393C452.944 805.419 450.027 807.317 445.699 809.233C444.309 809.848 440.744 812.126 441.399 810.754C441.683 810.157 443.058 810.594 443.212 809.951Z" fill="#f6ffbc" fill-rule="evenodd" opacity="0.992248" stroke="#697447" stroke-linecap="round" stroke-linejoin="round" stroke-width="8.60389"/>
<path d="M499.522 428.745C499.826 429.1 500.155 430.194 499.691 430.137C498.737 430.018 498.786 428.275 497.918 427.86C490.85 424.485 484.618 419.251 478.341 414.461C466.104 405.124 453.353 394.506 441.63 384.541C436.105 379.845 432.161 374.654 427.028 369.706C406.69 350.094 386.139 333.423 371.572 308.673C363.621 295.164 360.94 279.522 355.771 264.906C352.1 254.528 351.571 244.249 350.774 233.448C350.64 231.631 349.779 225.242 351.949 224C358.13 220.463 367.758 229.574 371.355 233.266C383.332 245.56 394.717 257.128 405.793 270.441C430.594 300.251 461.422 323.817 479.064 359.044C485.663 372.221 489.702 388.972 492.757 403.234C494.463 411.198 493.937 422.225 499.522 428.745Z" fill="#f6ffbc" fill-rule="evenodd" opacity="0.992248" stroke="#697447" stroke-linecap="round" stroke-linejoin="round" stroke-width="8.60389"/>
<path d="M447.139 721.329C447.139 752.261 443.873 783.252 445.281 814.218C446.078 831.753 448.147 849.455 450.235 866.855C451.982 881.414 452.817 899.011 458.285 912.68C461.073 919.649 461.693 927.629 463.239 934.974C465.302 944.77 467.961 954.325 470.051 964.079C470.721 967.206 474.129 974.863 471.29 977.702C469.421 979.572 468.07 977.393 466.955 976.464C460.807 971.34 457.461 969.246 455.808 960.982C450.626 935.072 446.843 909.21 442.804 882.956C440.807 869.979 438.943 857.062 437.85 843.943C436.961 833.283 438.612 822.412 437.85 811.741C436.199 788.629 434.652 763.427 438.469 740.526C439.425 734.79 441.835 728.998 442.804 723.187C444.285 714.3 446.137 705.994 450.235 697.797" fill="none" fill-rule="evenodd" opacity="0.992248" stroke="#697447" stroke-linecap="round" stroke-linejoin="round" stroke-width="8.60389"/>
<path d="M210.001 497.695C211.3 508.682 217.731 518.06 221.336 528.37C229.633 552.101 241.022 574.515 250.304 597.868C256.691 613.938 260.689 630.886 267.359 646.839C284.229 687.191 304.343 727.121 327.484 764.233C334 774.684 342.899 783.158 350.959 792.287C354.05 795.788 356.731 800.838 360.596 803.598C366.033 807.48 372.711 809.95 378.351 813.356C389.915 820.341 400.64 831.3 410.596 840.373C425.927 854.344 437.589 872.792 453.893 885.648" fill="none" fill-rule="evenodd" opacity="0.992248" stroke="#697447" stroke-linecap="round" stroke-linejoin="round" stroke-width="8.60389"/>
<path d="M318.786 359.736C321.264 380.697 320.557 402.579 319.82 423.644C319.229 440.57 319.802 457.405 318.096 474.242C317.449 480.625 315.386 486.419 313.738 492.543C309.629 507.816 306.45 523.793 303.859 539.363C299.184 567.465 301.112 596.345 296.72 624.395C295.073 634.913 290.892 644.551 289.068 654.944C287.602 663.293 287.052 672.824 286.847 681.293C286.707 687.088 286.174 700.584 293.945 701.204" fill="none" fill-rule="evenodd" opacity="0.992248" stroke="#697447" stroke-linecap="round" stroke-linejoin="round" stroke-width="8.60389"/>
<path d="M457.498 798.683C450.243 783.968 462.456 766.129 471.063 754.786C489.824 730.061 515.36 706.576 540.572 688.648C609.137 639.893 680.43 594.976 751.574 550.082C777.808 533.528 802.683 514.927 824.714 492.999C833.561 484.193 842.039 477.012 847.424 465.284" fill="none" fill-rule="evenodd" opacity="0.992248" stroke="#697447" stroke-linecap="round" stroke-linejoin="round" stroke-width="8.60389"/>
<path d="M607.243 101.982C602.116 102.685 599.475 120.203 597.817 123.815C585.424 150.806 573.347 177.142 567.837 206.506C565.196 220.585 565.071 234.805 562.914 248.979C558.224 279.803 550.833 310.899 544.058 341.37C538.984 364.188 536.14 387.63 531.823 410.64C527.763 432.278 526.137 454.949 520.278 476.234C516.472 490.06 510.486 504.328 504.92 517.51C499.849 529.522 492.226 540.537 489.793 553.5" fill="none" fill-rule="evenodd" opacity="0.992248" stroke="#697447" stroke-linecap="round" stroke-linejoin="round" stroke-width="8.60389"/>
<path d="M458.718 783.389C465.56 774.266 474.47 766.202 482.397 758.274C500.451 740.221 519.334 723.43 540.519 708.763C550.768 701.668 561.922 696.165 572.091 688.672C591.081 674.68 608.758 658.786 627.343 644.184C646.966 628.765 668.449 615.296 689.052 601.131C712.526 584.992 735.035 567.648 758.655 551.619C777.597 538.766 796.642 524.247 813.907 509.284C818.945 504.917 837.36 488.475 844.044 488.475C847.511 488.475 839.873 507.176 839.021 511.436C835.976 526.663 831.294 541.462 828.258 556.642C826.607 564.898 825.717 573.69 823.235 581.757C820.876 589.421 816.999 596.656 813.907 604.001C808.262 617.407 803.781 632.303 800.273 646.336C796.713 660.575 798.765 677.792 790.945 690.825C784.385 701.758 773.702 715.235 762.96 722.397C746.411 733.43 726.316 738.341 707.709 743.923C702.816 745.391 698.193 748.052 693.358 749.664C652.285 763.355 609.474 774.568 566.351 777.648C547.976 778.961 529.555 780.868 511.099 781.954C501.5 782.518 493.017 783.197 483.832 786.259C476.178 788.81 465.125 792.084 460.871 799.175" fill="#9ea764" fill-rule="evenodd" opacity="0.574469" stroke="#697447" stroke-linecap="round" stroke-linejoin="round" stroke-width="8.60389"/>
<path d="M225.514 520.765C225.514 501.292 234.181 483.339 242.735 466.231C248.051 455.598 250.611 443.69 256.368 433.223C264.122 419.125 273.546 405.205 282.2 391.605C288.536 381.65 296.849 373.795 303.727 364.338C303.979 363.992 307.994 358.812 308.75 359.315C312.079 361.535 312.461 374.854 313.055 377.972C316.851 397.899 317.57 413.552 316.643 433.941C315.297 463.555 308.497 491.806 302.292 520.765C297.768 541.875 298.323 563.965 295.116 585.344C293.379 596.925 290.579 608.26 288.658 619.787C286.412 633.262 285.584 647.145 284.353 660.687C283.912 665.537 286.188 673.203 282.2 677.191C278.974 680.417 269.445 663.502 268.567 662.122C257.266 644.364 252.329 623.556 247.04 603.283C244.401 593.166 240.962 583.275 238.43 573.146C234.397 557.016 231.766 541.122 224.796 525.788C221.383 518.279 206.908 507.03 211.163 498.521" fill="#9ea764" fill-rule="evenodd" opacity="0.574469" stroke="#697447" stroke-linecap="round" stroke-linejoin="round" stroke-width="8.60389"/>
<path d="M343.192 781.954C338.167 751.803 336.807 723.442 340.322 692.977C342.028 678.195 347.124 663.961 351.803 649.924C362.909 616.606 375.157 584.12 388.398 551.619C394.536 536.553 399.037 521.014 406.337 506.414C407.95 503.188 413.61 493.68 418.535 495.65C423.942 497.813 426.44 507.173 427.863 512.154C431.853 526.116 436.114 540.843 437.909 555.207C438.904 563.167 441.412 570.861 442.214 578.886C443.122 587.958 443.797 597.305 446.52 606.153C452.575 625.833 458.718 644.023 458.718 664.993C458.718 682.461 450.388 701.672 442.214 716.656C426.922 744.693 402.137 765.831 379.07 786.977C375.092 790.623 363.929 803.408 369.742 809.221" fill="#9ea764" fill-rule="evenodd" opacity="0.574469" stroke="#697447" stroke-linecap="round" stroke-linejoin="round" stroke-width="8.60389"/>
<path d="M353.956 805.274C354.461 804.699 354.631 803.575 355.391 803.48C356.062 803.396 356.826 805.592 356.826 804.915C356.826 801.797 353.429 799.683 351.803 797.022C345.958 787.458 340.81 780.452 333.864 771.19C312.536 742.753 290.811 715.27 270.719 685.802C252.712 659.39 237.981 631.524 221.926 604.001C220.91 602.259 209.885 585.904 206.14 589.65C203.458 592.332 204.705 599.042 204.705 602.566C204.705 615.873 205.974 628.778 206.857 642.031C209.453 680.96 226.736 720.917 249.91 751.816C260.468 765.893 268.619 781.793 282.2 793.435C287.763 798.203 292.809 804.479 299.422 807.786C311.991 814.07 329.407 812.552 342.475 809.938C347.855 808.862 350.207 809.544 353.956 805.274Z" fill="#9ea764" fill-rule="evenodd" opacity="0.574469" stroke="#697447" stroke-linecap="round" stroke-linejoin="round" stroke-width="8.60389"/>
<path d="M545.646 347.467C548.008 344.341 548.104 340.557 549.299 337.015C552.64 327.116 556.788 315.781 561.76 306.795C565.839 299.423 571.604 292.752 575.994 285.466C585.923 268.992 595.243 252.13 606.52 236.341C616.227 222.75 623.168 202.5 642.556 203.65C646.624 203.891 641.514 224.865 640.428 228.939C634.418 251.498 626.648 273.925 619.397 296.094C610.213 324.169 608.198 354.164 597.467 381.917C588.75 404.462 576.109 425.63 564.849 446.921C556.543 462.625 550.055 478.63 540.731 493.811C533.873 504.977 524.431 513.634 516.377 523.534C513.462 527.117 512.298 531.745 509.106 535.026C501.732 542.606 509.732 519.623 510.985 515.684C512.094 512.198 512.834 508.604 513.811 505.079C517.807 490.658 521.682 476.328 525.266 461.83C530.563 440.403 539.47 419.473 541.545 397.218C542.336 388.734 542.124 379.626 542.998 370.947C543.498 365.988 545.557 361.026 545.765 356.05C546.237 344.735 546.462 332.029 553.721 322.425" fill="#9ea764" fill-rule="evenodd" opacity="0.574469" stroke="#697447" stroke-linecap="round" stroke-linejoin="round" stroke-width="8.60389"/>
<path d="M342.881 681.157C349.45 673.87 354.126 665.318 359.975 657.491C379.924 630.795 402.522 605.928 428.09 584.596" fill="none" fill-rule="evenodd" opacity="0.574469" stroke="#697447" stroke-linecap="round" stroke-linejoin="round" stroke-width="8.60389"/>
<path d="M343.282 709.821C348.904 698.771 357.388 688.291 365.303 678.91C387.617 652.462 416.856 628.184 447.447 611.555" fill="none" fill-rule="evenodd" opacity="0.574469" stroke="#697447" stroke-linecap="round" stroke-linejoin="round" stroke-width="8.60389"/>
<path d="M342.152 755.439C363.364 721.131 389.65 691.602 422.319 667.397C432.603 659.777 445.367 651.413 457.522 646.649" fill="none" fill-rule="evenodd" opacity="0.574469" stroke="#697447" stroke-linecap="round" stroke-linejoin="round" stroke-width="8.60389"/>
<path d="M362.082 776.041C378.566 747.033 408.306 726.647 435.287 708.306C440.639 704.668 446.269 701.495 451.231 697.355" fill="none" fill-rule="evenodd" opacity="0.574469" stroke="#697447" stroke-linecap="round" stroke-linejoin="round" stroke-width="8.60389"/>
<path d="M370.925 394.414C372.647 400.177 370.507 408.501 369.973 414.411C368.565 429.987 364.727 443.913 359.556 458.763C349.858 486.613 337.21 514.115 322.344 539.577C315.056 552.06 308.376 564.594 301.83 577.462C298.45 584.104 294.927 591.078 293.519 598.502C292.3 604.932 292.311 611.871 291.72 618.423C291.176 624.442 289.978 630.687 290.921 636.724" fill="none" fill-rule="evenodd" opacity="0.574469" stroke="#697447" stroke-linecap="round" stroke-linejoin="round" stroke-width="8.60389"/>
<path d="M399.266 435.431C403.093 440.019 398.551 455.621 396.892 461.709C391.692 480.791 385.107 498.916 376.541 516.7C352.96 565.656 318.547 611.076 310.895 666.302C308.348 684.678 305.597 702.332 312.465 719.856" fill="none" fill-rule="evenodd" opacity="0.574469" stroke="#697447" stroke-linecap="round" stroke-linejoin="round" stroke-width="8.60389"/>
<path d="M200.491 559.332C211.545 564.162 242.184 575.521 240.808 590.749" fill="none" fill-rule="evenodd" opacity="0.574469" stroke="#697447" stroke-linecap="round" stroke-linejoin="round" stroke-width="8.60389"/>
<path d="M490.396 758.145C496.098 756.294 506.051 761.405 511.383 762.365C522.348 764.341 533.58 764.82 544.697 765.281C561.234 765.966 577.994 766.822 594.541 766.998C607.614 767.136 620.646 765.719 633.711 766.05C641.773 766.254 649.871 767.301 657.899 766.534C664.538 765.899 670.975 762.94 677.474 762.63" fill="none" fill-rule="evenodd" opacity="0.574469" stroke="#697447" stroke-linecap="round" stroke-linejoin="round" stroke-width="8.60389"/>
<path d="M541.519 709.424C557.179 711.787 572.287 718.983 587.356 723.722C611.185 731.216 635.292 737.543 658.947 745.596C676.338 751.516 697.205 759.657 715.749 753.636" fill="none" fill-rule="evenodd" opacity="0.574469" stroke="#697447" stroke-linecap="round" stroke-linejoin="round" stroke-width="8.60389"/>
<path d="M608.296 658.318C611.014 658.728 613.194 660.815 615.643 662.063C626.6 667.649 637.858 673.091 649.075 678.182C672.494 688.81 696.796 697.855 719.782 709.415C729.102 714.103 737.615 720.904 747.619 724.162" fill="none" fill-rule="evenodd" opacity="0.574469" stroke="#697447" stroke-linecap="round" stroke-linejoin="round" stroke-width="8.60389"/>
<path d="M657.475 622.489C663.969 628.391 675.978 633.796 683.017 638.472C700.736 650.243 718.052 660.829 737.349 669.873C752.792 677.111 765.021 679.579 770.695 697.054" fill="none" fill-rule="evenodd" opacity="0.574469" stroke="#697447" stroke-linecap="round" stroke-linejoin="round" stroke-width="8.60389"/>
<path d="M697.568 597.948C714.607 600.518 726.07 610.704 740.769 619.231C754.35 627.11 764.571 632.106 778.375 639.143C785.583 642.818 799.953 647.161 800.433 657.238" fill="none" fill-rule="evenodd" opacity="0.574469" stroke="#697447" stroke-linecap="round" stroke-linejoin="round" stroke-width="8.60389"/>
<path d="M736.764 565.359C740.353 560.261 748.979 564.953 752.39 566.662C756.719 568.831 760.744 571.566 765.019 573.841C785.235 584.597 807.7 590.48 826.444 603.674" fill="none" fill-rule="evenodd" opacity="0.574469" stroke="#697447" stroke-linecap="round" stroke-linejoin="round" stroke-width="8.60389"/>
<path d="M780.679 532.956C790.165 534.387 798.105 539.646 806.405 544.22C818.753 551.025 830.279 557.888 841.638 565.884" fill="none" fill-rule="evenodd" opacity="0.574469" stroke="#697447" stroke-linecap="round" stroke-linejoin="round" stroke-width="8.60389"/>
<path d="M811.256 508.561C821.445 509.071 830.919 510.429 839.667 516.011C843.501 518.457 846.661 522.36 850.439 525.019" fill="none" fill-rule="evenodd" opacity="0.574469" stroke="#697447" stroke-linecap="round" stroke-linejoin="round" stroke-width="8.60389"/>
<path d="M548.419 179.998C557.327 198.874 550.354 224.956 550.178 244.89C549.994 265.796 548.508 286.858 549.199 307.743" fill="none" fill-rule="evenodd" opacity="0.574469" stroke="#697447" stroke-linecap="round" stroke-linejoin="round" stroke-width="8.60389"/>
<path d="M524.26 262.894C523.034 275.173 529.513 287.497 531.198 299.475C531.859 304.176 531.891 308.946 532.133 313.688C532.752 325.841 532.921 338.603 532.547 350.794C532.03 367.662 528.29 384.078 528.711 401.007" fill="none" fill-rule="evenodd" opacity="0.574469" stroke="#697447" stroke-linecap="round" stroke-linejoin="round" stroke-width="8.60389"/>
<path d="M509.837 395.593C509.221 401.767 512.415 407.272 513.976 413.068C515.629 419.205 516.914 425.444 517.999 431.707C520.218 444.524 518.319 457.481 521.209 470.269" fill="none" fill-rule="evenodd" opacity="0.574469" stroke="#697447" stroke-linecap="round" stroke-linejoin="round" stroke-width="8.60389"/>
<path d="M577.009 270.79C562.817 277.886 571.04 257.234 573.262 251.122C575.186 245.832 576.936 240.481 578.882 235.2C583.537 222.564 588.042 209.569 594.804 197.736C602.988 183.413 613.145 170.387 621.965 156.526C626.951 148.692 635.569 139.27 632.267 129.365" fill="none" fill-rule="evenodd" opacity="0.574469" stroke="#697447" stroke-linecap="round" stroke-linejoin="round" stroke-width="8.60389"/>
</g>
</svg>
