<?xml version="1.0" encoding="UTF-8" standalone="no"?>
<!DOCTYPE svg PUBLIC "-//W3C//DTD SVG 1.1//EN" "http://www.w3.org/Graphics/SVG/1.1/DTD/svg11.dtd">

<!-- Created with Vectornator (http://vectornator.io/) -->
<svg height="100%" stroke-miterlimit="10" style="fill-rule:nonzero;clip-rule:evenodd;stroke-linecap:round;stroke-linejoin:round;" version="1.1" viewBox="0 0 180 200" width="100%" xml:space="preserve" xmlns="http://www.w3.org/2000/svg" xmlns:vectornator="http://vectornator.io" xmlns:xlink="http://www.w3.org/1999/xlink">
<metadata>
<vectornator:setting key="IsTimeLapseWatermarkDisabled" value="false"/>
<vectornator:setting key="UndoHistoryDisabled" value="true"/>
<vectornator:setting key="VNDimensionsVisible" value="true"/>
<vectornator:setting key="VNSnapToGuides" value="true"/>
<vectornator:setting key="WDCMYKEnabledKey" value="false"/>
<vectornator:setting key="WDDisplayWhiteBackground" value="false"/>
<vectornator:setting key="WDDynamicGuides" value="false"/>
<vectornator:setting key="WDGuidesVisible" value="true"/>
<vectornator:setting key="WDIsolateActiveLayer" value="false"/>
<vectornator:setting key="WDOutlineMode" value="false"/>
<vectornator:setting key="WDRulersVisible" value="true"/>
<vectornator:setting key="WDSnapToEdges" value="false"/>
<vectornator:setting key="WDSnapToGrid" value="false"/>
<vectornator:setting key="WDSnapToPoints" value="false"/>
<vectornator:setting key="WDUnits" value="Pixels"/>
</metadata>
<defs>
<filter color-interpolation-filters="sRGB" filterUnits="userSpaceOnUse" height="177.583" id="Filter" width="172.781" x="6.51896" y="1.51554">
<feGaussianBlur in="SourceGraphic" result="Blur" stdDeviation="4.16691"/>
</filter>
<filter color-interpolation-filters="sRGB" filterUnits="userSpaceOnUse" height="58.2288" id="Filter_2" width="85.1942" x="9.8382" y="121.815">
<feGaussianBlur in="SourceGraphic" result="Blur" stdDeviation="4.16691"/>
</filter>
<filter color-interpolation-filters="sRGB" filterUnits="userSpaceOnUse" height="44.1128" id="Filter_3" width="43.7402" x="11.24" y="100.004">
<feGaussianBlur in="SourceGraphic" result="Blur" stdDeviation="5.71705"/>
</filter>
<filter color-interpolation-filters="sRGB" filterUnits="userSpaceOnUse" height="105.391" id="Filter_4" width="116.993" x="33.0045" y="30.9842">
<feGaussianBlur in="SourceGraphic" result="Blur" stdDeviation="1.30477"/>
</filter>
<filter color-interpolation-filters="sRGB" filterUnits="userSpaceOnUse" height="25.6173" id="Filter_5" width="30.555" x="27.3742" y="125.609">
<feGaussianBlur in="SourceGraphic" result="Blur" stdDeviation="3.39147"/>
</filter>
<filter color-interpolation-filters="sRGB" filterUnits="userSpaceOnUse" height="22.1702" id="Filter_6" width="24.3484" x="27.7968" y="125.14">
<feGaussianBlur in="SourceGraphic" result="Blur" stdDeviation="3.39147"/>
</filter>
</defs>
<clipPath id="ArtboardFrame">
<rect height="200" width="180" x="0" y="0"/>
</clipPath>
<g clip-path="url(#ArtboardFrame)" id="Layer-1" vectornator:layerName="Layer 1">
<path d="M-12.518 122.806C-12.7747 120.496-11.9976 117.862-11.6547 115.576C-11.0902 111.812-10.4676 108.039-10.4676 104.245C-10.4676 102.687-10.0953 99.4128-11.8705 98.5252" fill="#536936" fill-rule="evenodd" opacity="1" stroke="#cbb59d" stroke-linecap="round" stroke-linejoin="round" stroke-width="3.74608"/>
<path d="M93.4316 17.7179L93.4316 17.7179C132.195 18.0164 163.386 50.7087 163.098 90.7382L163.096 90.9572C162.808 130.987 131.151 163.195 92.3876 162.897L92.3876 162.897C53.6241 162.598 22.4334 129.906 22.7213 89.8764L22.7229 89.6574C23.0107 49.6279 54.6681 17.4195 93.4316 17.7179Z" fill="#928372" fill-rule="evenodd" filter="url(#Filter)" opacity="1" stroke="#bcae9d" stroke-linecap="round" stroke-linejoin="round" stroke-width="11.5661"/>
<path d="M88.5521 13.5259L89.9799 13.5259C126.703 13.5259 156.473 43.131 156.473 79.6508L156.473 79.6508C156.473 116.171 126.703 145.776 89.9799 145.776L88.5521 145.776C51.8288 145.776 22.0586 116.171 22.0586 79.6508L22.0586 79.6508C22.0586 43.131 51.8288 13.5259 88.5521 13.5259Z" fill="#4a5c34" fill-rule="evenodd" opacity="1" stroke="#f2f2f2" stroke-linecap="round" stroke-linejoin="round" stroke-width="11.5661"/>
<path d="M29.6376 152.452L44.2422 133.999C44.7067 133.412 45.5709 133.298 46.1723 133.745L51.5353 137.726C52.1367 138.172 52.2476 139.01 51.783 139.597L37.1785 158.05C36.7139 158.637 35.8497 158.751 35.2483 158.304L29.8854 154.323C29.2839 153.877 29.173 153.039 29.6376 152.452Z" fill="#536936" fill-rule="evenodd" opacity="1" stroke="#f2f2f2" stroke-linecap="round" stroke-linejoin="round" stroke-width="11.5661"/>
<path d="M33.2076 138.016C32.2954 138.653 32.0584 139.922 31.5356 140.904C31.1118 141.7 30.683 142.494 30.2441 143.281C27.2429 148.668 22.1229 158.269 31.0536 161.208C34.9674 162.495 39.7725 161.677 43.6508 160.725C47.0745 159.884 50.5849 159.52 54.0364 158.835C56.9266 158.262 59.8507 157.291 62.803 157.092C67.1385 156.801 71.5122 157.78 75.8749 157.36C76.1375 157.335 78.8382 157.059 78.8321 157.017C78.7275 156.305 74.619 155.254 74.183 155.148C69.6835 154.05 65.3042 153.414 60.6601 153.67C56.7808 153.885 52.9155 154.261 49.0729 154.825C46.8518 155.151 44.5849 155.675 42.3295 155.451C41.2396 155.342 40.2329 155.072 39.2782 154.532C37.4232 153.481 36.321 150.927 33.8606 151.773C30.1137 153.061 28.3434 160.016 32.2683 162.032C38.5662 165.266 45.7565 163.743 51.7742 160.808C56.4043 158.549 61.1055 155.738 66.0179 154.16" fill="#928372" fill-rule="evenodd" filter="url(#Filter_2)" opacity="1" stroke="#bcae9d" stroke-linecap="round" stroke-linejoin="round" stroke-width="11.5661"/>
<path d="M24.9482 110.381C25.1169 112.245 28.5476 117.344 29.6366 119.159C35.7086 129.281 47.2234 140.124 58.6357 143.977C66.0047 146.465 72.8019 149.423 80.649 150.037C84.3665 150.328 88.257 149.143 91.9493 148.742C95.6044 148.346 99.5845 148.784 103.173 147.927C111.642 145.903 119.673 141.873 127.131 137.495C129.169 136.299 131.311 135.238 133.134 133.711C135.166 132.008 136.653 129.768 138.29 127.733C140.645 124.804 143.506 122.302 145.564 119.137C148.191 115.098 149.775 110.29 151.497 105.817C154.943 96.8664 157.555 87.9301 158.586 78.4354C158.902 75.5254 159.357 70.8502 157.423 68.2387C157.171 67.8988 157.631 69.0542 157.726 69.464C157.933 70.3568 158.175 71.2316 158.399 72.1215C159.08 74.8283 159.151 77.4931 159.495 80.2456C159.854 83.1253 161.117 85.7389 161.453 88.6014C162.015 93.3966 160.735 98.5139 159.718 103.161C159.232 105.384 158.072 107.415 157.585 109.607C156.042 116.549 154.344 122.888 150.848 129.187C149.196 132.164 146.633 134.359 144.328 136.819C135.924 145.786 125.556 150.601 113.778 154.086C104.64 156.79 95.4684 157.754 85.994 157.837C79.2194 157.896 72.0793 157.972 65.4193 156.517C60.1581 155.368 55.0681 152.712 50.4624 150.077C43.2665 145.961 36.309 142.041 31.4228 135.443C29.7547 133.191 28.8473 130.099 27.8124 127.421C25.5344 121.525 24.2174 115.133 21.9353 109.227C21.5492 108.228 19.3597 104.111 19.9985 103.231C20.3042 102.81 22.0072 105.062 22.1598 105.334C23.8501 108.34 24.6533 112.081 26.7254 114.879" fill="#67635e" fill-rule="evenodd" opacity="0.223085" stroke="#67635e" stroke-linecap="round" stroke-linejoin="round" stroke-width="1.98327"/>
</g>
<g id="Layer-2" vectornator:layerName="Layer 2">
<path d="M28.732 70.0371C28.2516 69.0763 28.9803 66.9546 29.084 65.8141C29.5918 60.228 30.9436 56.4555 34.0108 51.8547C35.408 49.759 36.2756 47.2935 37.8819 45.2856C39.632 43.098 42.1093 41.6447 44.0991 39.6549C45.4255 38.3285 46.3838 36.4216 47.8529 35.1973C51.2828 32.3391 55.2014 29.1183 59.2315 27.1032C61.1316 26.1532 63.193 25.5917 65.0968 24.6398C68.1152 23.1306 71.0113 21.4872 74.3639 20.7687C79.9369 19.5745 86.0375 19.2438 91.7252 19.2438C92.6557 19.2438 96.4635 18.7494 96.7693 19.3611" fill="none" fill-rule="evenodd" opacity="0.992248" stroke="#a9a49e" stroke-linecap="round" stroke-linejoin="round" stroke-width="1.98327"/>
<path d="M28.8494 71.0929C25.8698 80.0314 28.1303 88.4595 30.6089 97.1347C32.0852 102.302 33.793 107.483 36.8261 112.033C40.1288 116.986 44.6116 121.16 49.1432 124.936C50.9504 126.442 53.2181 127.258 55.0085 128.69C64.885 136.591 78.7382 142.173 91.6079 139.599C94.3302 139.055 97.3234 139.82 100.054 139.365C104.677 138.594 112.782 136.608 116.242 133.148" fill="none" fill-rule="evenodd" opacity="0.992248" stroke="#a9a49e" stroke-linecap="round" stroke-linejoin="round" stroke-width="1.98327"/>
<path d="M116.183 133.483C118.117 133.483 119.487 131.897 120.785 130.744C122.558 129.168 124.964 128.413 126.756 126.8C127.856 125.81 129.135 125.047 130.263 124.06C134.613 120.254 138.929 115.312 141.987 110.418C142.838 109.057 143.367 107.266 143.905 105.762C144.895 102.988 146.423 100.454 147.356 97.6533C148.659 93.7438 149.418 89.4322 149.931 85.3264C150.015 84.6553 150.595 81.9875 150.041 81.7105" fill="none" fill-rule="evenodd" opacity="0.992248" stroke="#a9a49e" stroke-linecap="round" stroke-linejoin="round" stroke-width="1.98327"/>
<path d="M97.1258 19.4537C98.2073 19.6166 98.9863 20.0971 100.045 20.3789C100.976 20.6269 101.944 20.2647 102.889 20.5161C106.57 21.4961 110.276 22.1917 113.823 23.6683C123.19 27.5682 130.835 34.3278 137.229 42.0019C138.807 43.8955 139.991 46.3003 141.158 48.4683C142.534 51.0231 144.127 53.4188 145.358 56.0434C146.108 57.6431 146.548 59.2919 147.092 60.9654C147.279 61.5394 147.422 62.1213 147.608 62.6939C147.653 62.8313 147.813 63.5913 147.841 63.4086" fill="none" fill-rule="evenodd" opacity="0.992248" stroke="#a9a49e" stroke-linecap="round" stroke-linejoin="round" stroke-width="1.98327"/>
<path d="M148.082 63.9481C148.935 65.322 148.896 67.764 149.172 69.3232C149.709 72.3716 150.626 75.8493 150.523 78.976C150.481 80.2492 150.237 81.3822 150.435 82.69" fill="none" fill-rule="evenodd" opacity="0.992248" stroke="#a9a49e" stroke-linecap="round" stroke-linejoin="round" stroke-width="1.98327"/>
<path d="M18.8841 59.9823C18.1674 61.4156 18.104 63.7114 17.8709 65.2652C17.3376 68.8209 16.8454 72.374 16.5683 75.9756C15.2915 92.5738 18.8231 110.292 29.6669 123.304C31.781 125.841 34.1492 127.931 36.4695 130.252C36.9691 130.751 37.5729 131.599 38.2063 131.916" fill="none" fill-rule="evenodd" opacity="0.992248" stroke="#a9a49e" stroke-linecap="round" stroke-linejoin="round" stroke-width="1.98327"/>
<path d="M19.0725 59.5532C18.8762 59.3936 18.9706 59.3748 19.0802 59.1922C19.852 57.9061 20.2763 56.4216 20.6011 54.9606C21.3837 51.4395 23.3258 48.5582 24.5722 45.2533C25.255 43.4426 26.0557 41.6862 27.0992 40.0849C31.2205 33.7599 36.4807 28.2583 42.2066 23.351C45.069 20.8978 48.2193 17.9545 51.7148 16.4703C57.0039 14.2246 62.1377 12.1026 67.797 10.6881C72.4211 9.53238 76.8346 7.9304 81.575 7.44028" fill="none" fill-rule="evenodd" opacity="0.992248" stroke="#a9a49e" stroke-linecap="round" stroke-linejoin="round" stroke-width="1.98327"/>
<path d="M82.2486 7.27109C82.6908 7.4539 83.6957 7.28469 84.1801 7.29324C86.0782 7.32672 87.9705 7.5932 89.8831 7.58067C94.109 7.55298 98.2724 8.03982 102.47 8.61757C107.752 9.34465 112.711 11.3761 117.598 13.3961C121.36 14.951 125.302 16.4658 128.791 18.618C130.891 19.9132 132.63 21.7516 134.7 22.9755" fill="none" fill-rule="evenodd" opacity="0.992248" stroke="#a9a49e" stroke-linecap="round" stroke-linejoin="round" stroke-width="1.98327"/>
<path d="M135.124 23.1094C136.77 24.4004 138.229 26.0695 139.718 27.5311C144.87 32.5874 148.999 37.5357 152.707 43.7976C153.986 45.9585 155.025 48.1981 156.06 50.4787C156.367 51.1539 156.871 51.9211 156.962 52.6786" fill="none" fill-rule="evenodd" opacity="0.992248" stroke="#a9a49e" stroke-linecap="round" stroke-linejoin="round" stroke-width="1.98327"/>
<path d="M157.133 53.0171C157.731 53.378 157.685 54.6475 157.841 55.2782C158.353 57.3508 158.83 59.4401 159.416 61.4927C160.847 66.5039 162.19 71.6368 162.455 76.8927C162.681 81.3453 162.128 85.5694 161.684 89.9591" fill="none" fill-rule="evenodd" opacity="0.992248" stroke="#a9a49e" stroke-linecap="round" stroke-linejoin="round" stroke-width="1.98327"/>
<path d="M161.569 90.0567C161.703 92.3387 160.613 94.8497 160.03 97.0172C158.847 101.41 157.445 105.482 155.555 109.623C154.919 111.016 154.242 112.38 153.614 113.772C153.309 114.448 153.047 115.415 152.543 115.981" fill="none" fill-rule="evenodd" opacity="0.992248" stroke="#a9a49e" stroke-linecap="round" stroke-linejoin="round" stroke-width="1.98327"/>
<path d="M152.894 115.48C150.612 118.081 149.233 121.449 146.905 124.103C140.345 131.581 131.269 139.448 122.162 143.617C121.015 144.142 120.033 145.042 118.874 145.539C117.272 146.225 115.624 146.776 113.985 147.4C113.452 147.603 111.537 148.886 111.032 148.557" fill="none" fill-rule="evenodd" opacity="0.992248" stroke="#a9a49e" stroke-linecap="round" stroke-linejoin="round" stroke-width="1.98327"/>
<path d="M38.1734 132.524C39.0504 133.535 40.5546 134.115 41.6131 134.935C43.9146 136.718 46.0036 138.409 48.53 139.905C57.3058 145.101 66.6695 147.98 76.6427 150.136C77.9223 150.412 79.439 150.149 80.7693 150.333C83.3634 150.692 85.9191 151.212 88.5539 151.223C90.4468 151.231 92.3604 150.965 94.2544 150.954C98.5487 150.929 103.131 150.154 107.29 149.088C108.893 148.678 111.041 148.719 112.522 147.968" fill="none" fill-rule="evenodd" opacity="0.992248" stroke="#8d8a87" stroke-linecap="round" stroke-linejoin="round" stroke-width="1.98327"/>
<path d="M38.0756 132.869C37.4205 133.016 36.3197 134.888 35.9068 135.421C34.2479 137.563 32.2774 139.504 30.6027 141.598C28.4997 144.228 26.0884 146.82 24.2891 149.664C23.7679 150.488 23.0796 151.601 22.9815 152.576C22.4013 158.341 31.5527 165.049 36.8657 164.275C42.5972 163.44 46.4127 155.515 49.6994 151.519C51.3259 149.542 52.8284 147.424 54.4819 145.484C54.8516 145.051 56.2862 144.108 56.1597 143.546" fill="#fffaf5" fill-rule="evenodd" opacity="0.992248" stroke="#a6a39f" stroke-linecap="round" stroke-linejoin="round" stroke-width="1.98327"/>
<path d="M26.5243 115.288C29.2982 118.458 32.6297 121.172 35.3663 124.365C36.2185 125.359 37.024 126.414 37.9484 127.338C38.364 127.754 38.899 128.216 39.3569 128.59C39.4578 128.673 39.7909 128.874 39.6699 128.825C38.1045 128.199 36.5136 126.138 35.4445 125.069C33.6284 123.253 31.0113 121.132 29.8107 118.731" fill="#536936" fill-rule="evenodd" filter="url(#Filter_3)" opacity="0.992248" stroke="#d5cec7" stroke-linecap="round" stroke-linejoin="round" stroke-width="1.98327"/>
</g>
<g id="Layer-3" vectornator:layerName="Layer 3">
<path d="M29.748 145.254C30.5181 144.631 30.8965 143.668 31.6276 142.985C33.2495 141.469 34.9133 139.91 36.4111 138.278C36.8218 137.83 36.8321 136.757 37.2686 136.412C37.5975 136.152 37.9994 136.597 38.3295 136.366C38.5688 136.199 38.3348 135.49 38.6222 135.541C39.4496 135.688 40.8631 137.287 41.5807 137.821C43.2598 139.069 45.1461 140.067 46.972 141.058C47.8864 141.555 52.5333 143.58 52.8023 143.965C53.0839 144.368 51.3382 145.76 51.1239 146.007C49.3729 148.019 48.0269 150.432 45.8671 152.063C43.9595 153.504 43.693 156.144 42.4668 158.04C42.0436 158.694 41.844 159.473 41.479 160.145C41.4614 160.178 41.14 160.94 41.088 160.866C40.7955 160.447 40.9937 159.432 40.6262 158.854C38.7079 155.836 36.4398 153.134 34.1057 150.444C33.1025 149.287 31.813 147.861 30.6831 146.824C30.4168 146.58 29.2355 145.791 29.1581 145.53C29.0964 145.322 29.5793 145.391 29.748 145.254Z" fill="#d5cec7" fill-rule="evenodd" opacity="0.992248" stroke="#d5cec7" stroke-linecap="round" stroke-linejoin="round" stroke-width="1.98327"/>
<path d="M20.9607 59.7031C20.5112 60.6022 21.03 61.9663 20.865 62.9564C20.1461 67.2702 20.3433 71.7324 19.6211 76.0651C18.632 82.0002 18.4257 88.6992 19.4298 94.7235C19.7595 96.7019 20.6666 98.6111 21.0564 100.56C21.3297 101.927 21.5733 103.412 22.2046 104.675C24.0251 108.316 26.2168 111.672 28.2327 115.2C29.2475 116.976 30.3094 118.872 31.5816 120.462C35.5616 125.437 40.5808 129.31 45.7429 132.997C51.524 137.126 57.248 141.079 64.0185 143.618C67.164 144.798 70.8891 146.593 74.2567 146.967C81.1992 147.738 88.6552 148.121 95.5942 147.35C97.4662 147.142 99.391 147.422 101.24 147.158C102.854 146.928 104.627 147.189 106.215 146.871C107.689 146.577 109.071 145.894 110.521 145.532C110.729 145.48 113.273 144.529 113.2 144.383C113.064 144.111 111.604 144.383 111.286 144.383C110.035 144.383 108.623 144.078 107.363 144.288C106.156 144.489 104.935 144.931 103.632 144.671C98.2051 143.585 92.7983 143.929 87.2697 143.427C82.2487 142.97 77.2297 142.449 72.2473 141.896C64.5006 141.035 58.3669 135.601 52.058 131.658C42.6509 125.778 32.1118 117.995 27.4672 107.545C25.7692 103.725 24.7677 99.1641 23.8312 95.1062C23.2822 92.7269 22.2031 90.3984 22.0132 87.9299C21.7324 84.2785 21.7071 80.5624 21.3435 76.9263C20.8899 72.3911 21.3435 67.631 21.3435 63.0521C21.3435 59.2172 20.9142 55.228 23.1614 51.8571" fill="#d5cec7" fill-rule="evenodd" opacity="0.992248" stroke="#d5cec7" stroke-linecap="round" stroke-linejoin="round" stroke-width="1.98327"/>
<path d="M131.64 22.6606C130.778 21.6722 132.736 23.8816 132.997 24.0613C134.105 24.8259 134.857 25.7634 135.854 26.653C138.838 29.3143 141.457 32.0162 144.123 34.9607C151.2 42.7794 156.838 53.1265 158.742 63.511C159.005 64.949 159.73 66.4032 159.732 67.9114C159.738 71.8863 159.9 75.8218 159.782 79.7788C159.632 84.8232 160.482 90.0608 159.112 95.1139C158.441 97.5881 156.865 99.7357 156.155 102.181C153.387 111.727 148.375 119.078 141.179 125.858C139.05 127.864 137.617 130.421 135.417 132.413C133.477 134.168 131.224 135.381 129.038 136.808C126.701 138.334 124.722 140.534 122.225 141.833C120.09 142.944 117.657 143.114 115.569 144.116C113.471 145.124 111.28 145.746 108.863 145.126C108.566 145.05 107.802 145.138 107.976 144.886C108.247 144.492 109.722 144.573 110.119 144.383C111.686 143.63 113.336 142.831 114.84 141.941C118.828 139.581 122.576 136.808 126.503 134.377C133.348 130.139 138.373 123.91 142.827 117.454C144.805 114.589 145.336 111.047 146.699 107.984C147.547 106.077 149.081 104.234 149.69 102.303C151.847 95.4638 154.378 88.6715 154.367 81.4316C154.363 79.0121 155.637 76.6026 155.501 74.2223C155.11 67.3723 152.499 60 148.892 54.1737C147.239 51.5036 146.643 48.2346 144.784 45.763C141.728 41.702 138.59 37.3946 135.993 33.0058C134.945 31.2352 133.142 30.0209 131.923 28.4004C131.112 27.3225 130.615 26.0663 129.628 25.0822C129.06 24.5161 128.284 23.9668 127.803 23.3274C127.293 22.6494 127.42 21.342 126.816 20.5394C126.577 20.2227 124.955 18.6959 125.184 18.2361C125.31 17.9825 126.668 19.1881 126.878 19.2816C127.824 19.7026 130.222 20.0794 130.783 20.9849C131.081 21.4665 132.745 23.9274 131.64 22.6606Z" fill="#d5cec7" fill-rule="evenodd" opacity="0.992248" stroke="#d5cec7" stroke-linecap="round" stroke-linejoin="round" stroke-width="1.98327"/>
<path d="M124.116 17.868C120.409 15.2267 115.819 13.668 111.57 12.3661C109.177 11.6328 107.03 10.6714 104.54 10.2814C100.16 9.59515 95.7608 9.78959 91.3591 9.55909C85.0234 9.2273 78.102 9.03153 71.9593 10.8693C66.8288 12.4042 61.8694 14.19 56.9643 16.2925C55.6557 16.8534 54.3489 17.2581 53.0762 17.9338C53.0281 17.9594 52.4987 18.2405 52.4987 18.2405C52.564 18.3635 52.7771 18.2337 52.9163 18.2303C54.9951 18.1794 57.0668 17.0098 58.97 16.2853C60.0155 15.8872 61.2276 16.0823 62.3009 15.7859C64.8992 15.0684 67.5091 14.1077 70.0535 13.2561C73.1776 12.2106 76.7608 12.0631 79.9974 11.4667C82.4404 11.0166 84.8904 11.2174 87.3397 10.9529C91.6362 10.4888 95.6627 10.2693 99.9616 11.0203C104.325 11.7825 108.938 13.6018 113.06 15.1714C115.527 16.111 118.308 16.4175 120.682 17.5758C123.114 18.7622 125.447 20.3554 127.642 21.9189" fill="#d5cec7" fill-rule="evenodd" opacity="0.992248" stroke="#d5cec7" stroke-linecap="round" stroke-linejoin="round" stroke-width="1.98327"/>
<path d="M40.5869 104.36C39.7149 103.191 39.4841 101.675 39.0067 100.315C36.9636 94.4935 36.7576 89.4052 38.1447 83.2675C38.8909 79.9657 39.2663 76.5319 40.2996 73.2992C42.3779 66.7968 46.7474 61.2944 50.7867 55.963C56.7444 48.0995 63.8418 40.5793 72.9953 37.511C83.8258 33.8805 94.4128 35.0396 105.808 37.9045C107.644 38.366 109.328 39.7636 110.98 40.6494C113.962 42.2491 117.068 43.6175 120.03 45.2724C125.885 48.5432 131.77 51.9343 135.833 57.5522C137.452 59.7914 138.622 62.3376 140.143 64.6311C141.42 66.5578 142.733 68.6926 143.303 70.9877C144.544 75.9791 146.249 81.817 145.602 87.0236C144.56 95.4032 137.76 107.383 131.523 113.028C128.13 116.099 123.947 117.741 120.318 120.396C117.967 122.115 115.66 123.943 112.991 125.163C109.74 126.649 106.006 126.991 102.648 128.197C98.7429 129.599 95.6458 131.425 91.4422 131.953C86.0976 132.625 80.3725 131.098 75.0651 130.653C72.5666 130.444 69.0124 129.921 66.7329 128.775C62.6018 126.698 59.6856 122.728 55.8148 120.251C51.1896 117.291 46.5035 115.117 43.1728 110.427C41.0056 107.376 37.5701 103.657 37.5701 99.5923" fill="#788e5a" fill-rule="evenodd" filter="url(#Filter_4)" opacity="0.992248" stroke="#738e5a" stroke-linecap="round" stroke-linejoin="round" stroke-width="1.98327"/>
<path d="M52.2772 114.707C49.0283 113.068 48.1168 106.946 47.5807 103.7C45.7074 92.3588 46.5562 80.5656 53.3378 70.9857C60.6372 60.6742 73.4521 53.921 85.6077 51.8768C89.3034 51.2553 93.6911 51.84 97.4248 52.1825C99.1845 52.3439 101.007 51.9346 102.727 52.1825C107.247 52.8341 110.853 55.4181 114.696 57.533C118.875 59.833 123.791 62.2782 126.816 66.0938C128.538 68.2651 129.669 70.9469 131.21 73.2787C133.883 77.3249 135.848 81.5477 136.815 86.4257C138.055 92.6809 137.836 102.319 133.937 107.828C133.065 109.06 131.507 110.213 130.452 111.344C120.273 122.257 107.502 130.791 92.2737 131.523C88.2263 131.717 83.2971 129.908 79.3961 128.924C76.67 128.236 73.2853 129.128 70.7605 127.854C61.8847 123.376 53.6509 119.236 49.5502 109.051C48.3834 106.153 46.8643 103.166 47.4292 100.031" fill="#889b70" fill-rule="evenodd" opacity="0.992248" stroke="#738e5a" stroke-linecap="round" stroke-linejoin="round" stroke-width="1.98327"/>
<path d="M59.7721 107.876C60.1464 105.4 57.4469 100.32 57.1297 97.3062C56.3065 89.4858 58.7528 81.6362 63.2715 75.3099C67.1978 69.8131 74.5477 67.4779 80.84 66.0258C98.4901 61.9527 117.929 62.8546 125.975 82.1659C129.847 91.4594 125.236 98.8701 119.262 105.591C116.834 108.322 114.425 111.785 111.406 113.875C102.319 120.166 89.1706 123.537 78.1262 121.588C72.1401 120.531 64.3833 117.486 61.129 112.161C60.4036 110.974 59.5633 109.257 59.7721 107.876Z" fill="#738e5a" fill-rule="evenodd" opacity="0.992248" stroke="#738e5a" stroke-linecap="round" stroke-linejoin="round" stroke-width="1.98327"/>
<path d="M36.8445 137.405C39.3956 132.303 41.3983 136.912 44.4152 138.797C44.7068 138.979 49.2732 141.285 48.3311 141.756" fill="#9d9182" fill-rule="evenodd" filter="url(#Filter_5)" opacity="0.404706" stroke="#9d9182" stroke-linecap="round" stroke-linejoin="round" stroke-width="1.98327"/>
<path d="M37.4537 137.84C36.5418 136.928 39.2101 134.434 40.3253 134.62C41.5372 134.822 41.34 136.921 42.6748 137.144" fill="#9d9182" fill-rule="evenodd" filter="url(#Filter_6)" opacity="0.404706" stroke="#9d9182" stroke-linecap="round" stroke-linejoin="round" stroke-width="1.98327"/>
<path d="M33.9729 140.624C34.3019 139.638 35.4569 139.01 36.1484 138.275C36.8057 137.577 38.289 134.961 39.6291 135.229C40.2189 135.347 40.8897 136.137 41.3695 136.448C43.5166 137.837 45.8361 139.509 48.07 140.712C50.2348 141.877 54.6717 141.751 54.1613 145.324C54.0709 145.957 50.2893 149.118 49.5493 149.761C48.0013 151.108 46.3471 152.563 45.1984 154.286C44.924 154.698 44.4513 156.021 43.8931 156.114C43.6886 156.148 42.0303 152.928 41.8916 152.633C40.3376 149.331 39.7031 145.301 36.2354 143.409C35.7502 143.144 33.8904 141.751 33.3638 142.278C32.5433 143.098 34.6597 144.597 35.0171 144.975C37.0098 147.085 39.1598 149.554 40.4123 152.198C41.2687 154.006 41.6541 156.221 41.2825 158.202C41.2056 158.612 40.5651 160.531 40.9344 160.9C41.1495 161.115 42.7683 161.314 43.0229 161.161C44.0429 160.549 43.3692 157.991 43.632 157.071C43.9835 155.841 45.0898 155.291 45.9815 154.548C47.4613 153.314 48.948 151.531 49.6363 149.761C49.8858 149.12 51.8843 145.348 52.3339 145.498C52.4669 145.542 50.5742 148.421 50.4195 148.63C48.4265 151.327 45.8496 153.748 44.0671 156.549C43.6661 157.179 42.9863 158.862 43.458 159.334" fill="#9d9182" fill-rule="evenodd" opacity="0.341716" stroke="#9d9182" stroke-linecap="round" stroke-linejoin="round" stroke-width="1.98327"/>
</g>
<g id="Layer-4" vectornator:layerName="Layer 4">
<path d="M51.5163 164.866C53.3525 163.609 55.539 160.861 58.0391 160.956C58.4751 160.972 58.3898 161.808 58.3095 162.237C57.9715 164.043 56.9212 165.624 56.2786 167.318C56.1391 167.686 55.7758 168.748 56.0616 168.477C57.0426 167.551 57.5183 165.888 58.2833 164.782C59.2749 163.349 58.9544 163.771 60.0871 162.839C66.3375 157.697 60.8325 168.347 61.2418 169.177C61.4098 169.517 61.8621 168.716 62.0768 168.403C62.7007 167.493 63.1616 166.696 63.884 165.8C64.6572 164.842 67.306 162.799 68.7911 163.148C70.05 163.443 68.753 165.712 68.5513 166.194C67.5321 168.625 66.4477 171.065 65.8092 173.632C65.5266 174.768 65.7535 176.855 67.4715 176.133C68.2969 175.787 69.4277 173.921 69.8204 173.362C70.2006 172.822 70.5044 172.227 70.9105 171.706C71.5466 170.889 72.2116 170.09 72.9406 169.355C73.5082 168.783 74.028 168.965 74.6199 168.559" fill="none" fill-rule="evenodd" opacity="0.994817" stroke="#697447" stroke-linecap="round" stroke-linejoin="round" stroke-width="1.10631"/>
<path d="M79.3482 167.344C80.1678 164.926 76.8022 165.609 75.7133 166.243C74.2575 167.091 73.6618 169.174 73.4086 170.703C73.2686 171.548 73.1858 171.858 73.8223 172.341C75.4197 173.552 78.4475 168.714 78.8701 167.974C79.0676 167.629 79.2811 167.292 79.4821 166.949C79.5606 166.814 79.7839 166.405 79.7085 166.541C79.2511 167.365 78.9629 168.079 78.7328 169.029C78.5525 169.773 78.4862 170.828 78.5218 171.6C78.7161 175.811 83.1876 167.852 83.7638 167.96" fill="none" fill-rule="evenodd" opacity="0.994817" stroke="#697447" stroke-linecap="round" stroke-linejoin="round" stroke-width="1.10631"/>
<path d="M86.9543 163.096C85.9692 163.231 85.4589 164.654 85.1217 165.513C84.4884 167.129 79.9796 178.961 86.5723 173.316C86.9596 172.985 87.2645 172.565 87.6462 172.227C88.8998 171.117 90.2332 169.899 91.6201 168.95" fill="none" fill-rule="evenodd" opacity="0.994817" stroke="#697447" stroke-linecap="round" stroke-linejoin="round" stroke-width="1.10631"/>
<path d="M95.5135 168.508C95.6509 167.243 94.475 165.347 93.0035 166.688C91.993 167.609 89.6449 173.262 91.7397 173.923C93.8049 174.575 96.2752 172.235 97.4276 170.787C97.9459 170.135 98.2276 169.451 98.4541 168.668C98.5169 168.451 98.3695 167.859 98.5499 167.996C101.739 170.414 104.468 166.015 102.241 163.346C101.441 162.387 99.6984 163.835 99.255 164.227C97.3001 165.958 96.6089 172.42 99.418 173.619C101.238 174.397 102.164 169.021 104.906 168.345C105.209 168.27 105.566 168.165 105.842 168.31C107.143 168.993 105.344 173.276 105.876 174.708C106.489 176.361 108.358 174.057 108.718 173.469C110.191 171.061 111.612 168.669 113.305 166.436" fill="none" fill-rule="evenodd" opacity="0.994817" stroke="#697447" stroke-linecap="round" stroke-linejoin="round" stroke-width="1.10631"/>
<path d="M117.033 164.793C116.879 163.675 115.639 161.821 114.376 163.276C113.231 164.594 112.397 168.573 113.444 170.183C115.316 173.062 117.879 166.221 118.007 165.035C118.062 164.532 118.583 163.45 118.081 163.519C117.234 163.636 117.688 165.187 117.58 166.036C117.181 169.184 119.793 171.098 121.686 167.824C122.119 167.076 122.364 166.235 122.675 165.429C122.875 164.91 123.032 164.375 123.21 163.849" fill="none" fill-rule="evenodd" opacity="0.994817" stroke="#697447" stroke-linecap="round" stroke-linejoin="round" stroke-width="1.10631"/>
<path d="M82.4886 163.43C83.8461 165.466 86.9923 167.6 89.4103 165.786" fill="none" fill-rule="evenodd" opacity="0.994817" stroke="#697447" stroke-linecap="round" stroke-linejoin="round" stroke-width="1.10631"/>
<path d="M127.67 160.378C131.123 161.089 132.096 159.319 132.322 156.461" fill="none" fill-rule="evenodd" opacity="0.994817" stroke="#697447" stroke-linecap="round" stroke-linejoin="round" stroke-width="1.10631"/>
<path d="M135.66 152.936C130.573 150.305 131.021 157.578 133.79 158.529C136.789 159.559 137.62 152.918 135.922 152.199C135.815 152.153 135.88 152.441 135.924 152.549C136.131 153.061 136.337 153.519 136.593 154.029C136.824 154.489 138.768 158.335 139.904 157.875C140.664 157.567 140.6 156.266 140.545 155.653C140.363 153.598 139.727 151.617 139.891 149.54" fill="none" fill-rule="evenodd" opacity="0.994817" stroke="#697447" stroke-linecap="round" stroke-linejoin="round" stroke-width="1.10631"/>
<path d="M140.118 148.887C139.961 149.649 141.798 152.693 142.797 151.867C144.906 150.124 142.388 147.083 143.192 145.749C143.26 145.636 143.356 145.962 143.399 146.086C143.492 146.355 143.514 146.645 143.595 146.918C143.714 147.312 143.852 147.701 143.999 148.086C144.514 149.445 145.698 154.011 147.777 154.125C148.853 154.185 148.717 152.261 148.695 151.721C148.607 149.527 147.891 148.063 149.347 146.41" fill="none" fill-rule="evenodd" opacity="0.994817" stroke="#697447" stroke-linecap="round" stroke-linejoin="round" stroke-width="1.10631"/>
<path d="M155.127 146.662C157.228 146.264 155.666 140.085 154.59 139.8C154.401 139.75 154.616 140.223 154.75 140.367C155.169 140.815 155.784 140.789 156.307 140.577C157.288 140.179 157.76 139.154 157.755 138.098C157.75 136.764 155.768 133.152 154.23 134.759C152.651 136.411 155.985 141.168 157.422 141.947C158.394 142.474 159.726 140.801 160.044 140.114C160.588 138.94 161.385 134.85 160.378 133.671" fill="none" fill-rule="evenodd" opacity="0.994817" stroke="#697447" stroke-linecap="round" stroke-linejoin="round" stroke-width="1.10631"/>
<path d="M160.982 128.24C157.145 126.615 158.902 133.835 162.005 133.362C164.008 133.057 162.67 129.38 162.104 128.416C161.835 127.956 160.947 126.828 160.905 127.359C160.79 128.819 164.901 132.361 166.532 131.388C167.476 130.826 165.653 126.254 165.203 125.338C165.109 125.147 164.259 123.526 164.413 123.906" fill="none" fill-rule="evenodd" opacity="0.994817" stroke="#697447" stroke-linecap="round" stroke-linejoin="round" stroke-width="1.10631"/>
<path d="M163.697 123.004C163.902 124.461 167.156 127.185 167.382 124.315C167.437 123.622 166.473 120.105 165.65 120.04C165.621 120.038 165.934 120.36 166.002 120.389C166.375 120.547 166.641 119.962 166.723 119.746C167.015 118.97 166.957 117.999 166.748 117.213C166.517 116.348 165.573 114.537 164.361 114.955C162.733 115.517 164.094 118.749 164.502 119.454C165.632 121.408 167.28 122.911 169.569 122.448C173.437 121.666 171.517 116.131 171.352 113.525" fill="none" fill-rule="evenodd" opacity="0.994817" stroke="#697447" stroke-linecap="round" stroke-linejoin="round" stroke-width="1.10631"/>
<path d="M161.451 119.709C165.776 119.435 168.275 116.759 167.656 112.359" fill="none" fill-rule="evenodd" opacity="0.994817" stroke="#697447" stroke-linecap="round" stroke-linejoin="round" stroke-width="1.10631"/>
<path d="M159.939 121.513C160.108 121.321 159.994 121.431 160.311 121.222" fill="none" fill-rule="evenodd" opacity="0.994817" stroke="#697447" stroke-linecap="round" stroke-linejoin="round" stroke-width="1.10631"/>
</g>
</svg>
